<svg width="37" height="37" viewBox="0 0 37 37" fill="none" xmlns="http://www.w3.org/2000/svg">
<g clip-path="url(#clip0_1390_16662)">
<path d="M16 9L3.5 10.5V31L35 32L36 30V6.5L35 5L21.5 4.5L16 9Z" fill="#3A6AB8"/>
<path d="M36.5957 31.813L36.5956 31.813L36.5947 31.8178C36.534 32.1337 36.3237 32.3043 36.0042 32.4059C35.6844 32.5077 35.302 32.5236 34.9517 32.5382L34.9142 32.5397H21.8478H21.5978V32.7897V36.3225H19.2593L0.25 32.9999V4.00275L19.3727 0.675781H21.5978V3.77565V4.02565H21.8478H34.4646C34.5754 4.03019 34.6839 4.03286 34.7907 4.03548C35.0426 4.04168 35.2855 4.04765 35.5291 4.07739C35.8526 4.11689 36.1454 4.19618 36.4 4.35987C36.5679 4.6172 36.6509 4.91354 36.6932 5.24C36.7262 5.49417 36.7332 5.74924 36.7405 6.0131C36.7432 6.11104 36.7459 6.21019 36.75 6.31095L36.7332 28.183C36.7332 28.1837 36.7332 28.1844 36.7332 28.1851C36.7273 28.5314 36.734 28.8931 36.7406 29.2499C36.7455 29.5162 36.7504 29.7797 36.75 30.032C36.7489 30.6411 36.7186 31.2348 36.5957 31.813ZM15.3982 25.5199L15.8267 25.5448L15.637 25.1598C15.0933 24.0567 14.5472 22.9616 14.0015 21.8673C13.3975 20.656 12.7939 19.4457 12.1948 18.2267C13.3196 15.9717 14.4282 13.7089 15.5324 11.4467L15.7178 11.0669L15.2956 11.0873C14.3393 11.1337 13.3833 11.1926 12.432 11.26L12.2774 11.271L12.2184 11.4143C12.0084 11.925 11.7859 12.4361 11.5623 12.9499C11.1406 13.9188 10.7148 14.8972 10.3604 15.9005C10.0222 14.8941 9.63509 13.9055 9.25071 12.924C9.08586 12.503 8.92152 12.0834 8.76175 11.6641L8.69676 11.4936L8.51452 11.5035C7.58915 11.554 6.66388 11.6086 5.73933 11.6633L5.37626 11.6847L5.52636 12.016C5.92594 12.8979 6.33393 13.7703 6.74115 14.641C7.31615 15.8705 7.88961 17.0967 8.43566 18.3417C7.73035 19.6759 7.05197 21.0238 6.37505 22.3688C6.00235 23.1093 5.63009 23.849 5.25403 24.585L5.07646 24.9325L5.46639 24.9485L5.47605 24.9489C6.39272 24.9865 7.31344 25.0244 8.23465 25.0369L8.40767 25.0393L8.47082 24.8782C8.72831 24.2213 9.01023 23.5751 9.29436 22.9238C9.36968 22.7511 9.44516 22.5781 9.52038 22.4044C9.77858 21.8083 10.0329 21.2063 10.2633 20.5926C10.6073 21.6274 11.0466 22.6284 11.4803 23.6165C11.7089 24.1373 11.936 24.6546 12.1467 25.1713L12.2054 25.3154L12.3605 25.3263C13.3748 25.398 14.3846 25.4611 15.3982 25.5199ZM35.2454 5.77185V5.52185H34.9954H21.8478H21.5978V5.77185V7.57104V7.82104H21.8478H24.9603V10.2632H21.8478H21.5978V10.5132V12.1945V12.4445H21.8478H24.9603V14.8866H21.8478H21.5978V15.1366V16.8179V17.0679H21.8478H24.9603V19.5101H21.8478H21.5978V19.7601V21.4413V21.6913H21.8478H24.9603V24.1335H21.8478H21.5978V24.3835V26.0647V26.3147H21.8478H24.9603V28.7569H21.8478H21.5978V29.0069V30.9506V31.2006H21.8478H34.9954H35.2454V30.9506V5.77185ZM32.5259 19.5101H27.1415V17.0679H32.5259V19.5101ZM27.1415 24.1335V21.6913H32.5259V24.1335H27.1415ZM27.1415 7.82104H32.5259V10.2632H27.1415V7.82104ZM27.1415 12.4445H32.5259V14.8866H27.1415V12.4445ZM27.1415 28.7569V26.3147H32.5259V28.7569H27.1415Z" fill="white" stroke="#3A6AB8" stroke-width="0.5"/>
</g>
<defs>
<clipPath id="clip0_1390_16662">
<rect width="37" height="37" fill="white"/>
</clipPath>
</defs>
</svg>
