<svg width="37" height="37" viewBox="0 0 37 37" fill="none" xmlns="http://www.w3.org/2000/svg">
<rect x="0.5" y="0.5" width="36" height="36" rx="2.275" fill="white"/>
<rect x="0.5" y="0.5" width="36" height="36" rx="2.275" stroke="#3A6AB8"/>
<path d="M6.14062 10.7188H11.0709C12.562 10.7188 13.3075 11.4242 13.3075 12.8352V17.8376C13.3075 19.2485 12.562 19.954 11.0709 19.954H8.30512V25.7741H6.14062V10.7188ZM11.143 17.5009V13.1718C11.143 12.8832 11.0949 12.6989 10.9987 12.6187C10.9025 12.5225 10.7101 12.4744 10.4215 12.4744H8.30512V18.2224H10.4215C10.7101 18.2224 10.9025 18.1743 10.9987 18.0781C11.0949 17.9819 11.143 17.7895 11.143 17.5009Z" fill="#3A6AB8"/>
<path d="M15.5184 10.7188H20.7613C22.2524 10.7188 22.998 11.4242 22.998 12.8352V23.6577C22.998 25.0686 22.2524 25.7741 20.7613 25.7741H15.5184V10.7188ZM20.8094 23.3691V13.1238C20.8094 12.8352 20.7613 12.6508 20.6651 12.5706C20.5689 12.4744 20.3765 12.4263 20.0879 12.4263H17.707V24.0665H20.0879C20.3765 24.0665 20.5689 24.0264 20.6651 23.9463C20.7613 23.8501 20.8094 23.6577 20.8094 23.3691Z" fill="#3A6AB8"/>
<path d="M32.1877 12.4744H27.8106V17.4287H31.2738V19.1363H27.8106V25.7741H25.6221V10.7188H32.1877V12.4744Z" fill="#3A6AB8"/>
</svg>
