<svg width="37" height="37" viewBox="0 0 37 37" fill="none" xmlns="http://www.w3.org/2000/svg">
<rect x="0.5" y="0.5" width="36" height="36" rx="2.275" fill="white"/>
<rect x="0.5" y="0.5" width="36" height="36" rx="2.275" stroke="#3A6AB8"/>
<path d="M25.2026 14.5617C25.2026 15.3211 25.0656 16.0414 24.7916 16.7225C24.5254 17.3958 24.1536 17.9712 23.676 18.4487C23.0732 19.0437 22.3647 19.4939 21.5505 19.7992C20.7363 20.1045 19.7068 20.2572 18.4621 20.2572H16.4892V26.7746H14.1641V9.28906H18.556C19.5894 9.28906 20.4701 9.37518 21.1982 9.54741C21.9263 9.71965 22.5683 9.99757 23.1241 10.3812C23.7739 10.8274 24.2828 11.395 24.6507 12.0839C25.0187 12.765 25.2026 13.591 25.2026 14.5617ZM22.7835 14.6205C22.7835 14.0176 22.6779 13.4931 22.4665 13.0469C22.2629 12.6006 21.9498 12.2366 21.527 11.9548C21.1591 11.7121 20.7285 11.5398 20.2353 11.4381C19.7499 11.3363 19.1432 11.2854 18.4151 11.2854H16.4892V18.2726H18.0745C19.014 18.2726 19.7734 18.1982 20.3527 18.0495C20.932 17.8929 21.4135 17.6189 21.7971 17.2274C22.1416 16.8751 22.3921 16.4915 22.5487 16.0766C22.7053 15.6617 22.7835 15.1763 22.7835 14.6205Z" fill="#3A6AB8"/>
</svg>
