<svg width="38" height="38" viewBox="0 0 38 38" fill="none" xmlns="http://www.w3.org/2000/svg">
<g clip-path="url(#clip0_880_11169)">
<path d="M19.0665 0.464845C15.386 0.463697 11.7879 1.55405 8.72711 3.59797C5.66635 5.6419 3.28047 8.5476 1.87122 11.9476C0.461967 15.3476 0.0926426 19.0891 0.809964 22.699C1.52729 26.3089 3.29903 29.625 5.90111 32.2279C8.50319 34.8308 11.8187 36.6035 15.4284 37.322C19.0381 38.0404 22.7797 37.6723 26.1802 36.2641C29.5806 34.8559 32.487 32.4709 34.5319 29.4108C36.5768 26.3507 37.6682 22.7529 37.6682 19.0724C37.669 16.6291 37.1884 14.2096 36.2539 11.952C35.3194 9.69451 33.9494 7.64318 32.222 5.91523C30.4946 4.18728 28.4437 2.81656 26.1864 1.88137C23.9292 0.946185 21.5098 0.464845 19.0665 0.464845Z" fill="#0054A5"/>
<path d="M27.993 14.7636C27.8952 13.9457 27.8642 13.1213 27.9002 12.2984C27.9102 11.51 27.71 10.7332 27.3201 10.0479C26.3515 8.30778 24.0255 5.48879 19.0488 5.25098C14.0721 5.48879 11.7404 8.31938 10.7775 10.0479C10.3877 10.7332 10.1874 11.51 10.1975 12.2984C10.2334 13.1213 10.2024 13.9457 10.1047 14.7636C10.0734 14.9774 9.983 15.1783 9.84365 15.3436C9.02 16.3239 9.00841 16.8981 9.04321 17.0837C9.04701 17.1095 9.05938 17.1332 9.07832 17.1511C9.09726 17.169 9.12166 17.18 9.14761 17.1823C11.6021 17.3691 14.0441 17.6945 16.4619 18.1568C17.3073 18.3135 18.1658 18.3893 19.0256 18.383C19.8855 18.3893 20.7439 18.3135 21.5894 18.1568C24.0071 17.6938 26.4491 17.3685 28.9036 17.1823C28.9296 17.18 28.954 17.169 28.9729 17.1511C28.9919 17.1332 29.0042 17.1095 29.008 17.0837C29.0428 16.8807 29.008 16.3065 28.2076 15.3436C28.0849 15.1732 28.0107 14.9728 27.993 14.7636Z" fill="white"/>
<path d="M28.2027 17.8135C28.0262 17.7132 27.8256 17.663 27.6226 17.6685C27.2157 17.688 26.8187 17.8012 26.4626 17.9991C26.4245 18.0197 26.3909 18.0477 26.3638 18.0814C26.3367 18.1151 26.3167 18.1539 26.3048 18.1955C26.2929 18.2372 26.2894 18.2807 26.2946 18.3237C26.2998 18.3666 26.3135 18.4081 26.335 18.4457L26.422 18.5965C26.4701 18.6744 26.5465 18.7306 26.6352 18.7533C26.7239 18.7761 26.818 18.7635 26.8976 18.7183C27.1187 18.5989 27.3611 18.524 27.611 18.4979C27.651 18.4881 27.6928 18.4881 27.7328 18.4979C27.7676 18.4979 27.8256 18.6255 27.8082 18.8981C27.8015 19.6665 27.7297 20.433 27.5936 21.1893C27.4876 22.0686 27.1221 22.8965 26.5438 23.5674C26.5093 23.6002 26.4673 23.624 26.4215 23.6367C26.3757 23.6494 26.3275 23.6506 26.2811 23.6403C26.2346 23.63 26.1915 23.6084 26.1554 23.5775C26.1192 23.5466 26.0913 23.5073 26.0739 23.463C26.0455 23.3785 25.9907 23.3053 25.9176 23.2542C25.8446 23.203 25.7571 23.1766 25.6679 23.1788C25.6076 23.1779 25.5477 23.1893 25.4918 23.2122C25.436 23.2352 25.3854 23.2692 25.3431 23.3122C25.3036 23.3547 25.2738 23.4052 25.2558 23.4602C25.2378 23.5153 25.232 23.5737 25.2387 23.6312C25.2387 23.6718 25.6389 27.7901 23.4 30.2204C22.8369 30.796 22.1634 31.252 21.4199 31.5609C20.6763 31.8699 19.8781 32.0256 19.0729 32.0185C18.2677 32.0256 17.4695 31.8699 16.7259 31.5609C15.9824 31.252 15.3089 30.796 14.7458 30.2204C12.5069 27.7901 12.9013 23.6718 12.9013 23.6312C12.9069 23.5737 12.9006 23.5157 12.8826 23.4608C12.8646 23.4058 12.8354 23.3553 12.7969 23.3122C12.7535 23.269 12.7019 23.2349 12.6451 23.212C12.5883 23.1891 12.5275 23.1778 12.4663 23.1788C12.3771 23.1766 12.2896 23.203 12.2166 23.2542C12.1435 23.3053 12.0887 23.3785 12.0603 23.463C12.0429 23.5073 12.015 23.5466 11.9788 23.5775C11.9427 23.6084 11.8996 23.63 11.8532 23.6403C11.8067 23.6506 11.7585 23.6494 11.7127 23.6367C11.6669 23.624 11.6249 23.6002 11.5904 23.5674C11.01 22.8979 10.6442 22.0693 10.5406 21.1893C10.4011 20.4335 10.3293 19.6667 10.326 18.8981C10.326 18.6255 10.3666 18.5153 10.4014 18.4979C10.4412 18.4871 10.4833 18.4871 10.5232 18.4979C10.7729 18.5248 11.0152 18.5997 11.2366 18.7183C11.3163 18.7635 11.4103 18.7761 11.499 18.7533C11.5877 18.7306 11.6641 18.6744 11.7122 18.5965L11.7993 18.4457C11.8207 18.4081 11.8344 18.3666 11.8396 18.3237C11.8448 18.2807 11.8413 18.2372 11.8294 18.1955C11.8175 18.1539 11.7975 18.1151 11.7704 18.0814C11.7433 18.0477 11.7097 18.0197 11.6716 17.9991C11.3162 17.7994 10.9188 17.6861 10.5116 17.6685C10.3086 17.6624 10.1078 17.7126 9.93154 17.8135C9.7484 17.9402 9.60561 18.117 9.52024 18.3227C9.43487 18.5284 9.41053 18.7544 9.45011 18.9735C9.45011 19.5014 9.47911 23.8284 11.6832 24.6811C11.7237 24.6866 11.7646 24.6866 11.8051 24.6811C11.8051 24.6811 11.805 24.6811 11.8457 24.6811C11.8652 24.6795 11.8848 24.6819 11.9034 24.6881C11.9219 24.6943 11.9391 24.7042 11.9537 24.7173C11.9683 24.7303 11.9802 24.7461 11.9885 24.7638C11.9969 24.7815 12.0015 24.8007 12.0023 24.8203C12.0487 26.4502 12.4141 28.9908 14.0846 30.8063C14.729 31.4735 15.5026 32.0023 16.3583 32.3603C17.214 32.7184 18.1338 32.8981 19.0613 32.8886C19.988 32.898 20.9068 32.7182 21.7615 32.3601C22.6163 32.0021 23.3889 31.4733 24.0322 30.8063C25.7085 28.9908 26.0739 26.4502 26.1203 24.8203C26.1211 24.8007 26.1257 24.7815 26.1341 24.7638C26.1424 24.7461 26.1543 24.7303 26.1689 24.7173C26.1835 24.7042 26.2007 24.6943 26.2192 24.6881C26.2378 24.6819 26.2574 24.6795 26.2769 24.6811H26.3176C26.3579 24.6877 26.399 24.6877 26.4394 24.6811C28.6435 23.8284 28.6725 19.5014 28.6667 18.9735C28.7081 18.756 28.6864 18.5312 28.6042 18.3257C28.522 18.1201 28.3827 17.9424 28.2027 17.8135Z" fill="white"/>
</g>
<defs>
<clipPath id="clip0_880_11169">
<rect width="37.2093" height="37.2093" fill="white" transform="translate(0.464844 0.464844)"/>
</clipPath>
</defs>
</svg>
