<svg width="38" height="38" viewBox="0 0 38 38" fill="none" xmlns="http://www.w3.org/2000/svg">
<g clip-path="url(#clip0_880_11176)">
<path d="M19.2112 0.464845C15.5323 0.465992 11.9365 1.55794 8.87819 3.60262C5.81991 5.6473 3.43659 8.55291 2.02956 11.952C0.622525 15.3512 0.254968 19.0912 0.973376 22.6992C1.69178 26.3072 3.46388 29.6211 6.06561 32.2221C8.66734 34.823 11.9819 36.5941 15.5901 37.3113C19.1983 38.0286 22.9382 37.6599 26.3369 36.2518C29.7356 34.8437 32.6405 32.4595 34.6842 29.4006C36.7279 26.3417 37.8187 22.7454 37.8187 19.0666C37.8187 16.6233 37.3374 14.2039 36.4022 11.9467C35.467 9.68943 34.0963 7.63852 32.3684 5.91112C30.6404 4.18371 28.5891 2.81364 26.3316 1.87915C24.074 0.944667 21.6545 0.464083 19.2112 0.464845Z" fill="#0054A5"/>
<path d="M14.6208 18.1501H18.9884V15.4413L15.0094 7.55859L12.1788 8.52146C12.1788 8.52146 15.2646 15.4239 9.98047 16.642V30.5628H18.9942V26.462H10.4213V24.6349H18.9826V19.9946H10.4155V18.1732H12.8052L14.6208 18.1501Z" fill="white"/>
<path d="M25.6186 18.1791H28.0084V20.0004H19.4354V24.6407H27.9967V26.4678H19.4238V30.5687H28.4434V16.6478C23.9655 14.2697 26.2392 8.52731 26.2392 8.52731L23.4144 7.56445L19.4354 15.4471V18.1559H23.8031L25.6186 18.1791Z" fill="white"/>
</g>
<defs>
<clipPath id="clip0_880_11176">
<rect width="37.2093" height="37.2093" fill="white" transform="translate(0.607422 0.464844)"/>
</clipPath>
</defs>
</svg>
