<svg width="38" height="38" viewBox="0 0 38 38" fill="none" xmlns="http://www.w3.org/2000/svg">
<g clip-path="url(#clip0_880_11183)">
<path d="M15.8851 37.3475C5.79264 35.4277 -0.832662 25.6899 1.08711 15.5974C3.00688 5.50487 12.7447 -1.12043 22.8372 0.799338C32.9297 2.71911 39.555 12.457 37.6353 22.5495C35.7155 32.642 25.9776 39.2673 15.8851 37.3475Z" fill="#0054A5"/>
<path d="M8.47182 22.1879C8.55303 22.0544 8.62263 21.9442 8.66903 21.8572C8.8944 21.2492 9.01976 20.6087 9.04025 19.9605V11.144C9.04025 11.084 9.06409 11.0264 9.10651 10.984C9.14894 10.9416 9.20647 10.9178 9.26647 10.9178H15.8151L16.8417 6.85751C16.8594 6.7949 16.9008 6.74166 16.9572 6.70916C17.0135 6.67665 17.0803 6.66744 17.1434 6.6835L25.6641 8.84123C25.723 8.85632 25.7737 8.89395 25.8052 8.94602C25.8366 8.9981 25.8464 9.06045 25.8323 9.11965L23.8428 17.2402C23.8156 17.3464 23.8113 17.4572 23.8303 17.5653C23.8493 17.6733 23.8911 17.776 23.953 17.8666L26.975 22.4199C27.0746 22.5711 27.2247 22.682 27.3984 22.7331C28.2724 22.9694 29.0706 23.4272 29.7158 24.0623C30.3611 24.6973 30.8315 25.4882 31.0816 26.3583C31.3155 27.1441 31.4117 27.9643 31.3658 28.7829C31.3634 28.8292 31.3634 28.8757 31.3658 28.9221C31.3384 29.0611 31.2674 29.1878 31.1631 29.2837C31.0588 29.3797 30.9266 29.4399 30.7858 29.4557H30.5828H30.4726L28.309 28.9047C28.3035 29.0625 28.2422 29.2132 28.136 29.33C28.0298 29.4468 27.8856 29.5222 27.729 29.5427H27.6768H18.6341L14.9102 27.4488V29.1367C14.9102 29.2598 14.8613 29.3778 14.7743 29.4648C14.6873 29.5518 14.5693 29.6007 14.4462 29.6007H9.27807C9.15192 29.6007 9.03094 29.5506 8.94175 29.4614C8.85255 29.3722 8.80244 29.2512 8.80244 29.1251V26.6657L8.35581 26.1959C6.98112 24.5486 7.94979 23.0115 8.47182 22.1879ZM27.5376 26.8861C27.72 27.1959 27.8771 27.5198 28.0074 27.8548L30.1594 28.4L30.4668 28.4754C30.4668 28.3826 30.4668 28.284 30.4668 28.168C30.4539 27.6391 30.37 27.1143 30.2174 26.6077C29.986 25.8142 29.5376 25.101 28.9227 24.5486C28.3078 23.9962 27.5509 23.6266 26.7372 23.4813C26.6259 23.4565 26.5284 23.3901 26.4645 23.2957L22.9437 18.2088C22.8546 18.079 22.7944 17.9315 22.7674 17.7763C22.7404 17.6212 22.7471 17.4621 22.7871 17.3098L24.736 9.73448C24.7422 9.71163 24.7437 9.6878 24.7406 9.66434C24.7375 9.64089 24.7298 9.61827 24.718 9.5978C24.7061 9.57732 24.6903 9.55938 24.6715 9.54501C24.6527 9.53064 24.6313 9.52013 24.6084 9.51407L17.6886 7.77396C17.6715 7.76867 17.6534 7.76688 17.6356 7.76871C17.6178 7.77054 17.6005 7.77595 17.5848 7.78462C17.5691 7.79328 17.5553 7.80502 17.5442 7.81913C17.5331 7.83325 17.525 7.84945 17.5204 7.86677L16.7489 10.9294H17.6132C17.6732 10.9294 17.7307 10.9532 17.7731 10.9956C17.8156 11.038 17.8394 11.0956 17.8394 11.1556L17.9032 19.9199L22.8103 24.3456H22.8625C23.7992 24.3034 24.7297 24.5177 25.5535 24.9655C26.3774 25.4132 27.0634 26.0773 27.5376 26.8861ZM26.3195 26.4859C25.9313 25.9052 25.3393 25.4912 24.6606 25.3259C24.4402 25.2794 24.1444 25.3839 24.0806 25.5985V25.6391C24.0806 25.8073 24.214 25.9465 24.3996 26.0045C24.8962 26.1628 25.3318 26.4708 25.6467 26.8861C25.7569 27.0312 25.9947 27.1704 26.1687 27.037C26.2561 26.9788 26.3195 26.8909 26.3473 26.7897C26.375 26.6884 26.3651 26.5805 26.3195 26.4859ZM10.0785 26.7701C10.0785 26.824 10.0999 26.8756 10.138 26.9137C10.1761 26.9518 10.2277 26.9732 10.2815 26.9732H17.0216C17.1571 26.9738 17.2912 27.0014 17.416 27.0544L20.7744 28.4928C20.8737 28.5339 20.9801 28.5556 21.0876 28.5567H25.9889C26.0427 28.5567 26.0944 28.5353 26.1325 28.4972C26.1705 28.4591 26.1919 28.4075 26.1919 28.3536C26.1919 28.3272 26.1866 28.3011 26.1764 28.2768C26.1661 28.2525 26.151 28.2305 26.1321 28.2121C26.1132 28.1937 26.0908 28.1793 26.0662 28.1697C26.0416 28.1602 26.0153 28.1557 25.9889 28.1564H21.1456C21.0542 28.156 20.9636 28.1383 20.8788 28.1042L17.3986 26.6251C17.3221 26.5903 17.239 26.5725 17.155 26.5729L10.2525 26.6019C10.2259 26.6019 10.1995 26.6072 10.1748 26.6174C10.1502 26.6276 10.1278 26.6425 10.109 26.6614C10.0901 26.6802 10.0752 26.7026 10.065 26.7272C10.0548 26.7519 10.0495 26.7783 10.0495 26.8049L10.0785 26.7701Z" fill="white"/>
</g>
<defs>
<clipPath id="clip0_880_11183">
<rect width="37.2093" height="37.2093" fill="white" transform="matrix(-1 0 0 1 37.9609 0.464844)"/>
</clipPath>
</defs>
</svg>
