<svg width="39" height="38" viewBox="0 0 39 38" fill="none" xmlns="http://www.w3.org/2000/svg">
<g clip-path="url(#clip0_880_11189)">
<path d="M19.4982 0.465821C15.818 0.465821 12.2204 1.55714 9.16038 3.60176C6.10038 5.64639 3.71542 8.55249 2.30706 11.9526C0.898698 15.3527 0.530192 19.094 1.24817 22.7035C1.96614 26.313 3.73834 29.6286 6.34065 32.2309C8.94296 34.8332 12.2585 36.6054 15.868 37.3234C19.4775 38.0414 23.2189 37.6729 26.619 36.2645C30.0191 34.8562 32.9252 32.4712 34.9698 29.4112C37.0144 26.3512 38.1057 22.7536 38.1057 19.0734C38.1065 16.6296 37.6257 14.2096 36.6909 11.9517C35.756 9.69376 34.3854 7.64218 32.6574 5.91415C30.9294 4.18613 28.8778 2.81553 26.6199 1.88069C24.362 0.945838 21.942 0.465059 19.4982 0.465821Z" fill="#0054A5"/>
<path d="M30.0301 18.4877C29.9879 17.774 29.8554 17.0684 29.6357 16.388C29.6055 16.3028 29.5428 16.233 29.4613 16.1939C29.3798 16.1547 29.2861 16.1495 29.2007 16.1792C29.1276 16.2145 29.0697 16.275 29.0377 16.3496C29.0057 16.4243 29.0018 16.5079 29.0267 16.5852C29.2308 17.2206 29.3536 17.8794 29.3921 18.5457C29.4577 19.3291 29.3612 20.1176 29.1087 20.862C28.8563 21.6065 28.4532 22.2909 27.9246 22.8728C27.8657 22.9436 27.7974 23.006 27.7216 23.0584C27.7132 23.0657 27.7031 23.0707 27.6922 23.0729C27.6813 23.0751 27.67 23.0744 27.6594 23.0709C27.6489 23.0674 27.6394 23.0612 27.632 23.0529C27.6246 23.0446 27.6195 23.0345 27.6172 23.0236C27.5993 22.9454 27.5877 22.8659 27.5824 22.7858V22.6756C27.5832 22.6335 27.5755 22.5916 27.5597 22.5526C27.544 22.5135 27.5205 22.478 27.4907 22.4482C27.4609 22.4185 27.4254 22.395 27.3864 22.3792C27.3473 22.3635 27.3055 22.3558 27.2634 22.3566C27.2208 22.3557 27.1784 22.3636 27.139 22.3797C27.0995 22.3958 27.0638 22.4198 27.0339 22.4502C27.004 22.4806 26.9807 22.5168 26.9653 22.5566C26.9499 22.5963 26.9428 22.6388 26.9443 22.6814C26.9415 22.7161 26.9415 22.751 26.9443 22.7858C26.9443 23.9749 26.6543 27.5595 24.4328 29.8854C23.2704 31.0786 21.7187 31.8154 20.0593 31.962C19.6934 32.0084 19.3231 32.0084 18.9573 31.962C17.3 31.8141 15.7505 31.0774 14.5896 29.8854C12.368 27.5653 12.1012 23.9749 12.078 22.7858C12.078 22.751 12.078 22.7162 12.078 22.6872C12.0796 22.6443 12.0725 22.6016 12.0572 22.5615C12.0418 22.5215 12.0186 22.4849 11.9888 22.4541C11.959 22.4232 11.9233 22.3986 11.8838 22.3819C11.8444 22.3651 11.8019 22.3565 11.759 22.3566C11.7166 22.3558 11.6745 22.3635 11.6351 22.3792C11.5958 22.3948 11.5599 22.4182 11.5297 22.4479C11.4994 22.4776 11.4754 22.5131 11.459 22.5521C11.4426 22.5912 11.4342 22.6332 11.4342 22.6756C11.4342 22.7104 11.4342 22.7452 11.4342 22.78C11.4342 22.8148 11.4342 22.9598 11.3994 23.0178C11.3971 23.0287 11.392 23.0388 11.3846 23.0471C11.3771 23.0554 11.3677 23.0616 11.3572 23.0651C11.3466 23.0686 11.3353 23.0693 11.3244 23.0671C11.3135 23.0649 11.3034 23.0599 11.295 23.0526C11.2174 23.0004 11.1471 22.9379 11.0862 22.867C10.5577 22.2848 10.1543 21.6005 9.90092 20.8562C9.64751 20.1119 9.54948 19.3236 9.61288 18.5399C9.65264 17.8733 9.77738 17.2144 9.9841 16.5794C9.99705 16.5394 10.002 16.4973 9.99865 16.4554C9.99531 16.4135 9.98375 16.3726 9.96463 16.3352C9.9455 16.2978 9.91921 16.2645 9.88722 16.2372C9.85523 16.2099 9.81817 16.1892 9.77818 16.1763C9.73819 16.1633 9.69605 16.1584 9.65414 16.1617C9.61224 16.1651 9.5714 16.1766 9.53397 16.1957C9.49654 16.2149 9.46324 16.2412 9.43598 16.2732C9.40871 16.3052 9.38802 16.3422 9.37507 16.3822C9.15542 17.0626 9.02287 17.7682 8.98063 18.4819C8.90875 19.3523 9.01634 20.2282 9.2967 21.0553C9.57706 21.8824 10.0242 22.6431 10.6105 23.2904C10.7376 23.4383 10.8885 23.5638 11.0572 23.6616C11.1946 23.7359 11.3123 23.8421 11.4001 23.9713C11.4879 24.1005 11.5434 24.2489 11.5618 24.4041C11.5966 24.6535 11.6372 24.9203 11.6894 25.1987C12.0014 27.1052 12.846 28.8847 14.1256 30.3321C15.3811 31.6233 17.0543 32.427 18.847 32.6H19.0153C19.343 32.6348 19.6735 32.6348 20.0013 32.6H20.1753C21.9681 32.427 23.6412 31.6233 24.8968 30.3321C26.1764 28.8847 27.0209 27.1052 27.333 25.1987C27.3852 24.9203 27.4258 24.6535 27.4606 24.4041C27.479 24.2489 27.5345 24.1005 27.6223 23.9713C27.7101 23.8421 27.8277 23.7359 27.9652 23.6616C28.1329 23.5625 28.2837 23.4372 28.4118 23.2904C28.993 22.6414 29.4362 21.8809 29.7144 21.0553C29.9926 20.2297 30.1 19.3561 30.0301 18.4877Z" fill="white"/>
<path d="M20.3729 18.575C21.0458 18.575 21.243 20.0657 21.243 20.0657C21.2716 20.3459 21.3828 20.6112 21.5625 20.8281C21.7422 21.045 21.9822 21.2036 22.2522 21.2837C22.5017 21.3824 25.019 21.5158 25.019 21.5158C27.1478 21.5158 27.5944 19.097 27.5944 19.097C27.7684 17.3163 28.6964 17.1423 28.6964 17.1423V16.0924L20.7558 16.0576C20.6339 17.0321 19.8683 16.8523 19.8683 16.8523H19.2129C19.2129 16.8523 18.4472 17.0263 18.3254 16.0576L10.3789 16.0924V17.1423C10.3789 17.1423 11.307 17.3163 11.4868 19.097C11.4868 19.097 11.9276 21.5158 14.0621 21.5158C14.0621 21.5158 16.5795 21.3824 16.8289 21.2837C17.0982 21.2022 17.3374 21.0432 17.5169 20.8266C17.6964 20.61 17.8081 20.3454 17.8382 20.0657C17.8382 20.0657 18.0296 18.575 18.7082 18.575H20.3729Z" fill="white"/>
<path d="M10.6555 11.2143C11.5023 8.31407 14.5649 7.18301 14.5649 7.18301C16.9908 6.23406 19.6269 5.95362 22.1982 6.37097C28.2422 7.57164 28.7816 11.4289 28.7816 11.4289C29.0136 12.0089 28.9962 15.3325 28.9962 15.3325C31.4091 9.14353 25.4522 6.73059 25.4522 6.73059C22.3912 5.37944 18.9583 5.12341 15.7308 6.00554C7.21586 8.5577 10.4118 15.3325 10.4118 15.3325C10.2357 13.9566 10.3184 12.5598 10.6555 11.2143Z" fill="white"/>
<path d="M20.7718 11.1979C20.5223 12.0679 18.8634 11.8359 18.8634 11.8359C17.628 11.7547 15.7834 11.8359 15.7834 11.8359C11.8566 11.9925 11.1432 13.3324 11.1432 13.3324C10.9199 13.6409 10.8096 14.0168 10.8307 14.3971C10.8518 14.7773 11.0031 15.1387 11.2592 15.4205C11.2185 14.9072 11.3497 14.3949 11.6322 13.9643C11.9146 13.5338 12.3324 13.2094 12.8195 13.0424C15.8705 12.0273 19.4319 12.6248 19.4319 12.6248C19.3037 12.8963 19.1029 13.1271 18.8518 13.2918C24.31 13.6398 25.7369 11.4879 25.7369 11.4879C25.6789 14.4229 27.477 15.0029 27.477 15.0029C26.2589 13.9008 26.4735 9.43457 26.4735 9.43457C26.1745 9.69284 25.9418 10.019 25.7949 10.3858C23.8576 12.5958 20.4469 12.5436 20.4469 12.5436C21.2416 11.8127 20.7718 11.1979 20.7718 11.1979Z" fill="white"/>
</g>
<defs>
<clipPath id="clip0_880_11189">
<rect width="37.2093" height="37.2093" fill="white" transform="translate(0.894531 0.464844)"/>
</clipPath>
</defs>
</svg>
