<svg width="38" height="38" viewBox="0 0 38 38" fill="none" xmlns="http://www.w3.org/2000/svg">
<g clip-path="url(#clip0_880_11198)">
<path d="M18.6546 0.465821C14.9757 0.466968 11.3798 1.55891 8.32156 3.6036C5.26328 5.64828 2.87994 8.55389 1.47291 11.953C0.0658781 15.3521 -0.30167 19.0921 0.416737 22.7001C1.13514 26.3081 2.90725 29.6221 5.50898 32.223C8.11071 34.824 11.4252 36.595 15.0335 37.3123C18.6417 38.0296 22.3816 37.6609 25.7803 36.2528C29.179 34.8447 32.0838 32.4605 34.1276 29.4015C36.1713 26.3426 37.2621 22.7464 37.2621 19.0676C37.2621 16.6243 36.7808 14.2049 35.8456 11.9476C34.9104 9.6904 33.5397 7.6395 31.8117 5.91209C30.0838 4.18468 28.0325 2.81461 25.7749 1.88013C23.5174 0.945643 21.0979 0.465059 18.6546 0.465821Z" fill="#0054A5"/>
<path d="M16.071 13.9048C15.8536 13.9975 15.6778 14.167 15.5773 14.3809C15.4768 14.5948 15.4584 14.8383 15.5258 15.0649L16.9585 18.2144C16.9787 18.2459 16.9921 18.2813 16.9978 18.3183C17.0035 18.3553 17.0014 18.393 16.9916 18.4291C16.9817 18.4652 16.9644 18.4989 16.9407 18.5278C16.917 18.5568 16.8875 18.5805 16.8541 18.5973C16.8541 18.5973 16.6162 18.7539 16.4596 18.4465L14.5455 14.0092C14.4407 13.8052 14.2649 13.6466 14.0512 13.5632C13.8375 13.4799 13.6007 13.4776 13.3854 13.5568C13.2627 13.5925 13.1486 13.6533 13.0504 13.7352C12.9522 13.8171 12.872 13.9184 12.8148 14.0328C12.7577 14.1471 12.7247 14.2721 12.7181 14.3998C12.7115 14.5275 12.7313 14.6552 12.7764 14.7748L14.7195 19.4151C14.7467 19.4682 14.7534 19.5294 14.7384 19.5872C14.7235 19.6449 14.6878 19.6951 14.6383 19.7283C14.6383 19.7283 14.4643 19.885 14.3077 19.5833L12.4516 15.0649C12.3393 14.8556 12.1498 14.6984 11.9233 14.6269C11.6968 14.5554 11.4514 14.5752 11.2393 14.682C11.0355 14.772 10.8692 14.9298 10.7687 15.1287C10.6682 15.3275 10.6398 15.5551 10.6883 15.7725L12.7242 20.5984C12.7242 20.5984 12.8692 20.8652 12.6314 20.9696C12.6314 20.9696 12.4052 21.1378 12.2428 20.8014L10.6709 16.805C10.5761 16.6054 10.4084 16.4496 10.2024 16.3698C9.99634 16.29 9.76754 16.2921 9.56301 16.3757C9.56301 16.3757 8.63495 16.6542 8.88436 17.4778L14.6209 32.2049L23.8087 28.9857L17.2427 14.218C17.1266 14.0236 16.9392 13.8821 16.7204 13.8236C16.5016 13.7651 16.2687 13.7942 16.071 13.9048Z" fill="white"/>
<path d="M15.8516 12.9605C15.8523 13.0771 15.8958 13.1894 15.9739 13.276C16.0519 13.3626 16.1591 13.4175 16.275 13.4303C16.275 13.4303 16.855 13.4999 16.855 12.9779V8.81902C16.855 8.81902 16.7564 8.07657 17.4061 8.06497C17.4061 8.06497 18.0673 7.96637 18.0441 8.75522V13.0301C18.0484 13.0859 18.0639 13.1402 18.0899 13.1898C18.1158 13.2393 18.1516 13.2831 18.195 13.3184C18.2385 13.3537 18.2886 13.3797 18.3424 13.395C18.3963 13.4102 18.4527 13.4144 18.5081 13.4071C18.5081 13.4071 19.0534 13.4477 19.036 13.0301V8.06497C19.0465 7.82095 19.1431 7.58856 19.3088 7.40909C19.4745 7.22961 19.6984 7.11468 19.9408 7.08472C19.9408 7.08472 20.8283 6.92811 20.7993 7.99537L20.6717 11.4292C20.6762 11.54 20.7234 11.6447 20.8034 11.7215C20.8834 11.7983 20.99 11.8411 21.1009 11.841C21.1648 11.8482 21.2294 11.8424 21.291 11.8239C21.3525 11.8054 21.4097 11.7746 21.459 11.7334C21.5084 11.6922 21.5488 11.6415 21.578 11.5842C21.6072 11.5269 21.6244 11.4643 21.6287 11.4002L21.8027 7.56615C21.8027 7.35694 21.8858 7.15629 22.0338 7.00835C22.1817 6.86041 22.3824 6.7773 22.5916 6.7773C22.5916 6.7773 23.2818 6.63809 23.2818 7.48494V11.5858C23.2962 11.7021 23.3536 11.8089 23.4427 11.8851C23.5318 11.9613 23.6461 12.0014 23.7633 11.9976C23.828 12.007 23.894 12.0021 23.9567 11.9831C24.0193 11.9642 24.077 11.9317 24.1257 11.888C24.1744 11.8443 24.2129 11.7904 24.2385 11.7301C24.264 11.6699 24.2761 11.6048 24.2737 11.5394L24.3317 8.59281C24.3212 8.49872 24.3304 8.40349 24.3586 8.31313C24.3868 8.22277 24.4335 8.13924 24.4956 8.06783C24.5578 7.99642 24.6341 7.93867 24.7197 7.89825C24.8053 7.85782 24.8983 7.83559 24.9929 7.83296C24.9929 7.83296 25.66 7.70535 25.7122 8.78422V14.3178C25.7122 14.3178 25.8514 21.0346 26.1704 24.7932L23.4674 25.5067C23.4674 25.5067 23.0672 25.7851 23.4674 26.0229L27.1913 25.6633C27.1913 25.6633 26.5126 16.2203 26.6692 15.7389C26.6692 15.7389 26.472 11.899 26.6286 8.97563C26.6286 8.97563 26.7214 7.19492 25.4686 7.07312C25.045 7.00906 24.612 7.06118 24.2157 7.22392C24.2069 7.04224 24.1618 6.86416 24.0831 6.70017C24.0044 6.53618 23.8937 6.3896 23.7575 6.26905C23.6213 6.14851 23.4623 6.05645 23.29 5.9983C23.1176 5.94014 22.9354 5.91708 22.754 5.93045C22.4641 5.91191 22.174 5.96459 21.9091 6.08389C21.6442 6.20319 21.4126 6.38549 21.2343 6.61488C21.0345 6.44522 20.7972 6.32566 20.542 6.26614C20.2868 6.20662 20.021 6.20886 19.7668 6.27267C19.4511 6.34232 19.1553 6.48299 18.9021 6.684C18.6488 6.885 18.4447 7.14106 18.3051 7.43274C17.8289 7.20439 17.2838 7.16501 16.7796 7.32253C16.7796 7.32253 15.811 7.72276 15.869 9.39326L15.8516 12.9605Z" fill="white"/>
<path d="M22.4872 19.8447C22.4872 19.8447 22.5684 19.7635 22.5974 18.8934V15.7322C22.5935 15.3683 22.4756 15.0147 22.2602 14.7213C22.0448 14.4278 21.7428 14.2093 21.3968 14.0965C21.1391 14.052 20.8748 14.0643 20.6224 14.1324C20.3699 14.2005 20.1354 14.3229 19.9351 14.491C19.5044 14.9403 19.1742 15.4762 18.9664 16.0629C18.9305 16.2115 18.9305 16.3666 18.9664 16.5153C18.9664 16.5153 19.1868 16.7937 19.3608 16.2717C19.6106 15.7454 20.0154 15.3082 20.5209 15.0188C20.6717 14.9312 20.8496 14.9029 21.0201 14.9394C21.1906 14.9759 21.3414 15.0745 21.4432 15.216C21.4432 15.216 21.7622 15.4596 21.7912 16.7995C21.7912 16.7995 21.7912 18.8238 21.7912 19.0732C21.7675 19.3612 21.703 19.6444 21.5998 19.9143C21.5998 19.9143 21.3794 20.6219 21.2982 21.0106C21.2221 21.4687 21.2085 21.935 21.2576 22.3968C21.3474 22.7487 21.5514 23.0608 21.8376 23.2843C21.8146 22.8431 21.8282 22.4008 21.8782 21.9618C21.9795 21.2307 22.1846 20.5178 22.4872 19.8447Z" fill="white"/>
</g>
<defs>
<clipPath id="clip0_880_11198">
<rect width="37.2093" height="37.2093" fill="white" transform="translate(0.0390625 0.464844)"/>
</clipPath>
</defs>
</svg>
