<svg width="38" height="38" viewBox="0 0 38 38" fill="none" xmlns="http://www.w3.org/2000/svg">
<g clip-path="url(#clip0_880_11206)">
<path d="M18.7853 0.465821C15.1051 0.465821 11.5075 1.55714 8.44749 3.60176C5.3875 5.64638 3.00252 8.55249 1.59416 11.9526C0.185794 15.3527 -0.182694 19.094 0.535282 22.7035C1.25326 26.313 3.02545 29.6286 5.62777 32.2309C8.23008 34.8332 11.5456 36.6054 15.1551 37.3234C18.7647 38.0414 22.506 37.6729 25.9061 36.2645C29.3062 34.8561 32.2123 32.4712 34.2569 29.4112C36.3015 26.3512 37.3928 22.7536 37.3928 19.0734C37.3936 16.6296 36.9128 14.2096 35.978 11.9517C35.0431 9.69375 33.6725 7.64217 31.9445 5.91415C30.2165 4.18613 28.1649 2.81553 25.907 1.88068C23.6491 0.945838 21.2291 0.465059 18.7853 0.465821Z" fill="#0054A5"/>
<path d="M12.8408 16.9393L12.1969 14.9149C12.1711 14.8326 12.1744 14.744 12.206 14.6638C12.2377 14.5835 12.2959 14.5166 12.371 14.4741C13.1308 14.0565 15.5496 12.9544 19.604 13.198C19.5707 13.3773 19.4995 13.5473 19.3952 13.6969C19.3898 13.7036 19.3864 13.7117 19.3853 13.7202C19.3843 13.7288 19.3857 13.7375 19.3893 13.7453C19.3929 13.7532 19.3986 13.7598 19.4058 13.7646C19.413 13.7693 19.4214 13.772 19.43 13.7723C20.01 13.7259 22.7768 13.3952 24.4299 11.1621C24.438 11.1541 24.4483 11.1488 24.4594 11.1466C24.4706 11.1444 24.4821 11.1456 24.4926 11.1499C24.5031 11.1542 24.5121 11.1615 24.5185 11.1709C24.5248 11.1803 24.5283 11.1913 24.5285 11.2027C24.4937 11.9219 24.4299 14.4625 25.3579 15.2223C25.378 15.2374 25.392 15.2592 25.3973 15.2837C25.4026 15.3081 25.3989 15.3337 25.387 15.3558L25.0853 15.9358C25.0788 15.9442 25.0705 15.951 25.0609 15.9557C25.0514 15.9604 25.0409 15.9629 25.0302 15.9629C25.0196 15.9629 25.0091 15.9604 24.9995 15.9557C24.99 15.951 24.9816 15.9442 24.9751 15.9358C24.2947 15.0008 23.9309 13.8729 23.9369 12.7166C23.9379 12.7047 23.9353 12.6929 23.9294 12.6825C23.9235 12.6722 23.9146 12.664 23.9038 12.6589C23.893 12.6538 23.881 12.6522 23.8693 12.6542C23.8575 12.6562 23.8467 12.6618 23.8383 12.6702C23.3858 13.0936 21.3963 14.6887 17.6667 14.2885C17.8232 14.1625 17.9533 14.0067 18.0495 13.8303C18.0534 13.8223 18.0553 13.8135 18.0549 13.8047C18.0545 13.7958 18.0518 13.7872 18.0472 13.7797C18.0426 13.7722 18.0361 13.7659 18.0284 13.7616C18.0206 13.7572 18.012 13.7549 18.0031 13.7549C17.4753 13.7955 14.6621 14.0391 13.1192 14.9149C13.0604 14.95 13.0111 14.9991 12.9756 15.0578C12.9402 15.1164 12.9198 15.1829 12.9162 15.2513L12.8408 16.9393Z" fill="white"/>
<path d="M30.2281 18.4013C30.1469 16.0812 28.7317 15.4257 28.053 15.2459C27.9574 15.2212 27.8752 15.16 27.8242 15.0754C27.7732 14.9908 27.7575 14.8896 27.7804 14.7935L28.401 12.1775C28.5142 11.711 28.4501 11.219 28.2212 10.797C25.5472 5.85512 18.8362 5.98273 18.784 5.98273C18.7318 5.98273 12.0266 5.85512 9.34686 10.797C9.12254 11.2206 9.06065 11.7115 9.17284 12.1775L9.81088 14.7935C9.83225 14.8895 9.81586 14.99 9.7651 15.0742C9.71435 15.1585 9.63312 15.2199 9.53826 15.2459C8.85962 15.4257 7.44433 16.0754 7.35732 18.4013C7.35732 18.4013 6.7773 23.9812 8.99883 26.4464C9.18226 26.6492 9.41359 26.8027 9.67168 26.893C10.806 27.1922 11.986 27.2788 13.1519 27.1482C13.177 27.1468 13.2016 27.1403 13.2243 27.1293C13.247 27.1183 13.2672 27.1029 13.2839 27.0841C13.3006 27.0652 13.3135 27.0432 13.3217 27.0194C13.3299 26.9956 13.3333 26.9704 13.3317 26.9452C13.3317 25.7155 13.1519 18.7377 11.8468 14.9617C11.7851 14.8418 11.6956 14.7384 11.5858 14.6601C11.5293 14.6262 11.4822 14.5787 11.4488 14.522C11.4153 14.4653 11.3966 14.4011 11.3944 14.3352L11.3016 12.2471C11.2831 11.8397 11.3861 11.4359 11.5974 11.087C12.247 10.0024 14.0857 8.00705 18.7782 8.00125C23.4707 7.99545 25.3152 10.0024 25.9649 11.087C26.1762 11.4359 26.2792 11.8397 26.2607 12.2471L26.1679 14.3352C26.1656 14.4011 26.1469 14.4653 26.1135 14.522C26.0801 14.5787 26.033 14.6262 25.9765 14.6601C25.8667 14.7384 25.7772 14.8418 25.7155 14.9617C24.4162 18.7435 24.2538 25.7039 24.2364 26.9452C24.2348 26.9704 24.2382 26.9956 24.2464 27.0194C24.2546 27.0432 24.2674 27.0652 24.2841 27.0841C24.3008 27.1029 24.3211 27.1183 24.3438 27.1293C24.3664 27.1403 24.391 27.1468 24.4162 27.1482C25.5821 27.2788 26.762 27.1922 27.8964 26.893C28.1535 26.8041 28.3833 26.6503 28.5634 26.4464C30.7966 23.9638 30.2281 18.4013 30.2281 18.4013Z" fill="white"/>
<path d="M24.2609 27.6123C23.8674 28.315 23.3902 28.9675 22.8398 29.5554C22.3366 30.1197 21.7201 30.5715 21.0305 30.8813C20.3408 31.1911 19.5936 31.352 18.8376 31.3535H18.739C17.983 31.352 17.2357 31.1911 16.5461 30.8813C15.8565 30.5715 15.24 30.1197 14.7367 29.5554C14.1758 28.9708 13.6906 28.318 13.2925 27.6123H12.4746C13.0163 28.8096 13.8073 29.8774 14.7948 30.7445C15.7813 31.6574 17.0758 32.1648 18.42 32.1656H19.1566C20.5007 32.1643 21.7949 31.6569 22.7818 30.7445C23.7608 29.8763 24.5421 28.8082 25.073 27.6123H24.2609Z" fill="white"/>
</g>
<defs>
<clipPath id="clip0_880_11206">
<rect width="37.2093" height="37.2093" fill="white" transform="translate(0.181641 0.464844)"/>
</clipPath>
</defs>
</svg>
