<svg width="38" height="38" viewBox="0 0 38 38" fill="none" xmlns="http://www.w3.org/2000/svg">
<g clip-path="url(#clip0_880_11214)">
<path d="M18.9298 0.464845C15.2496 0.464845 11.652 1.55616 8.59202 3.60078C5.53203 5.64541 3.14705 8.55151 1.73869 11.9516C0.330326 15.3517 -0.0381627 19.093 0.679814 22.7026C1.39779 26.3121 3.16999 29.6276 5.7723 32.2299C8.37461 34.8322 11.6902 36.6044 15.2997 37.3224C18.9092 38.0404 22.6505 37.6719 26.0506 36.2635C29.4507 34.8552 32.3568 32.4702 34.4014 29.4102C36.4461 26.3502 37.5374 22.7526 37.5374 19.0724C37.5381 16.6286 37.0574 14.2086 36.1225 11.9507C35.1877 9.69278 33.8171 7.64119 32.0891 5.91317C30.361 4.18515 28.3094 2.81456 26.0515 1.87971C23.7936 0.944861 21.3736 0.464083 18.9298 0.464845Z" fill="#0054A5"/>
<g clip-path="url(#clip1_880_11214)">
<path d="M24.903 32.8215C24.8746 32.8357 24.8705 32.9595 24.8954 33.0143C25.1618 33.5984 24.8781 34.1195 24.2453 34.1967C24.2286 34.1967 24.2118 34.2012 24.1946 34.2018C22.9721 34.2408 21.7502 34.284 20.5277 34.3169C20.1964 34.3261 20.0035 34.1774 19.9406 33.9069C19.8716 33.6106 19.9736 33.3934 20.27 33.2472C20.411 33.1703 20.5619 33.1131 20.7185 33.0772C21.3523 32.9605 21.7065 32.6535 21.7664 31.6701C21.8268 30.6714 21.7081 29.6819 21.5695 28.6903C21.3204 26.9077 21.1245 25.1184 20.921 23.3301C20.9141 23.175 20.9637 23.0227 21.0606 22.9013C21.5538 22.2965 22.1719 21.8408 22.864 21.4871C23.3603 21.2334 23.7511 21.3115 24.152 21.7078C24.5133 22.063 24.7 22.4852 24.6909 23.0003C24.6645 24.4856 24.6741 25.9729 24.7634 27.4562C24.8522 28.9278 25.0496 30.3873 25.2201 31.8497L25.2227 31.872C25.2622 32.2313 25.3348 32.6099 24.903 32.8215Z" fill="white"/>
<path d="M14.2209 30.8781C13.9413 30.8274 13.6485 30.8121 13.3841 30.7178C12.8949 30.5432 12.8122 30.1174 13.2075 29.779C13.5008 29.5283 13.8378 29.3258 14.1671 29.1193C14.5223 28.8996 14.6355 28.7133 14.5441 28.3074C14.4746 27.9958 14.3605 27.6939 14.2569 27.3909C13.884 26.304 13.5018 25.2205 13.1339 24.1326C12.9096 23.4693 13.0908 22.8579 13.6764 22.4407C14.9014 21.5684 16.2345 20.9341 17.6619 20.4789C18.2115 20.3033 18.7012 20.3815 19.1751 20.7108C19.8282 21.165 20.2733 21.7526 20.4509 22.5341C20.5275 22.8705 20.5194 22.9086 20.2042 23.0329C19.1589 23.4445 18.1125 23.854 17.0611 24.2508C16.852 24.3295 16.7987 24.4142 16.8515 24.6365C17.2179 26.173 17.5696 27.7131 17.9258 29.2543C18.0496 29.7906 17.9537 29.9693 17.4143 30.0855C17.0276 30.1692 16.6293 30.1986 16.2365 30.2544C16.1629 30.2651 16.0772 30.2682 16.0208 30.3082C15.4819 30.6878 14.8841 30.8532 14.2209 30.8781Z" fill="white"/>
<path d="M26.0198 21.7095C25.5747 21.9124 25.39 21.8795 25.2175 21.4441C25.0074 20.9133 24.8598 20.3556 24.7141 19.802C24.5619 19.2306 24.4655 18.646 24.3082 18.0766C24.2336 17.8001 24.0823 17.5448 23.9661 17.2799L23.8707 17.2891C23.82 17.4083 23.7647 17.5245 23.7251 17.6443C23.5937 18.0467 23.3541 18.341 22.936 18.4674C22.7488 18.5237 22.626 18.4806 22.5209 18.2963C22.0135 17.4119 21.7821 16.4436 21.6841 15.4475C21.6126 14.7188 21.6258 13.981 21.6136 13.2467C21.6014 12.5535 21.9394 12.0405 22.4763 11.6406C22.7498 11.4376 22.7559 11.3661 22.5123 11.1332C22.0942 10.7318 22.0972 10.6501 22.4615 10.1939C22.7883 9.78793 22.8766 9.29316 22.8817 8.78724C22.8954 7.46786 22.899 6.14849 22.9076 4.82912C22.9076 4.72763 22.9167 4.6297 22.9218 4.53125C23.2694 4.5348 23.309 4.57083 23.309 4.8824C23.309 6.62347 23.2993 8.36504 23.3166 10.1061C23.3143 10.5191 23.3714 10.9303 23.4861 11.327C23.5673 11.5884 23.8119 11.7995 23.9869 12.0304C24.2194 12.3379 24.4868 12.6236 24.6811 12.9534C24.8988 13.3228 25.0475 13.7323 25.2332 14.1205C25.454 14.5818 25.6646 15.0339 26.0386 15.4191C26.5267 15.9215 26.684 16.6004 26.6982 17.2911C26.7175 18.1781 26.7069 19.0672 26.6982 19.9537C26.6982 20.1186 26.7429 20.2033 26.9053 20.2719C27.7274 20.6189 27.9055 21.9033 27.2219 22.4864C26.9779 22.6944 26.5653 22.7502 26.2913 22.601C25.9868 22.4341 25.969 22.153 26.0127 21.8521C26.0178 21.8047 26.0202 21.7571 26.0198 21.7095Z" fill="white"/>
<path d="M18.6172 10.2019C18.536 10.0776 18.4675 9.95784 18.3833 9.85127C18.3373 9.79721 18.2785 9.75551 18.2123 9.72999C17.9981 9.64119 17.9529 9.52701 18.0889 9.34382C18.2095 9.18066 18.3398 9.02492 18.4792 8.87748C18.5989 8.75011 18.6177 8.6268 18.5522 8.4634C18.3751 8.02039 18.4574 7.61494 18.7847 7.2714C19.3038 6.7269 20.5399 6.56097 21.3686 6.91618C22.1693 7.25719 22.6692 8.00212 22.6463 8.84449C22.635 9.33875 22.4657 9.81639 22.1633 10.2075C22.0882 10.2992 22.0203 10.3966 21.9603 10.4988C21.876 10.6556 21.8862 10.8058 22.0237 10.9367C22.1034 11.0128 22.1998 11.0859 22.2409 11.1813C22.2749 11.2579 22.2759 11.4097 22.2257 11.4538C21.5782 12.0211 21.3554 12.7625 21.3336 13.5851C21.2889 15.2637 21.5295 16.8876 22.2871 18.4089C22.3053 18.4563 22.32 18.505 22.3312 18.5546C22.2553 18.5673 22.1787 18.5758 22.1019 18.5799C21.3833 18.5708 20.6648 18.5556 19.9462 18.5515C19.8041 18.5515 19.7311 18.4977 19.6864 18.3683C19.1541 16.8277 18.57 15.2993 18.4005 13.6622C18.3112 12.8041 18.5583 12.0242 19.0846 11.3356C19.169 11.231 19.2396 11.1161 19.2946 10.9935C19.3576 10.8413 19.2921 10.7652 19.1241 10.7951C19.0825 10.8022 19.043 10.8205 19.0013 10.8256C18.8293 10.8474 18.6593 10.8601 18.5609 10.6698C18.4624 10.4795 18.4883 10.3278 18.6172 10.2019Z" fill="white"/>
<path d="M19.4783 18.5442C18.8983 18.7472 18.334 18.5879 18.0301 18.0789C17.8393 17.7602 17.7281 17.3862 17.6241 17.0239C17.5201 16.6616 17.378 16.346 17.1141 16.0785C16.9913 15.9537 16.8787 15.9161 16.7477 16.0461C16.5595 16.2338 16.3316 16.2673 16.0759 16.2759C15.8481 16.2872 15.6232 16.3306 15.4076 16.4048C14.2993 16.7727 13.156 16.7179 12.0168 16.69C11.8676 16.6859 11.7148 16.5378 11.5778 16.4363C11.5063 16.3855 11.4672 16.2886 11.4104 16.215C11.318 16.0953 11.2434 15.9329 11.1211 15.8766C11.0577 15.8476 10.9095 16.0121 10.7964 16.0841C10.126 16.5104 9.22732 16.1856 9.0624 15.462C8.97614 15.0824 9.18318 14.6252 9.56225 14.3776C9.99155 14.0969 10.4665 14.032 10.9704 14.0731C12.0081 14.1538 13.0516 14.1105 14.079 13.9442C14.9996 13.8006 15.7734 13.3434 16.5387 12.8557C17.1725 12.4498 17.8149 12.06 18.4548 11.6647C18.5096 11.6307 18.5725 11.6089 18.6857 11.5566C18.6688 11.6313 18.6459 11.7044 18.6172 11.7754C18.1574 12.6162 18.1128 13.5078 18.2559 14.4349C18.4589 15.7649 18.9227 17.0158 19.3804 18.2692C19.4134 18.3565 19.4423 18.4427 19.4783 18.5442Z" fill="white"/>
<path d="M20.2786 18.9116L21.9719 18.8183C22.2952 18.8 22.4185 18.8645 22.5433 19.1633C22.7463 19.6464 22.9315 20.1351 23.1289 20.6197C23.1979 20.7902 23.1472 20.9075 23.0026 21.01C22.3556 21.4692 21.7121 21.933 21.0666 22.3948C20.8571 22.544 20.717 22.5145 20.6368 22.2781C20.3755 21.5078 19.9071 20.9049 19.2469 20.4294C18.8465 20.1407 18.5634 19.7667 18.7268 19.2176C18.7958 18.9857 18.9328 18.8685 19.1881 18.8782C19.5509 18.8913 19.8736 18.9203 20.2364 18.9203C20.237 18.9299 20.2781 18.9015 20.2786 18.9116Z" fill="white"/>
<path d="M24.7415 20.9187C24.7415 21.0034 24.7476 21.0882 24.7415 21.1724C24.7126 21.4885 24.4685 21.6017 24.2041 21.4205C23.7063 21.08 23.2714 20.6989 23.1699 20.0504C23.1298 19.7967 23.0151 19.5511 22.9416 19.3004C22.8269 18.9102 23.0562 18.5966 23.4708 18.5798C23.787 18.5671 24.0163 18.7214 24.1924 18.9736C24.5319 19.4582 24.7217 20.1225 24.7415 20.9187Z" fill="white"/>
</g>
</g>
<defs>
<clipPath id="clip0_880_11214">
<rect width="37.2093" height="37.2093" fill="white" transform="translate(0.326172 0.464844)"/>
</clipPath>
<clipPath id="clip1_880_11214">
<rect width="18.6047" height="29.7833" fill="white" transform="translate(9.04688 4.53418)"/>
</clipPath>
</defs>
</svg>
