<svg width="40" height="40" viewBox="0 0 40 40" fill="none" xmlns="http://www.w3.org/2000/svg">
<path fill-rule="evenodd" clip-rule="evenodd" d="M20 12.084C16.5482 12.084 13.75 14.8822 13.75 18.334C13.75 20.3802 14.7338 22.1954 16.25 23.3343V25.0007C16.25 26.6115 17.5558 27.9173 19.1667 27.9173H20.8333C22.4442 27.9173 23.75 26.6115 23.75 25.0007V23.3343C25.2662 22.1954 26.25 20.3802 26.25 18.334C26.25 14.8822 23.4518 12.084 20 12.084ZM16.25 18.334C16.25 16.2629 17.9289 14.584 20 14.584C22.0711 14.584 23.75 16.2629 23.75 18.334C23.75 19.7205 22.9982 20.9328 21.8741 21.5831C21.4879 21.8065 21.25 22.2189 21.25 22.6651V25.0007C21.25 25.2308 21.0635 25.4173 20.8333 25.4173H19.1667C18.9365 25.4173 18.75 25.2308 18.75 25.0007V22.6651C18.75 22.2189 18.5121 21.8065 18.1259 21.5831C17.0018 20.9328 16.25 19.7205 16.25 18.334Z" fill="#333333"/>
<path fill-rule="evenodd" clip-rule="evenodd" d="M20 2.08398C18.4375 2.08398 16.9455 2.59495 14.539 3.41917L13.3266 3.8342C10.8577 4.67931 8.95234 5.33152 7.58838 5.88562C6.90131 6.16474 6.31061 6.43509 5.83497 6.71132C5.37724 6.97715 4.91804 7.30871 4.60605 7.75321C4.29767 8.19258 4.13822 8.73272 4.03802 9.25268C3.93385 9.79324 3.87104 10.4417 3.8305 11.1863C3.75 12.6646 3.75 14.6898 3.75 17.3167V19.9863C3.75 30.1547 11.43 35.0299 15.9972 37.0249L16.0424 37.0447C16.6087 37.2921 17.141 37.5247 17.7527 37.6813C18.3984 37.8466 19.0846 37.9173 20 37.9173C20.9154 37.9173 21.6016 37.8466 22.2473 37.6813C22.859 37.5247 23.3913 37.2921 23.9576 37.0447L24.0028 37.0249C28.57 35.0299 36.25 30.1547 36.25 19.9863V17.317C36.25 14.69 36.25 12.6647 36.1695 11.1863C36.129 10.4417 36.0661 9.79324 35.962 9.25268C35.8618 8.73272 35.7023 8.19258 35.3939 7.75321C35.082 7.30871 34.6228 6.97715 34.165 6.71132C33.6894 6.43509 33.0987 6.16474 32.4116 5.88562C31.0477 5.33151 29.1423 4.6793 26.6734 3.8342L25.461 3.41917C23.0545 2.59495 21.5625 2.08398 20 2.08398ZM15.1344 5.8578C17.8252 4.9367 18.9038 4.58398 20 4.58398C21.0962 4.58398 22.1748 4.9367 24.8656 5.85781L25.8203 6.1846C28.3413 7.04754 30.1798 7.67739 31.4707 8.20179C32.115 8.46354 32.5818 8.68289 32.9095 8.8732C33.0713 8.96715 33.1828 9.04467 33.2572 9.10519C33.3203 9.15646 33.3444 9.1855 33.3478 9.18978C33.351 9.19497 33.3718 9.22959 33.401 9.31154C33.4343 9.40505 33.4712 9.53912 33.5071 9.72574C33.5799 10.1035 33.6351 10.6224 33.6732 11.3222C33.7495 12.7242 33.75 14.6812 33.75 17.3618V19.9863C33.75 28.6114 27.3002 32.8564 23.002 34.734C22.3829 35.0044 22.0254 35.1575 21.6273 35.2594C21.2472 35.3567 20.7833 35.4173 20 35.4173C19.2167 35.4173 18.7528 35.3567 18.3727 35.2594C17.9746 35.1575 17.6171 35.0044 16.998 34.734C12.6998 32.8564 6.25 28.6114 6.25 19.9863V17.3618C6.25 14.6812 6.25046 12.7242 6.3268 11.3222C6.36491 10.6224 6.42007 10.1035 6.49286 9.72574C6.52882 9.53912 6.56574 9.40505 6.59905 9.31154C6.62821 9.22965 6.64893 9.19502 6.65215 9.18979C6.6556 9.18555 6.67966 9.1565 6.74278 9.10519C6.81723 9.04467 6.9287 8.96715 7.09048 8.8732C7.41817 8.68289 7.885 8.46354 8.52932 8.20179C9.82016 7.67739 11.6587 7.04754 14.1797 6.1846L15.1344 5.8578Z" fill="#333333"/>
</svg>
