<svg width="40" height="40" viewBox="0 0 40 40" fill="none" xmlns="http://www.w3.org/2000/svg">
<path fill-rule="evenodd" clip-rule="evenodd" d="M12.1043 5.43473C12.3037 3.55137 13.8971 2.08398 15.8333 2.08398H24.1667C26.1029 2.08398 27.6963 3.55137 27.8957 5.43473C29.1675 5.46063 30.2671 5.52641 31.2061 5.69889C32.4694 5.93094 33.5445 6.37301 34.4194 7.24789C35.4226 8.25109 35.8541 9.51421 36.0558 11.0144C36.2501 12.4594 36.25 14.2966 36.25 16.5759V26.7588C36.25 29.0381 36.2501 30.8753 36.0558 32.3202C35.8541 33.8204 35.4226 35.0836 34.4194 36.0868C33.4162 37.0899 32.1531 37.5214 30.6529 37.7231C29.208 37.9174 27.3708 37.9174 25.0914 37.9173H14.9086C12.6292 37.9174 10.792 37.9174 9.34708 37.7231C7.8469 37.5214 6.58378 37.0899 5.58058 36.0868C4.57739 35.0836 4.1459 33.8204 3.94421 32.3203C3.74994 30.8753 3.74997 29.0381 3.75 26.7588V16.5759C3.74997 14.2966 3.74994 12.4594 3.94421 11.0144C4.1459 9.51421 4.57739 8.25109 5.58058 7.24789C6.45547 6.37301 7.53059 5.93094 8.79392 5.69889C9.73287 5.52641 10.8325 5.46063 12.1043 5.43473ZM14.5833 6.66901V6.6717V7.50064C14.5833 8.191 15.143 8.75064 15.8333 8.75064H24.1667C24.857 8.75064 25.4167 8.191 25.4167 7.50064V6.67169V6.66902V5.83398C25.4167 5.14362 24.857 4.58398 24.1667 4.58398H15.8333C15.143 4.58398 14.5833 5.14362 14.5833 5.83398V6.66901ZM27.8917 7.93542C27.6763 9.80167 26.0907 11.2507 24.1667 11.2507H15.8333C13.9093 11.2507 12.3237 9.80167 12.1083 7.93542C10.9113 7.96098 9.98893 8.02121 9.24558 8.15775C8.3009 8.33127 7.75411 8.6099 7.34835 9.01566C6.88708 9.47693 6.58634 10.1246 6.42191 11.3475C6.25266 12.6064 6.25 14.275 6.25 16.6673V26.6673C6.25 29.0597 6.25266 30.7282 6.42191 31.9871C6.58634 33.2101 6.88708 33.8577 7.34835 34.319C7.80962 34.7803 8.45724 35.081 9.6802 35.2454C10.9391 35.4147 12.6076 35.4173 15 35.4173H25C27.3924 35.4173 29.0609 35.4147 30.3198 35.2454C31.5428 35.081 32.1904 34.7803 32.6517 34.319C33.1129 33.8577 33.4137 33.2101 33.5781 31.9871C33.7473 30.7282 33.75 29.0597 33.75 26.6673V16.6673C33.75 14.275 33.7473 12.6064 33.5781 11.3475C33.4137 10.1246 33.1129 9.47693 32.6517 9.01566C32.2459 8.6099 31.6991 8.33127 30.7544 8.15775C30.0111 8.02121 29.0887 7.96098 27.8917 7.93542ZM10.4167 24.1673C10.4167 23.477 10.9763 22.9173 11.6667 22.9173H25C25.6904 22.9173 26.25 23.477 26.25 24.1673C26.25 24.8577 25.6904 25.4173 25 25.4173H11.6667C10.9763 25.4173 10.4167 24.8577 10.4167 24.1673ZM10.4167 30.0007C10.4167 29.3103 10.9763 28.7507 11.6667 28.7507H20.8333C21.5237 28.7507 22.0833 29.3103 22.0833 30.0007C22.0833 30.691 21.5237 31.2507 20.8333 31.2507H11.6667C10.9763 31.2507 10.4167 30.691 10.4167 30.0007Z" fill="#333333"/>
</svg>
