<svg width="40" height="40" viewBox="0 0 40 40" fill="none" xmlns="http://www.w3.org/2000/svg">
<path fill-rule="evenodd" clip-rule="evenodd" d="M19.9996 2.08398C15.6274 2.08398 12.083 5.62839 12.083 10.0007C12.083 14.3729 15.6274 17.9173 19.9996 17.9173C24.3719 17.9173 27.9163 14.3729 27.9163 10.0007C27.9163 5.62839 24.3719 2.08398 19.9996 2.08398ZM14.583 10.0007C14.583 7.0091 17.0081 4.58398 19.9996 4.58398C22.9912 4.58398 25.4163 7.0091 25.4163 10.0007C25.4163 12.9922 22.9912 15.4173 19.9996 15.4173C17.0081 15.4173 14.583 12.9922 14.583 10.0007Z" fill="#333333"/>
<path d="M29.999 5.41699C29.3087 5.41699 28.749 5.97663 28.749 6.66699C28.749 7.35735 29.3087 7.91699 29.999 7.91699C32.2932 7.91699 33.749 9.42654 33.749 10.8337C33.749 12.2408 32.2932 13.7504 29.999 13.7504C29.3087 13.7504 28.749 14.31 28.749 15.0004C28.749 15.6907 29.3087 16.2504 29.999 16.2504C33.2278 16.2504 36.249 14.029 36.249 10.8337C36.249 7.6384 33.2278 5.41699 29.999 5.41699Z" fill="#333333"/>
<path d="M11.249 6.66699C11.249 5.97663 10.6894 5.41699 9.99902 5.41699C6.77031 5.41699 3.74902 7.6384 3.74902 10.8337C3.74902 14.029 6.77031 16.2504 9.99902 16.2504C10.6894 16.2504 11.249 15.6907 11.249 15.0004C11.249 14.31 10.6894 13.7504 9.99902 13.7504C7.70488 13.7504 6.24902 12.2408 6.24902 10.8337C6.24902 9.42654 7.70488 7.91699 9.99902 7.91699C10.6894 7.91699 11.249 7.35735 11.249 6.66699Z" fill="#333333"/>
<path fill-rule="evenodd" clip-rule="evenodd" d="M19.999 20.417C17.0253 20.417 14.2765 21.2183 12.2346 22.5796C10.2015 23.935 8.74902 25.9448 8.74902 28.3337C8.74902 30.7226 10.2015 32.7324 12.2346 34.0878C14.2765 35.449 17.0253 36.2504 19.999 36.2504C22.9728 36.2504 25.7216 35.449 27.7635 34.0878C29.7966 32.7324 31.249 30.7226 31.249 28.3337C31.249 25.9448 29.7966 23.935 27.7635 22.5796C25.7216 21.2183 22.9728 20.417 19.999 20.417ZM11.249 28.3337C11.249 27.0407 12.0352 25.7172 13.6214 24.6597C15.1988 23.6081 17.45 22.917 19.999 22.917C22.5481 22.917 24.7993 23.6081 26.3767 24.6597C27.9629 25.7172 28.749 27.0407 28.749 28.3337C28.749 29.6267 27.9629 30.9502 26.3767 32.0077C24.7993 33.0593 22.5481 33.7504 19.999 33.7504C17.45 33.7504 15.1988 33.0593 13.6214 32.0077C12.0352 30.9502 11.249 29.6267 11.249 28.3337Z" fill="#333333"/>
<path d="M32.1113 23.0655C32.2592 22.3912 32.9257 21.9644 33.6 22.1123C35.2032 22.4639 36.6478 23.0989 37.7203 23.9765C38.7919 24.8534 39.5823 26.0587 39.5823 27.5C39.5823 28.9412 38.7919 30.1466 37.7203 31.0234C36.6478 31.9011 35.2032 32.5361 33.6 32.8876C32.9257 33.0355 32.2592 32.6087 32.1113 31.9344C31.9634 31.2601 32.3902 30.5935 33.0645 30.4456C34.3851 30.156 35.4405 29.6586 36.1371 29.0886C36.8346 28.5179 37.0823 27.9605 37.0823 27.5C37.0823 27.0395 36.8346 26.482 36.1371 25.9113C35.4405 25.3413 34.3851 24.8439 33.0645 24.5543C32.3902 24.4064 31.9634 23.7399 32.1113 23.0655Z" fill="#333333"/>
<path d="M6.39826 22.1123C7.07259 21.9644 7.73912 22.3912 7.887 23.0655C8.03488 23.7399 7.6081 24.4064 6.93377 24.5543C5.61316 24.8439 4.55777 25.3413 3.86122 25.9113C3.16373 26.482 2.91602 27.0395 2.91602 27.5C2.91602 27.9605 3.16373 28.5179 3.86122 29.0886C4.55777 29.6586 5.61316 30.156 6.93377 30.4456C7.6081 30.5935 8.03488 31.2601 7.887 31.9344C7.73912 32.6087 7.07259 33.0355 6.39826 32.8876C4.79512 32.5361 3.35052 31.9011 2.278 31.0234C1.20643 30.1466 0.416016 28.9412 0.416016 27.5C0.416016 26.0587 1.20643 24.8534 2.278 23.9765C3.35052 23.0989 4.79512 22.4639 6.39826 22.1123Z" fill="#333333"/>
</svg>
