<svg width="40" height="40" viewBox="0 0 40 40" fill="none" xmlns="http://www.w3.org/2000/svg">
<path d="M18.751 30C18.751 30.6903 19.3106 31.25 20.001 31.25C20.6913 31.25 21.251 30.6903 21.251 30V25C21.251 24.3096 20.6913 23.75 20.001 23.75C19.3106 23.75 18.751 24.3096 18.751 25V30Z" fill="#333333"/>
<path fill-rule="evenodd" clip-rule="evenodd" d="M20.0007 2.08398C18.8205 2.08398 17.7482 2.42201 16.5849 2.98771C15.4604 3.53455 14.1614 4.34079 12.5387 5.34785L9.09446 7.48547C7.55913 8.43832 6.32972 9.20131 5.38215 9.92699C4.4009 10.6785 3.64723 11.4438 3.10283 12.4384C2.55958 13.4309 2.31493 14.4869 2.19763 15.7352C2.08396 16.9449 2.08397 18.4242 2.08398 20.2794V22.9671C2.08396 26.1402 2.08394 28.645 2.33849 30.6033C2.59961 32.6123 3.14826 34.2341 4.38791 35.5164C5.63329 36.8046 7.21808 37.3801 9.17999 37.6529C11.0815 37.9174 13.5099 37.9174 16.5704 37.9173H23.4308C26.4913 37.9174 28.9198 37.9174 30.8213 37.6529C32.7832 37.3801 34.368 36.8046 35.6134 35.5164C36.853 34.2341 37.4017 32.6123 37.6628 30.6033C37.9174 28.645 37.9173 26.1402 37.9173 22.9671V20.2793C37.9173 18.4242 37.9173 16.9449 37.8037 15.7352C37.6864 14.4869 37.4417 13.4309 36.8985 12.4384C36.3541 11.4438 35.6004 10.6785 34.6191 9.92699C33.6716 9.20132 32.4422 8.43834 30.9069 7.4855L27.4625 5.34783C25.8399 4.34079 24.5409 3.53455 23.4164 2.98771C22.2531 2.42201 21.1808 2.08398 20.0007 2.08398ZM13.7999 7.50751C15.4928 6.45682 16.6831 5.71987 17.6782 5.23597C18.6477 4.76452 19.3343 4.58398 20.0007 4.58398C20.667 4.58398 21.3536 4.76452 22.3231 5.23597C23.3182 5.71986 24.5085 6.45682 26.2014 7.5075L29.5348 9.57626C31.1362 10.5702 32.2605 11.2696 33.0991 11.9118C33.9151 12.5367 34.3846 13.0524 34.7055 13.6388C35.0276 14.2272 35.2156 14.9151 35.3146 15.9691C35.416 17.0483 35.4173 18.4104 35.4173 20.3405V22.8756C35.4173 26.1605 35.4148 28.5026 35.1837 30.2811C34.9566 32.0279 34.529 33.0413 33.816 33.7788C33.1088 34.5103 32.1459 34.9447 30.477 35.1768C28.7676 35.4145 26.5132 35.4173 23.334 35.4173H16.6673C13.4881 35.4173 11.2337 35.4145 9.52435 35.1768C7.85541 34.9447 6.89254 34.5103 6.1853 33.7788C5.47234 33.0413 5.04468 32.0279 4.81764 30.2811C4.58647 28.5026 4.58399 26.1605 4.58399 22.8756V20.3405C4.58399 18.4104 4.58526 17.0483 4.68667 15.9691C4.78571 14.9151 4.97373 14.2272 5.2958 13.6388C5.61674 13.0524 6.08619 12.5367 6.90218 11.9118C7.74082 11.2696 8.86515 10.5702 10.4665 9.57627L13.7999 7.50751Z" fill="#333333"/>
</svg>
