<svg width="38" height="40" viewBox="0 0 38 40" fill="none" xmlns="http://www.w3.org/2000/svg">
<mask id="mask0_975_18397" style="mask-type:luminance" maskUnits="userSpaceOnUse" x="0" y="0" width="38" height="40">
<path d="M37.0115 0H0.158203V40H37.0115V0Z" fill="white"/>
</mask>
<g mask="url(#mask0_975_18397)">
<path d="M18.8173 0C19.2069 0.321875 19.5829 0.663543 19.9923 0.958335C20.1814 1.10297 20.4089 1.18882 20.6464 1.20521C23.914 1.22083 27.1827 1.21563 30.4514 1.21563C31.3337 1.21563 31.5555 1.43958 31.5555 2.325C31.5555 6.23125 31.5555 10.1372 31.5555 14.0427C31.5555 14.1594 31.5618 14.2771 31.5555 14.3938C31.5442 14.5908 31.4596 14.7765 31.3183 14.9143C31.177 15.0521 30.9893 15.1321 30.792 15.1385C30.5944 15.1387 30.404 15.0646 30.2585 14.9309C30.113 14.7971 30.0231 14.6136 30.0066 14.4167C29.9847 14.1844 29.9983 13.949 29.9983 13.7146C29.9983 12.1396 29.9983 10.5646 29.9983 8.92292H29.2962C28.5931 8.92292 27.8889 8.91042 27.1869 8.92813C27.0188 8.93352 26.8514 8.90514 26.6944 8.84466C26.5375 8.78418 26.3943 8.69284 26.2734 8.57604C23.8255 6.41007 21.3731 4.25 18.9162 2.09584C18.8204 2.01146 18.7194 1.93229 18.5923 1.82813C18.0069 2.33959 17.4309 2.84271 16.8559 3.34688C14.8691 5.09063 12.8841 6.83542 10.9008 8.58125C10.7783 8.69671 10.6341 8.7868 10.4766 8.84633C10.3191 8.90586 10.1514 8.93366 9.9831 8.92813C9.0623 8.9125 8.1415 8.92292 7.20089 8.92292V30.5094C7.82588 29.8469 8.40711 29.2385 8.98523 28.6344C9.5988 27.9917 9.9487 27.9927 10.5664 28.6427C11.2748 29.3854 11.981 30.1302 12.7112 30.899L14.2049 29.325C14.4736 29.0417 14.7372 28.7521 15.0101 28.474C15.4319 28.0448 15.8757 28.0448 16.2965 28.4823C16.9371 29.149 17.5673 29.825 18.2038 30.4958C18.3194 30.6177 18.4413 30.7344 18.609 30.9031C18.76 30.7354 18.9017 30.5719 19.0506 30.4146C19.6312 29.7979 20.2127 29.183 20.7954 28.5698C21.3162 28.0219 21.7328 28.0146 22.2453 28.5542C22.8925 29.2319 23.5363 29.9132 24.1765 30.5979C24.2657 30.7064 24.3488 30.8198 24.4255 30.9375L26.6629 28.5854C27.2067 28.0125 27.6004 28.0073 28.1358 28.5708C28.7337 29.1958 29.3285 29.8208 29.9962 30.5281V30.0073C29.9962 27.1948 29.9962 24.3823 29.9962 21.5698C29.9962 20.8625 30.5472 20.4427 31.1097 20.7156C31.4732 20.8927 31.5628 21.2125 31.5618 21.5938C31.5555 24.0938 31.5555 26.5938 31.5618 29.0938V29.476C31.9128 29.1521 32.2711 28.8396 32.6107 28.5063C33.0805 28.0438 33.4992 28.0302 33.9513 28.5063C34.869 29.4667 35.7929 30.4208 36.6825 31.4063C36.8727 31.6303 36.9827 31.9115 36.995 32.2052C37.02 34.4833 37.0023 36.7615 37.0148 39.0396C37.0148 39.4792 36.8242 39.7688 36.4815 40.0021H0.689587C0.346887 39.7729 0.154177 39.4813 0.156267 39.0406C0.168767 36.7625 0.151057 34.4844 0.176057 32.2073C0.188327 31.9142 0.298337 31.6337 0.488547 31.4104C1.37707 30.425 2.30205 29.4719 3.21869 28.5104C3.67077 28.0365 4.08742 28.0469 4.55825 28.5104C4.89991 28.8427 5.25927 29.1552 5.60926 29.475V2.31354C5.60926 1.43438 5.83009 1.21563 6.72382 1.21563C9.9654 1.21563 13.2067 1.21736 16.4475 1.22083C16.5946 1.23144 16.7423 1.21085 16.8809 1.16041C17.0195 1.10996 17.1458 1.03081 17.2517 0.928125C17.5954 0.595834 17.9808 0.303125 18.3475 0H18.8173ZM35.4409 38.426V37.9625C35.4409 36.2958 35.4263 34.6344 35.4513 32.9708C35.4575 32.5344 35.3471 32.2156 35.0346 31.9083C34.4336 31.325 33.8742 30.6979 33.2805 30.0719C32.5763 30.8146 31.9003 31.5156 31.2441 32.2344C31.1576 32.359 31.1154 32.509 31.1243 32.6604C31.116 34.4677 31.118 36.274 31.1243 38.0771C31.1243 38.1896 31.1399 38.301 31.1493 38.4219L35.4409 38.426ZM6.04884 38.426V37.9635C6.04884 36.3385 6.02592 34.7135 6.06134 33.0885C6.07384 32.55 5.9228 32.1615 5.54051 31.7948C4.97074 31.251 4.44887 30.6583 3.89264 30.0719C3.2239 30.7771 2.58017 31.4375 1.96456 32.1229C1.82745 32.2846 1.74794 32.4872 1.73852 32.699C1.72186 34.4802 1.72915 36.2604 1.72915 38.0417V38.426H6.04884ZM15.6455 30.074C14.9913 30.7615 14.3393 31.4281 13.7122 32.1208C13.5841 32.2738 13.5108 32.4652 13.5039 32.6646C13.4882 34.4583 13.4945 36.2531 13.4955 38.0479C13.4955 38.1719 13.508 38.2958 13.5143 38.4083H17.8038C17.8038 36.4292 17.8038 34.4813 17.8038 32.5312C17.8011 32.4166 17.7592 32.3063 17.685 32.2188C17.0173 31.5073 16.3392 30.8031 15.6455 30.074ZM23.6724 38.426C23.6724 36.4135 23.6724 34.4385 23.6724 32.4635C23.6709 32.3868 23.6425 32.3131 23.5922 32.2552C22.9099 31.526 22.2224 30.8073 21.5256 30.0677C20.8631 30.7656 20.2173 31.4219 19.5996 32.1115C19.4629 32.2733 19.385 32.4768 19.3787 32.6885C19.361 34.4698 19.3683 36.251 19.3694 38.0333C19.3694 38.1583 19.3808 38.2833 19.3871 38.4198L23.6724 38.426ZM11.8935 38.4167C11.9089 38.3753 11.9198 38.3323 11.9258 38.2885C11.9258 36.3781 11.9258 34.4684 11.9258 32.5594C11.9303 32.4575 11.9006 32.357 11.8414 32.274C11.1633 31.5448 10.4748 30.8229 9.7685 30.076C9.1113 30.7688 8.46649 31.4302 7.85088 32.1115C7.71243 32.2726 7.63178 32.4753 7.62171 32.6875C7.60401 34.4813 7.6113 36.275 7.61234 38.0688C7.61234 38.1813 7.62692 38.2948 7.6363 38.4198L11.8935 38.4167ZM29.517 38.426C29.5313 38.3791 29.5415 38.331 29.5472 38.2823C29.5472 36.3712 29.5472 34.4615 29.5472 32.5531C29.5525 32.4512 29.5227 32.3505 29.4629 32.2677C28.7837 31.5385 28.0952 30.8094 27.3983 30.0802C26.7338 30.7802 26.09 31.4406 25.4734 32.126C25.3364 32.2858 25.2565 32.4867 25.2463 32.6969C25.2286 34.4771 25.2359 36.2583 25.2369 38.0385C25.2369 38.1646 25.2484 38.2896 25.2546 38.4271L29.517 38.426ZM15.0955 2.80729H7.19985V7.36354C8.01754 7.36354 8.81023 7.37604 9.6008 7.35313C9.8005 7.34303 9.9919 7.27012 10.1477 7.14479C11.3498 6.11042 12.5372 5.06146 13.7289 4.01458C14.1632 3.63438 14.5966 3.24792 15.0955 2.80729ZM29.9764 2.8125H22.1578C22.1707 2.84746 22.1879 2.8807 22.2089 2.91146C23.8463 4.35729 25.4852 5.80174 27.1254 7.24479C27.1905 7.30655 27.2738 7.34564 27.3629 7.35625C28.2285 7.36354 29.0952 7.35625 29.9764 7.35625V2.8125Z" fill="#333333"/>
<path d="M13.3511 10.6938C14.3 10.6938 15.25 10.6938 16.1989 10.6938C16.8333 10.6938 17.1114 10.9646 17.1135 11.5886C17.1184 13.0066 17.1184 14.424 17.1135 15.8406C17.1135 16.45 16.8385 16.7323 16.2375 16.7344C14.2861 16.7406 12.3351 16.7406 10.3845 16.7344C9.78353 16.7344 9.51163 16.449 9.50953 15.8396C9.50463 14.4216 9.50463 13.0042 9.50953 11.5875C9.50953 10.9625 9.78974 10.6959 10.4251 10.6938C11.4001 10.6906 12.3751 10.6938 13.3511 10.6938ZM11.0813 15.1511H15.5302V12.2854H11.0813V15.1511Z" fill="#333333"/>
<path d="M23.8599 16.738C22.8975 16.738 21.935 16.738 20.9725 16.738C20.3194 16.738 20.0548 16.4661 20.0527 15.8077C20.0527 14.4189 20.0527 13.0275 20.0527 11.6338C20.0527 10.9567 20.3194 10.6963 21.0038 10.6963C22.9016 10.6963 24.8002 10.6963 26.6995 10.6963C27.4015 10.6963 27.6578 10.9567 27.6588 11.6661C27.6588 13.0446 27.6588 14.4227 27.6588 15.8005C27.6588 16.4755 27.3932 16.738 26.7078 16.738C25.7578 16.7411 24.8089 16.738 23.8599 16.738ZM26.0797 12.2807H21.635V15.1411H26.0797V12.2807Z" fill="#333333"/>
<path d="M13.2912 25.2368C12.3423 25.2368 11.3923 25.2368 10.4433 25.2368C9.78806 25.2368 9.50586 24.9628 9.50586 24.318C9.50586 22.9014 9.50586 21.484 9.50586 20.0659C9.50586 19.4816 9.78086 19.192 10.361 19.1889C12.3249 19.1805 14.2887 19.1805 16.2526 19.1889C16.8338 19.1889 17.1078 19.4784 17.1098 20.0639C17.1147 21.4944 17.1147 22.925 17.1098 24.3555C17.1098 24.9514 16.8182 25.2326 16.2151 25.2357C15.2463 25.2409 14.2672 25.2368 13.2912 25.2368ZM15.5328 20.7743H11.0996V23.6524H15.5328V20.7743Z" fill="#333333"/>
<path d="M23.8611 25.2361C22.9243 25.2361 21.9868 25.2361 21.0487 25.2361C20.3143 25.2361 20.0518 24.9809 20.0508 24.2622C20.0508 22.8837 20.0508 21.5052 20.0508 20.1267C20.0508 19.4663 20.3154 19.1892 20.9622 19.1892C22.8872 19.183 24.8118 19.183 26.736 19.1892C27.3892 19.1892 27.6548 19.4663 27.6569 20.1267C27.6569 21.5156 27.6569 22.907 27.6569 24.3007C27.6569 24.9726 27.3819 25.2382 26.7058 25.2382C25.76 25.2392 24.81 25.2361 23.8611 25.2361ZM21.6445 20.757V23.6486H26.0704V20.7622L21.6445 20.757Z" fill="#333333"/>
<path d="M30.793 17.1041C30.9956 17.1052 31.1894 17.1866 31.332 17.3306C31.4746 17.4745 31.5542 17.6692 31.5534 17.8718C31.5493 18.0805 31.4638 18.2794 31.3151 18.4259C31.1664 18.5725 30.9663 18.6551 30.7575 18.6562C30.5556 18.6457 30.365 18.5595 30.2238 18.4147C30.0827 18.2698 30.0013 18.0771 29.9961 17.8749C29.9956 17.7713 30.0161 17.6687 30.0563 17.5732C30.0965 17.4778 30.1556 17.3914 30.23 17.3194C30.3045 17.2474 30.3927 17.1912 30.4895 17.1542C30.5862 17.1172 30.6895 17.1001 30.793 17.1041Z" fill="#333333"/>
</g>
</svg>
