<svg width="40" height="40" viewBox="0 0 40 40" fill="none" xmlns="http://www.w3.org/2000/svg">
<path d="M1.21973 12.0704C1.37486 11.8554 1.55254 11.6576 1.74973 11.4804C2.80973 10.6404 3.88973 9.82036 4.99973 9.00036C5.12753 8.88253 5.20908 8.72296 5.22973 8.55036C5.22973 7.28036 5.22973 6.01036 5.22973 4.74036C5.22973 4.55036 5.22973 4.43036 4.99973 4.35036C4.84454 4.28789 4.71186 4.17999 4.61906 4.0408C4.52627 3.90161 4.4777 3.73763 4.47973 3.57036C4.47973 3.18369 4.47973 2.79369 4.47973 2.40036C4.4849 2.16952 4.57959 1.94973 4.74378 1.7874C4.90798 1.62506 5.12884 1.5329 5.35973 1.53036C6.85973 1.53036 8.35973 1.53036 9.86973 1.53036C10.0869 1.52726 10.2969 1.60739 10.4569 1.7543C10.6168 1.9012 10.7144 2.10374 10.7297 2.32036C10.7748 2.76923 10.7748 3.22149 10.7297 3.67036C10.7138 3.78944 10.6726 3.90373 10.6088 4.00551C10.5449 4.10729 10.46 4.1942 10.3597 4.26036C9.96973 4.44036 9.95973 4.71036 10.0397 5.10036L10.3597 4.86036L12.9997 2.75036C13.2775 2.48213 13.6486 2.33222 14.0347 2.33222C14.4209 2.33222 14.7919 2.48213 15.0697 2.75036L26.4397 11.5504C26.9697 11.9604 27.0097 12.2604 26.6197 12.7904C26.3797 13.1304 26.1397 13.4704 25.8797 13.7904C25.8251 13.8846 25.7499 13.9652 25.6596 14.0262C25.5693 14.0871 25.4664 14.1268 25.3586 14.1422C25.2507 14.1576 25.1408 14.1483 25.0371 14.1151C24.9334 14.0819 24.8385 14.0255 24.7597 13.9504C24.2797 13.6004 23.8197 13.2304 23.2897 12.8204C23.2897 13.1704 23.2897 13.4504 23.2897 13.7204C23.2897 14.1504 23.0697 14.3904 22.7197 14.3804C22.3697 14.3704 22.1997 14.1404 22.1997 13.7204C22.1997 13.3004 22.1997 12.8904 22.1997 12.4704C22.2201 12.3107 22.1942 12.1485 22.1251 12.0031C22.0559 11.8577 21.9465 11.7353 21.8097 11.6504C19.3231 9.74369 16.8364 7.82369 14.3497 5.89036L14.0597 5.68036L13.7697 5.88036L6.14973 11.7804C6.08401 11.8347 6.02982 11.9016 5.99032 11.9771C5.95082 12.0527 5.92682 12.1354 5.91973 12.2204C5.91973 18.1737 5.91973 24.127 5.91973 30.0804V30.3204C6.21973 30.3204 6.49973 30.3204 6.76973 30.3904C7.23198 30.45 7.67621 30.6076 8.0728 30.8524C8.4694 31.0973 8.80926 31.4238 9.06973 31.8104C9.11468 31.8887 9.18372 31.9505 9.26659 31.9866C9.34946 32.0226 9.44174 32.0309 9.52973 32.0104C9.6479 31.9807 9.77156 31.9807 9.88973 32.0104C10.4197 32.2004 10.7597 31.9304 11.1597 31.6104C11.6289 31.2192 12.1998 30.9701 12.8056 30.8922C13.4114 30.8142 14.0269 30.9107 14.5797 31.1704C15.1543 31.3964 15.6533 31.7801 16.0195 32.2772C16.3857 32.7743 16.6041 33.3646 16.6497 33.9804C16.6497 34.3004 16.6497 34.6304 16.6497 34.9804H16.9997C17.2649 34.9804 17.5193 35.0857 17.7068 35.2733C17.8944 35.4608 17.9997 35.7151 17.9997 35.9804C17.9997 36.4304 17.9997 36.8804 17.9997 37.3504H22.1897V29.0504C22.1897 28.1904 22.5297 27.8504 23.3897 27.8504H28.4497C28.6102 27.815 28.7769 27.8197 28.9351 27.8641C29.0933 27.9086 29.2381 27.9913 29.3568 28.105C29.4754 28.2186 29.5642 28.3598 29.6153 28.516C29.6664 28.6722 29.6782 28.8385 29.6497 29.0004C29.6497 30.5204 29.6497 32.0004 29.6497 33.5504C29.6497 33.6904 29.6497 33.8704 29.6497 33.9404C29.6497 34.0104 29.3097 34.2904 29.1297 34.2904C28.9497 34.2904 28.7597 34.1004 28.6497 33.9404C28.5397 33.7804 28.5997 33.6304 28.5997 33.4704V29.0004H23.3697V37.3804H28.5497V36.5004C28.5497 36.0504 28.7597 35.8204 29.1097 35.8304C29.4597 35.8404 29.6397 36.0504 29.6497 36.5104C29.6497 36.7604 29.6497 37.0204 29.6497 37.2804C29.6497 37.2804 29.6497 37.2804 29.6497 37.3604H34.0297C34.0297 37.2504 34.0297 37.1304 34.0297 37.0104C34.0297 33.4304 34.0297 29.847 34.0297 26.2604C34.0315 26.0895 33.967 25.9246 33.8497 25.8004C31.2197 23.7404 28.5797 21.7004 25.9097 19.6404L25.5897 19.8704L15.3997 27.7904C14.7897 28.2604 14.4597 28.2204 13.9897 27.6204C13.8197 27.3804 13.6397 27.1504 13.4597 26.9204C12.9497 26.2604 12.9897 25.9204 13.6397 25.4504L19.8997 20.6004C20.5797 20.0804 21.2497 19.5504 21.8997 19.0404C21.9897 18.9818 22.0617 18.8993 22.1076 18.8022C22.1535 18.7051 22.1716 18.5971 22.1597 18.4904C22.1597 17.8404 22.1597 17.1904 22.1597 16.5404C22.1597 16.1004 22.3597 15.8704 22.6997 15.8704C23.0397 15.8704 23.2497 16.1104 23.2497 16.5504C23.2497 16.9904 23.2497 17.4404 23.2497 17.9704L24.7397 16.8204C24.8861 16.656 25.0655 16.5245 25.2663 16.4345C25.4671 16.3444 25.6847 16.2978 25.9047 16.2978C26.1248 16.2978 26.3423 16.3444 26.5431 16.4345C26.7439 16.5245 26.9234 16.656 27.0697 16.8204L38.1797 25.4204C38.3081 25.5097 38.4256 25.6137 38.5297 25.7304C38.6451 25.8358 38.7164 25.9809 38.7294 26.1366C38.7424 26.2924 38.6961 26.4473 38.5997 26.5704C38.2997 26.9904 38.0097 27.4104 37.6897 27.8104C37.6282 27.8956 37.5487 27.9662 37.4569 28.0174C37.3651 28.0686 37.2632 28.0991 37.1584 28.1068C37.0535 28.1144 36.9483 28.099 36.8501 28.0616C36.7518 28.0242 36.663 27.9658 36.5897 27.8904C36.1197 27.5404 35.6597 27.1804 35.1597 26.7904V37.3904H35.9997C36.2795 37.3754 36.5599 37.3754 36.8397 37.3904C36.9113 37.3953 36.981 37.4147 37.0449 37.4474C37.1087 37.48 37.1652 37.5253 37.211 37.5805C37.2568 37.6356 37.2909 37.6995 37.3114 37.7683C37.3318 37.837 37.338 37.9091 37.3297 37.9804C37.322 38.1165 37.261 38.2442 37.16 38.3359C37.059 38.4275 36.926 38.4758 36.7897 38.4704H36.4597C25.1664 38.4704 13.8797 38.4704 2.59973 38.4704C1.74973 38.4704 1.28973 38.0204 1.35973 37.2304C1.35973 36.8604 1.35973 36.4704 1.35973 36.1004C1.40272 35.8283 1.46965 35.5606 1.55973 35.3004C1.59209 35.2027 1.61552 35.1023 1.62973 35.0004C1.61646 34.5882 1.72147 34.1808 1.93234 33.8264C2.14322 33.472 2.45114 33.1853 2.81973 33.0004C2.93717 32.9273 3.02825 32.8187 3.07973 32.6904C3.34955 31.9019 3.88746 31.233 4.59973 30.8004C4.6593 30.7574 4.70891 30.7022 4.74515 30.6383C4.78139 30.5744 4.80342 30.5035 4.80973 30.4304C4.80973 24.6504 4.80973 18.8704 4.80973 13.0804C4.80973 13.0104 4.80973 12.9504 4.80973 12.8204L3.44973 13.8204C3.36627 13.9178 3.25979 13.9928 3.13996 14.0386C3.02014 14.0844 2.89076 14.0996 2.7636 14.0827C2.63643 14.0658 2.5155 14.0174 2.41178 13.9419C2.30807 13.8664 2.22487 13.7662 2.16973 13.6504C1.84973 13.2304 1.54973 12.8104 1.23973 12.3804L1.21973 12.0704ZM11.1997 35.0004C11.2763 34.7476 11.2834 34.4789 11.2203 34.2225C11.1571 33.9661 11.0261 33.7314 10.8409 33.5431C10.6557 33.3548 10.4232 33.2199 10.1678 33.1526C9.91247 33.0852 9.64369 33.0879 9.38973 33.1604C8.69973 33.3604 8.65973 33.3404 8.30973 32.6904C8.09387 32.2916 7.76542 31.9652 7.36531 31.7518C6.96521 31.5384 6.51115 31.4475 6.05973 31.4904C5.58642 31.5307 5.13802 31.7198 4.77875 32.0305C4.41949 32.3413 4.16779 32.7578 4.05973 33.2204C4.03625 33.394 3.96205 33.5568 3.84642 33.6885C3.73079 33.8201 3.57888 33.9147 3.40973 33.9604C3.20088 34.0282 3.02016 34.1628 2.89545 34.3436C2.77075 34.5243 2.70899 34.741 2.71973 34.9604H7.26973C7.41422 34.9539 7.5589 34.9674 7.69973 35.0004C7.81943 35.0333 7.92214 35.1105 7.98711 35.2164C8.05208 35.3222 8.07446 35.4487 8.04973 35.5704C8.04524 35.6875 7.99801 35.799 7.91695 35.8838C7.83588 35.9685 7.7266 36.0207 7.60973 36.0304C7.49021 36.0455 7.36925 36.0455 7.24973 36.0304H2.48973V37.3204H16.9397V36.0704H10.3597C9.87973 36.0704 9.63973 35.8904 9.62973 35.5304C9.61973 35.1704 9.87973 34.9704 10.3697 34.9704L11.1997 35.0004ZM25.6197 12.3104L25.4697 12.1704C21.8231 9.32369 18.1431 6.47369 14.4297 3.62036C14.3774 3.5656 14.3146 3.52202 14.245 3.49224C14.1754 3.46246 14.1004 3.44711 14.0247 3.44711C13.949 3.44711 13.8741 3.46246 13.8045 3.49224C13.7349 3.52202 13.672 3.5656 13.6197 3.62036L2.71973 12.1104L2.46973 12.3204L2.91973 12.8804L13.4197 4.75036C14.0097 4.30036 14.0997 4.29036 14.6897 4.75036L24.8397 12.6104L25.1997 12.8704L25.6197 12.3104ZM14.7997 26.8604L15.0997 26.6304L25.3697 18.6904C25.8897 18.2804 25.9997 18.2804 26.5197 18.6904L36.5797 26.4804L37.0897 26.8604L37.4997 26.2804L37.2197 26.0004C33.5997 23.2004 29.9831 20.4004 26.3697 17.6004C26.3146 17.5416 26.2479 17.4948 26.174 17.4628C26.1 17.4308 26.0203 17.4143 25.9397 17.4143C25.8591 17.4143 25.7794 17.4308 25.7055 17.4628C25.6315 17.4948 25.5649 17.5416 25.5097 17.6004L16.2297 24.7804L14.3597 26.2304L14.7997 26.8604ZM12.3497 35.0004C13.3497 35.0004 14.3497 35.0004 15.3497 35.0004C15.4297 35.0004 15.5397 34.8504 15.5597 34.7504C15.6575 34.2523 15.5892 33.736 15.3655 33.2805C15.1417 32.8249 14.7747 32.4554 14.3207 32.2284C13.8668 32.0014 13.3509 31.9296 12.8522 32.0238C12.3535 32.1181 11.8995 32.3733 11.5597 32.7504C11.8555 33.0394 12.0807 33.3928 12.2177 33.783C12.3547 34.1733 12.3999 34.5898 12.3497 35.0004ZM6.29973 8.00036L8.75973 6.00036C8.78594 5.97784 8.8074 5.95033 8.82285 5.91942C8.8383 5.88851 8.84744 5.85484 8.84973 5.82036V4.46036H6.29973V8.00036ZM9.59973 2.63036H5.59973V3.32036H9.59973V2.63036Z" fill="#333333"/>
<path d="M17.7495 15.1801V19.5101C17.7495 20.2901 17.3895 20.6401 16.6095 20.6401H11.4695C11.3206 20.6588 11.1693 20.6438 11.027 20.5961C10.8846 20.5484 10.7549 20.4692 10.6473 20.3645C10.5397 20.2598 10.4571 20.1322 10.4055 19.9913C10.354 19.8503 10.3348 19.6995 10.3495 19.5501V10.7801C10.3402 10.6359 10.3623 10.4914 10.4142 10.3565C10.4662 10.2217 10.5467 10.0997 10.6503 9.99892C10.7539 9.89817 10.8781 9.82108 11.0143 9.77294C11.1506 9.7248 11.2956 9.70676 11.4395 9.72007H16.6495C17.3995 9.72007 17.7495 10.0601 17.7495 10.8101V15.1801ZM16.6195 13.0001V10.8001H14.6195V13.0001H16.6195ZM16.6195 19.4801V17.3101H14.6195V19.5201L16.6195 19.4801ZM11.4795 10.7901V13.0001H13.4795V10.8301L11.4795 10.7901ZM13.4795 17.2701H11.4795V19.4701H13.4795V17.2701ZM14.6195 14.1401V16.1401H16.6195V14.1401H14.6195ZM11.4695 16.1401H13.4695V14.1401H11.4695V16.1401Z" fill="#333333"/>
<path d="M24.7598 32.8999C24.7598 33.1199 24.7598 33.3399 24.7598 33.5599C24.7572 33.7013 24.6991 33.8361 24.5981 33.9352C24.4971 34.0344 24.3613 34.0899 24.2198 34.0899C24.149 34.0926 24.0784 34.0808 24.0123 34.0553C23.9462 34.0298 23.886 33.991 23.8354 33.9414C23.7849 33.8917 23.745 33.8323 23.7182 33.7667C23.6915 33.7011 23.6784 33.6307 23.6798 33.5599C23.6798 33.1099 23.6798 32.6599 23.6798 32.1999C23.6798 32.132 23.6933 32.0649 23.7195 32.0023C23.7458 31.9398 23.7843 31.8831 23.8327 31.8356C23.8811 31.7882 23.9385 31.7508 24.0015 31.7258C24.0646 31.7007 24.132 31.6885 24.1998 31.6899C24.3414 31.6844 24.4794 31.7348 24.5842 31.8302C24.689 31.9256 24.752 32.0584 24.7598 32.1999C24.7647 32.2263 24.7647 32.2534 24.7598 32.2799V32.8999Z" fill="#333333"/>
</svg>
