<svg width="40" height="40" viewBox="0 0 40 40" fill="none" xmlns="http://www.w3.org/2000/svg">
<path fill-rule="evenodd" clip-rule="evenodd" d="M12.3927 2.08399H27.6084C28.5583 2.08396 29.3649 2.08393 30.0315 2.15285C30.7412 2.22622 31.397 2.38556 32.0167 2.76851C32.6363 3.15145 33.0721 3.66683 33.4551 4.26878C33.8149 4.83416 34.1756 5.5556 34.6004 6.40532L34.6278 6.46021C34.644 6.49262 34.6588 6.52572 34.6721 6.55941L37.0115 12.473C37.2899 13.1767 37.5983 14.0545 37.6885 14.9528C37.7808 15.8716 37.6542 16.9242 36.9342 17.8372C36.3453 18.5839 35.5264 19.1444 34.584 19.4112V35.4173H36.6673C37.3577 35.4173 37.9173 35.977 37.9173 36.6673C37.9173 37.3577 37.3577 37.9173 36.6673 37.9173H3.33398C2.64363 37.9173 2.08398 37.3577 2.08398 36.6673C2.08398 35.977 2.64363 35.4173 3.33398 35.4173H5.41732V19.4113C4.47475 19.1445 3.65585 18.584 3.0669 17.8371C2.34697 16.9242 2.22035 15.8716 2.31262 14.9528C2.40282 14.0545 2.7113 13.1766 2.98965 12.473L5.32901 6.55941C5.34234 6.52572 5.35713 6.49262 5.37333 6.46021L5.40082 6.40524C5.82562 5.55556 6.1863 4.83413 6.54603 4.26878C6.92904 3.66683 7.36488 3.15145 7.9845 2.76851C8.60412 2.38556 9.26 2.22622 9.96968 2.15285C10.6362 2.08393 11.4428 2.08396 12.3927 2.08399ZM30.0005 18.1464C30.5605 18.7396 31.277 19.1833 32.084 19.4115V35.4173H25.4173V30.7803C25.4173 30.0473 25.4174 29.415 25.3703 28.8963C25.3206 28.3476 25.2105 27.8044 24.9149 27.2923C24.5858 26.7223 24.1124 26.2489 23.5423 25.9197C23.0303 25.6241 22.487 25.514 21.9384 25.4643C21.4196 25.4173 20.7874 25.4173 20.0544 25.4173H19.9469C19.214 25.4173 18.5817 25.4173 18.0629 25.4643C17.5143 25.514 16.971 25.6241 16.459 25.9197C15.8889 26.2489 15.4155 26.7223 15.0864 27.2923C14.7908 27.8044 14.6807 28.3476 14.631 28.8963C14.5839 29.4151 14.584 30.0473 14.584 30.7802V35.4173H7.91732V19.4114C8.7242 19.1832 9.44062 18.7395 10.0005 18.1464C10.8362 19.0316 12.0205 19.584 13.3338 19.584C14.6472 19.584 15.8315 19.0316 16.6672 18.1464C17.5028 19.0316 18.6871 19.584 20.0005 19.584C21.3139 19.584 22.4982 19.0316 23.3338 18.1464C24.1695 19.0316 25.3538 19.584 26.6672 19.584C27.9805 19.584 29.1649 19.0316 30.0005 18.1464ZM17.084 35.4173H22.9173V30.834C22.9173 30.0321 22.9161 29.5143 22.8806 29.1219C22.8465 28.7467 22.7892 28.6104 22.7499 28.5423C22.6401 28.3523 22.4823 28.1945 22.2923 28.0848C22.2242 28.0455 22.088 27.9881 21.7127 27.9541C21.3203 27.9185 20.8025 27.9173 20.0007 27.9173C19.1988 27.9173 18.681 27.9185 18.2886 27.9541C17.9133 27.9881 17.7771 28.0455 17.709 28.0848C17.519 28.1945 17.3612 28.3523 17.2515 28.5423C17.2121 28.6104 17.1548 28.7467 17.1207 29.1219C17.0852 29.5143 17.084 30.0321 17.084 30.834V35.4173ZM11.2505 15.0007C11.2505 16.1513 12.1832 17.084 13.3338 17.084C14.4844 17.084 15.4172 16.1513 15.4172 15.0007C15.4172 14.3103 15.9768 13.7507 16.6672 13.7507C17.3575 13.7507 17.9172 14.3103 17.9172 15.0007C17.9172 16.1513 18.8499 17.084 20.0005 17.084C21.1511 17.084 22.0838 16.1513 22.0838 15.0007C22.0838 14.3103 22.6435 13.7507 23.3338 13.7507C24.0242 13.7507 24.5838 14.3103 24.5838 15.0007C24.5838 16.1513 25.5166 17.084 26.6672 17.084C27.8178 17.084 28.7505 16.1513 28.7505 15.0007C28.7505 14.3103 29.3102 13.7507 30.0005 13.7507C30.6909 13.7507 31.2505 14.3103 31.2505 15.0007C31.2505 16.1513 32.1832 17.084 33.3338 17.084C33.9971 17.084 34.5876 16.7755 34.9712 16.2891C35.161 16.0483 35.2529 15.7189 35.201 15.2026C35.1471 14.6657 34.9489 14.0552 34.6868 13.3926L32.3674 7.52963C31.9212 6.63739 31.6231 6.04646 31.3459 5.61086C31.0793 5.19182 30.8882 5.01002 30.7023 4.89513C30.5164 4.78025 30.2684 4.69067 29.7744 4.63959C29.2515 4.58553 28.575 4.58399 27.5469 4.58399H12.4542C11.4262 4.58399 10.7496 4.58553 10.2268 4.63959C9.73276 4.69067 9.48471 4.78025 9.29882 4.89513C9.11294 5.01002 8.92189 5.19182 8.65526 5.61086C8.37808 6.04647 8.07991 6.63739 7.63371 7.52963L5.31436 13.3926C5.05224 14.0553 4.85402 14.6657 4.80011 15.2026C4.74826 15.7189 4.84009 16.0483 5.02996 16.2891C5.41349 16.7755 6.00391 17.084 6.66717 17.084C7.81777 17.084 8.75051 16.1513 8.75051 15.0007C8.75051 14.3103 9.31015 13.7507 10.0005 13.7507C10.6909 13.7507 11.2505 14.3103 11.2505 15.0007Z" fill="#333333"/>
</svg>
