<svg width="1000" height="1000" viewBox="0 0 1000 1000" fill="none" xmlns="http://www.w3.org/2000/svg">
<g clip-path="url(#clip0_320_18848)">
<path d="M499.998 55.5859C409.703 55.6593 321.569 83.2188 247.317 134.6C173.066 185.98 116.215 258.748 84.3249 343.224C52.4349 427.701 47.0171 519.884 68.7919 607.515C90.5667 695.145 138.502 774.071 206.224 833.796C232.555 778.2 274.128 731.221 326.109 698.324C378.091 665.426 438.343 647.962 499.859 647.962C561.376 647.962 621.628 665.426 673.609 698.324C725.59 731.221 767.164 778.2 793.495 833.796C861.199 774.087 909.127 695.187 930.91 607.582C952.693 519.978 947.298 427.819 915.443 343.354C883.588 258.889 826.781 186.12 752.573 134.718C678.365 83.3158 590.27 55.7156 499.998 55.5859ZM499.998 593.385C463.53 593.44 427.865 582.672 397.519 562.446C367.174 542.219 343.513 513.443 329.531 479.761C315.55 446.079 311.877 409.005 318.979 373.235C326.08 337.464 343.635 304.605 369.423 278.818C395.21 253.031 428.069 235.475 463.84 228.374C499.61 221.273 536.684 224.945 570.366 238.927C604.048 252.908 632.824 276.569 653.05 306.915C673.277 337.26 684.044 372.925 683.989 409.393C683.916 458.168 664.508 504.925 630.018 539.414C595.529 573.903 548.773 593.311 499.998 593.385Z" fill="#EAF1FF"/>
<path d="M684.004 409.415C684.224 445.919 673.597 481.665 653.471 512.12C633.346 542.575 604.628 566.365 570.961 580.475C537.294 594.584 500.195 598.376 464.369 591.37C428.544 584.363 395.607 566.874 369.736 541.12C343.866 515.367 326.227 482.51 319.057 446.717C311.888 410.923 315.512 373.808 329.468 340.077C343.424 306.346 367.085 277.52 397.448 257.257C427.811 236.993 463.509 226.204 500.013 226.258C548.644 226.33 595.274 245.624 629.74 279.934C664.205 314.243 683.71 360.785 684.004 409.415Z" fill="#1A47A3"/>
<path d="M499.999 -0.00347048C396.577 0.0752571 295.721 32.205 211.311 91.964C126.901 151.723 63.0864 236.174 28.6495 333.695C-5.78748 431.215 -9.15409 537.012 19.0129 636.525C47.1798 736.037 105.496 824.375 185.935 889.38C201.461 902.104 217.802 913.802 234.851 924.399C314.251 974.257 406.104 1000.71 499.86 1000.71C593.615 1000.71 685.469 974.257 764.868 924.399C782.057 913.776 798.493 901.983 814.062 889.102C894.502 824.097 952.818 735.759 980.985 636.246C1009.15 536.734 1005.78 430.937 971.348 333.417C936.911 235.896 873.097 151.445 788.687 91.6862C704.277 31.9272 603.421 -0.202522 499.999 -0.28125V-0.00347048ZM793.495 833.793C767.164 778.197 725.591 731.218 673.609 698.321C621.628 665.423 561.376 647.959 499.86 647.959C438.343 647.959 378.091 665.423 326.11 698.321C274.129 731.218 232.555 778.197 206.224 833.793C138.348 774.112 90.2679 695.165 68.3911 607.469C46.5144 519.773 51.8793 427.493 83.7712 342.924C115.663 258.354 172.568 185.51 246.903 134.097C321.239 82.6834 409.476 55.1423 499.86 55.1423C590.243 55.1423 678.48 82.6834 752.816 134.097C827.152 185.51 884.056 258.354 915.948 342.924C947.84 427.493 953.205 519.773 931.328 607.469C909.452 695.165 861.372 774.112 793.495 833.793Z" fill="#1A47A3"/>
</g>
<defs>
<clipPath id="clip0_320_18848">
<rect width="1000" height="1000" fill="white"/>
</clipPath>
</defs>
</svg>
