<svg width="38" height="38" viewBox="0 0 38 38" fill="none" xmlns="http://www.w3.org/2000/svg">
<g clip-path="url(#clip0_880_11508)">
<path d="M2.08984 18.9778L19.0559 35.9438L36.0283 18.9778C30.373 13.3224 24.7176 7.65421 19.0623 2.01172L2.08984 18.9778Z" fill="white"/>
<path d="M0.847656 18.9784L19.054 37.1848L37.2668 18.972L19.0604 0.765625L0.847656 18.9784ZM34.3813 18.9784L19.054 34.2928L3.73959 18.972L19.0604 3.65114L34.3813 18.972" fill="#FF0000"/>
<path d="M19.0482 9.53822H18.9196C18.2036 9.56238 17.5188 9.83765 16.9853 10.3158C16.781 10.5131 16.6381 10.7653 16.574 11.042C16.5547 11.1127 16.5547 11.132 16.5547 11.267C16.5547 11.4019 16.5547 11.4276 16.574 11.5047C16.5868 11.5947 17.8271 19.9492 17.84 20.0906C17.8895 20.4489 18.0789 20.7731 18.3667 20.9923C18.6545 21.2114 19.0173 21.3078 19.3759 21.2602C19.6695 21.217 19.941 21.0795 20.1496 20.8685C20.3583 20.6576 20.4927 20.3846 20.5327 20.0906C20.552 19.9171 21.7859 11.5819 21.8052 11.4983C21.818 11.4212 21.818 11.3955 21.818 11.2734C21.818 11.1256 21.818 11.0742 21.7859 10.9713C21.6813 10.5991 21.4373 10.2815 21.1047 10.0845C20.5536 9.71168 19.8997 9.52067 19.2345 9.53822H19.0418H19.0482ZM19.1767 22.462H19.0996C18.7854 22.4752 18.479 22.5645 18.207 22.7224C17.9349 22.8802 17.7053 23.1018 17.5379 23.3681C17.2429 23.8057 17.1173 24.3356 17.1845 24.8591C17.2471 25.4006 17.5081 25.8997 17.9171 26.26C18.2741 26.5642 18.727 26.7326 19.196 26.7356C19.5251 26.7302 19.848 26.645 20.1368 26.4871C20.4257 26.3293 20.6718 26.1036 20.854 25.8295C21.1482 25.3869 21.2716 24.8524 21.2011 24.3257C21.1677 24.0812 21.0984 23.843 20.9954 23.6187C20.8317 23.2771 20.576 22.9878 20.257 22.7835C19.938 22.5792 19.5684 22.4678 19.1896 22.462" fill="black"/>
</g>
<defs>
<clipPath id="clip0_880_11508">
<rect width="37.2096" height="37.2096" fill="white" transform="translate(0.464844 0.359375)"/>
</clipPath>
</defs>
</svg>
