<svg width="38" height="38" viewBox="0 0 38 38" fill="none" xmlns="http://www.w3.org/2000/svg">
<g clip-path="url(#clip0_880_11516)">
<path d="M19.2134 37.4756L37.4385 19.2505L19.2134 1.02539L0.988281 19.2505L19.2134 37.4756Z" fill="#FF0000"/>
<path d="M19.2122 34.5845L3.88281 19.2551L19.2122 3.92578L34.5415 19.2551L19.2122 34.5845Z" fill="white"/>
<path d="M18.9131 19.0881C19.3298 19.0881 19.189 18.9195 19.5449 18.9195C19.835 18.9195 19.7368 19.0835 20.1302 19.0835C20.4952 19.0835 20.5843 18.8076 20.5843 18.6952C20.5843 18.5221 20.3879 18.4107 20.2988 18.1758C20.2097 17.9419 20.0365 17.0763 19.508 17.0763C19.3136 17.0763 19.1992 17.1557 19.0539 17.3289C18.8154 17.6098 18.7962 18.0817 18.6489 18.2649C18.5036 18.4426 18.4474 18.6335 18.4474 18.7332C18.4474 18.841 18.499 19.0876 18.9157 19.0876M14.8378 22.0497L14.4379 22.239C14.0374 22.4319 13.5377 22.8349 13.434 23.6616C13.4167 23.7973 13.1105 24.1572 12.7966 24.1572C12.6037 24.1572 12.3754 24.0296 12.344 23.8398C12.2893 23.5138 12.0428 22.3438 12.0321 22.2942C12.0018 22.1499 11.86 22.0573 11.7152 22.0882C11.5704 22.119 11.4783 22.2603 11.5092 22.4051C11.5092 22.4081 11.5477 22.5899 11.5477 22.5899C11.0829 22.3681 11.0637 22.3281 11.0637 22.1681C11.0637 21.9707 11.5193 21.7191 11.8788 21.7191C12.181 21.7191 12.4123 21.8057 12.6366 21.8892C12.8391 21.9651 13.0482 22.0431 13.2846 22.0431C13.6248 22.0431 13.722 22.0087 13.8785 21.9241L14.0101 21.8598C14.2161 21.7733 15.8144 21.0103 16.5186 20.6737C16.6168 20.8144 16.7342 20.9557 16.8699 21.0913M16.7028 18.4588C17.325 18.8451 17.3154 18.8279 17.3184 19.0714C17.3108 19.1372 17.3083 19.2455 17.3083 19.4465C17.3083 20.1097 18.5993 20.6666 19.4103 20.6666C20.3099 20.6666 21.5011 20.0591 21.5011 19.4268V19.0856C21.5011 18.8162 21.5295 18.7914 22.0494 18.4862V19.7513C22.0494 20.1052 21.5644 20.8605 20.6881 21.3014L20.6597 21.3156C20.2355 21.5287 19.708 21.7712 19.4903 21.7712C19.2893 21.7712 18.6089 21.5728 18.0677 21.2999C17.1909 20.8595 16.7064 20.1036 16.7064 19.7498L16.7028 18.4588ZM11.2353 16.3883C11.2343 16.3883 11.2333 16.3898 11.2318 16.3903C11.2328 16.3902 11.2338 16.3888 11.2353 16.3883ZM26.9747 15.8871C27.0927 15.8871 27.1438 15.9255 27.1722 15.9549C27.3443 16.1326 27.3276 16.6525 27.3159 17.0322L27.3093 17.3334C27.3063 17.4813 27.4233 17.5972 27.5706 17.6007C27.7179 17.6038 27.8404 17.4813 27.844 17.3334L27.8465 17.2256C27.8617 17.2666 27.8688 17.3015 27.8688 17.3243V17.8387C27.8688 17.9845 27.8262 18.1586 27.6247 18.1586C27.4592 18.1586 27.2471 18.0553 27.0426 17.9561C26.8066 17.8412 26.5819 17.7324 26.3556 17.7324L26.3171 17.7308C26.1839 17.7243 25.9065 17.7116 25.5157 17.8944L25.5081 17.8979L22.5845 19.3812V18.638C23.0168 18.4406 24.6753 17.6802 25.0854 17.4686C25.5476 17.2307 25.9004 16.7219 26.108 16.4176L26.1885 16.3027C26.3277 16.1113 26.6173 15.8881 26.9762 15.8881L26.9747 15.8871ZM13.4881 17.8969L13.4841 17.8954C13.0933 17.7121 12.8158 17.7253 12.6827 17.7318L12.6442 17.7334C12.4164 17.7334 12.1931 17.8422 11.9572 17.9571C11.7547 18.0569 11.5411 18.1596 11.375 18.1596C11.173 18.1596 11.131 17.986 11.131 17.8397V17.3253C11.131 17.3025 11.1381 17.2676 11.1533 17.2266L11.1558 17.3339C11.1589 17.4818 11.2814 17.6043 11.4292 17.6012C11.5765 17.5982 11.694 17.4818 11.6904 17.3339L11.6838 17.0327C11.6717 16.653 11.6555 16.1331 11.8271 15.9554C11.8555 15.9266 11.9066 15.8876 12.0246 15.8876C12.3835 15.8876 12.6736 16.1108 12.8128 16.3022L12.8933 16.4171C13.1029 16.7209 13.4552 17.2322 13.9159 17.4681C14.2743 17.6529 15.5511 18.2391 16.1728 18.5246V19.2562L13.4881 17.8969ZM19.4164 9.55384C20.9027 9.55384 21.6246 10.174 22.5399 11.0058L23.0249 11.4406L23.2057 11.5976C23.7868 12.1013 24.3361 12.5772 24.3361 12.8592C24.3361 13.2085 24.2141 13.5568 24.0486 13.8818C24.0678 13.7628 24.0688 13.6844 24.0688 13.533C24.0688 12.9574 23.9099 12.7093 23.3221 12.0947L22.9358 12.4643C23.4866 13.0399 23.5342 13.1624 23.5342 13.5325C23.5342 13.7628 23.5342 13.7628 23.4173 14.2817L23.2624 14.9773L23.2801 15.0406C23.2821 15.0472 23.4618 15.7078 23.4618 16.3417C23.4618 17.0049 23.0568 17.2519 22.5455 17.5668L22.3845 17.666L21.8332 17.9981C21.251 18.3399 20.9609 18.4907 20.9609 19.0876V19.4288C20.9609 19.6268 20.2127 20.134 19.4153 20.134C18.6833 20.134 17.8773 19.6278 17.848 19.4435C17.848 19.199 17.8586 19.0932 17.8586 19.0932C17.8586 18.5079 17.5751 18.3434 17.0096 18.0154C16.8522 17.9242 16.6568 17.8103 16.4264 17.666L16.2654 17.5668C15.7521 17.2529 15.3856 17.0747 15.3856 16.3417C15.3856 15.5707 15.5693 15.2953 15.5693 15.0573C15.5693 14.8194 15.3127 13.8929 15.3127 13.7476C15.3127 13.7289 15.3147 13.5725 15.3147 13.5725C15.3147 13.2257 15.3587 12.9361 15.8949 12.4597C15.9384 12.4213 16.0047 12.3033 15.9516 12.238C15.8984 12.1727 15.8771 12.1453 15.8154 12.0724C15.7845 12.036 15.7283 12.0218 15.6741 12.0213C15.62 12.0213 15.5673 12.0355 15.5435 12.0568C14.9092 12.6202 14.7791 13.047 14.7791 13.5725C14.7791 13.5725 14.7771 13.7289 14.7771 13.7522C14.7771 13.895 14.771 13.8231 14.8444 14.1233C14.6156 13.7355 14.4232 13.2991 14.4232 12.8602C14.4232 12.5873 14.9461 12.1135 15.5 11.6123L15.742 11.3925C15.9333 11.2179 16.1014 11.0549 16.2604 10.8969C16.6269 10.537 16.916 10.253 17.2526 10.0819C18.0115 9.69711 18.7005 9.55536 19.4204 9.55536M16.2664 20.212C15.339 20.6555 13.9832 21.3019 13.8076 21.3754L13.6294 21.4619C13.5519 21.5039 13.5281 21.5161 13.2897 21.5161C13.1505 21.5161 13.0016 21.4604 12.829 21.3961C12.5855 21.305 12.2827 21.1936 11.8838 21.1936C11.334 21.1936 10.5352 21.5768 10.5352 22.1773C10.5352 22.7119 10.8779 22.8723 11.4454 23.1391L11.6894 23.2551C11.7466 23.5355 11.8013 23.8094 11.8226 23.9375C11.902 24.4154 12.3845 24.7019 12.8027 24.7019C13.4 24.7019 13.9215 24.1172 13.9721 23.7401C14.0324 23.2606 14.2627 22.9306 14.6768 22.7316L15.0712 22.5448L17.324 21.4842C17.4784 21.5951 17.646 21.6983 17.8262 21.7879C18.2672 22.0097 19.102 22.3377 19.4908 22.3377C19.836 22.3377 20.3514 22.0775 20.9133 21.795C21.1543 21.674 21.3609 21.5419 21.5457 21.3966L24.3189 22.7306C24.733 22.9301 24.9634 23.2596 25.0236 23.739C25.0712 24.1182 25.5942 24.7009 26.1931 24.7009C26.6122 24.7009 27.0932 24.4154 27.1732 23.9365C27.1944 23.8084 27.2491 23.5345 27.3063 23.2541L27.5508 23.1381C28.1183 22.8713 28.4611 22.7103 28.4611 22.1762C28.4611 21.5758 27.6627 21.1926 27.1124 21.1926C26.7135 21.1926 26.4107 21.306 26.1672 21.3951C25.9951 21.4594 25.8463 21.5151 25.7065 21.5151C25.4681 21.5151 25.4443 21.5024 25.3669 21.4609L25.1887 21.3743C25.0008 21.2954 23.4401 20.5512 22.5227 20.1123C22.5354 20.0738 22.546 20.0358 22.5546 19.9983C23.1829 19.6804 25.7339 18.388 25.744 18.3829C26.0143 18.2568 26.1814 18.2644 26.2923 18.2695L26.3561 18.2715C26.4604 18.2715 26.6375 18.3576 26.8087 18.4411C27.0557 18.5616 27.3362 18.6983 27.6237 18.6983C28.0844 18.6983 28.4023 18.3469 28.4023 17.8437V17.3294C28.4023 17.0499 28.2095 16.6606 27.8505 16.4429C27.8308 16.1108 27.7609 15.7995 27.5559 15.5879C27.4076 15.436 27.2121 15.3575 26.9747 15.3575C26.4128 15.3575 25.9779 15.6856 25.7546 15.9924L25.6666 16.1184C25.497 16.364 25.1821 16.8211 24.8393 16.9973C24.5928 17.1243 23.8668 17.462 23.2472 17.7475C23.6496 17.4539 23.9939 17.0595 23.9939 16.3452C23.9939 15.8987 23.9174 15.4542 23.8587 15.1808L23.9549 15.0381C24.3402 14.4817 24.8662 13.7218 24.8662 12.8647C24.8662 12.3387 24.3144 11.8608 23.5509 11.1992L23.3712 11.0432L22.8953 10.6165C21.9739 9.77912 21.1083 8.98633 19.4133 8.98633C18.6175 8.98633 17.8287 9.18883 17.0041 9.60801C16.5935 9.81608 16.2624 10.1416 15.8802 10.5182C15.7227 10.6727 15.5602 10.8326 15.3759 11.0007L15.1355 11.2194C14.4085 11.8775 13.883 12.3534 13.883 12.8637C13.883 13.7188 14.4105 14.4807 14.7943 15.0371L14.8626 15.1383C14.8079 15.5296 14.7512 16.0465 14.7512 16.409C14.7512 16.9077 14.9811 17.259 15.2813 17.5329C14.8008 17.3096 14.3407 17.0935 14.1533 16.9973C13.8106 16.8211 13.4957 16.364 13.3261 16.1184L13.238 15.9924C13.0148 15.6835 12.5748 15.3575 12.018 15.3575C11.7805 15.3575 11.5846 15.435 11.4368 15.5879C11.2318 15.7995 11.1614 16.1108 11.1422 16.4434C11.1432 16.4434 11.1442 16.4424 11.1457 16.4414C11.1447 16.4415 11.1437 16.4424 11.1422 16.4434C10.7832 16.6611 10.5898 17.0504 10.5898 17.3299V17.8442C10.5898 18.3475 10.9103 18.6988 11.369 18.6988C11.658 18.6988 11.938 18.5621 12.184 18.4416C12.3551 18.3581 12.5318 18.272 12.6366 18.272L12.7004 18.27C12.8113 18.2649 12.9783 18.2568 13.2487 18.3834C13.2583 18.388 15.2838 19.4151 16.1713 19.8617M22.2868 20.5907C22.832 20.8514 24.7568 21.7712 24.9801 21.8664L25.1117 21.9307C25.2676 22.0153 25.3648 22.0497 25.7055 22.0497C25.9414 22.0497 26.151 21.9712 26.3535 21.8958C26.5773 21.8122 26.8092 21.7257 27.1114 21.7257C27.4708 21.7257 27.9265 21.9773 27.9265 22.1747C27.9265 22.3347 27.9072 22.3747 27.4425 22.5964C27.4658 22.4861 27.4805 22.4147 27.4815 22.4122C27.5118 22.2679 27.4197 22.1261 27.2749 22.0952C27.2056 22.0806 27.1334 22.0941 27.074 22.1327C27.0147 22.1714 26.9732 22.232 26.9585 22.3013C26.9479 22.3509 26.7013 23.5214 26.6467 23.8469C26.6148 24.0367 26.387 24.1638 26.1941 24.1638C25.8802 24.1638 25.5739 23.8038 25.5567 23.6682C25.4529 22.8399 24.9538 22.437 24.5533 22.2456L21.9714 21.0038C22.0954 20.8691 22.2018 20.7304 22.2898 20.5937M21.5912 16.893C22.4822 16.893 22.8569 15.7742 22.8569 15.4861C22.8569 15.1981 22.629 15.076 22.4949 15.076H20.7999C20.6192 15.076 20.1838 15.2234 20.1838 15.5048C20.1838 15.6101 20.2628 15.842 20.4329 16.0668C20.7265 16.4556 20.9812 16.891 21.5907 16.891M17.1615 16.893C17.769 16.893 18.0272 16.4576 18.3193 16.0688C18.4894 15.8435 18.5684 15.6132 18.5684 15.5069C18.5684 15.2254 18.133 15.0781 17.9523 15.0781H16.2573C16.1232 15.0781 15.8959 15.1986 15.8959 15.4881C15.8959 15.7762 16.271 16.895 17.1615 16.895M16.7008 17.9966H16.3039C16.4943 18.0842 16.6385 18.1485 16.7008 18.1784V17.9966ZM16.1743 19.8546C16.187 19.9629 16.2178 20.0804 16.2659 20.2029L16.1743 19.8546Z" fill="black"/>
</g>
<defs>
<clipPath id="clip0_880_11516">
<rect width="37.2096" height="37.2096" fill="white" transform="translate(0.605469 0.650391)"/>
</clipPath>
</defs>
</svg>
