<svg width="38" height="38" viewBox="0 0 38 38" fill="none" xmlns="http://www.w3.org/2000/svg">
<g clip-path="url(#clip0_880_11524)">
<path d="M19.3501 37.4756L37.5752 19.2505L19.3501 1.02539L1.125 19.2505L19.3501 37.4756Z" fill="#FF0000"/>
<path d="M19.3528 34.5845L4.02344 19.2551L19.3528 3.92578L34.6821 19.2551L19.3528 34.5845Z" fill="white"/>
<path d="M12.5586 20.0965C11.9967 20.0965 11.6524 19.9016 11.4904 19.5837H7.44141V21.4346H17.531V19.5837H13.8607C13.6111 19.9036 13.1246 20.0965 12.5566 20.0965M13.4901 19.408C13.6546 19.408 13.8906 19.3285 14.0809 18.9473C14.1245 18.8608 14.1331 18.7504 14.1427 18.6335C14.1477 18.5727 14.1558 18.475 14.17 18.4375C14.1882 18.4249 14.2303 18.4067 14.2601 18.3935C14.372 18.3444 14.5254 18.2776 14.6059 18.1166C14.651 18.0265 14.6641 17.9374 14.6641 17.8523C14.6641 17.7885 14.6565 17.7273 14.6494 17.669C14.6418 17.6078 14.6353 17.5491 14.6353 17.4883C14.6353 17.4676 14.6353 17.4468 14.6378 17.4255C14.6469 17.3192 14.8337 17.0889 15.0018 16.9405L14.7451 16.6484C14.6672 16.7168 14.2778 17.0737 14.25 17.3921C14.2394 17.5172 14.252 17.623 14.2632 17.7161C14.2763 17.827 14.2829 17.8923 14.2576 17.9429C14.2399 17.9779 14.168 18.0098 14.1037 18.0376C14.0045 18.0811 13.8926 18.1297 13.8303 18.2436C13.7756 18.3444 13.765 18.4755 13.7544 18.6026C13.7498 18.6608 13.7427 18.7494 13.7316 18.7757C13.6982 18.842 13.6633 18.8957 13.6273 18.9357C13.603 19.0025 13.561 19.0982 13.4891 19.2015V19.408" fill="black"/>
<path d="M12.9832 19.1644L13.2054 19.4833C13.3325 19.3947 13.4236 19.2945 13.4894 19.2003C13.5613 19.0976 13.6028 19.0019 13.6276 18.9346C13.6368 18.9092 13.6438 18.888 13.6489 18.8723C13.6838 18.7634 13.658 18.6602 13.6352 18.5695C13.6114 18.4744 13.5978 18.4131 13.6241 18.3554C13.6545 18.2876 13.7061 18.2471 13.7714 18.1959C13.8458 18.1377 13.9385 18.0648 13.9962 17.9428C14.0681 17.7919 14.0261 17.6254 13.9856 17.4649C13.9572 17.352 13.9278 17.2351 13.9435 17.146L13.5608 17.0781C13.5532 17.1196 13.5502 17.1606 13.5502 17.2017C13.5502 17.3287 13.5806 17.4502 13.6089 17.5606C13.6246 17.6229 13.6474 17.7125 13.6474 17.758C13.6474 17.7661 13.6473 17.7727 13.6454 17.7778C13.6281 17.8142 13.5927 17.8431 13.532 17.8912C13.4464 17.9585 13.3401 18.042 13.2707 18.1949C13.2348 18.2749 13.2226 18.3524 13.2226 18.4232C13.2226 18.5164 13.2434 18.5989 13.2596 18.6632C13.2672 18.6936 13.2783 18.7381 13.2788 18.7564C13.2388 18.8789 13.169 19.0348 12.9847 19.1614M11.2771 18.3696C11.3029 18.4177 11.3196 18.4627 11.3308 18.5053C11.3692 18.5301 11.4259 18.567 11.4371 18.5852C11.4543 18.6308 11.4381 18.7589 11.427 18.8439C11.4234 18.8718 11.4199 18.8986 11.4173 18.9249C11.51 19.0176 11.6558 19.1249 11.7343 19.1644L11.5879 19.4575C11.6603 19.5608 11.7449 19.6641 11.8218 19.7486L12.1094 19.4869C11.9438 19.3046 11.8274 19.1274 11.7996 19.0495L11.7995 19.0373C11.7995 19.0034 11.8076 18.9386 11.8137 18.8935C11.8233 18.8171 11.8339 18.7356 11.8339 18.6551C11.8339 18.5822 11.8253 18.5098 11.8 18.4435C11.7489 18.3098 11.6289 18.2334 11.5332 18.1721C11.4765 18.1362 11.3991 18.0866 11.395 18.0552C11.394 18.0471 11.3935 18.0395 11.3935 18.0314C11.3935 17.9924 11.4056 17.9524 11.4274 17.8846C11.4593 17.7859 11.5013 17.6553 11.5013 17.4644C11.5013 17.4386 11.5003 17.4117 11.4988 17.3839L11.1105 17.4072C11.1201 17.5692 11.0892 17.6644 11.0568 17.7666C11.0265 17.8613 10.9915 17.9691 11.0082 18.1043L11.0113 18.1235C11.1014 18.1711 11.2067 18.2395 11.2771 18.3701" fill="black"/>
<path d="M10.459 17.5642C10.4655 17.6401 10.4534 17.6938 10.4397 17.7566C10.4159 17.8634 10.3866 17.996 10.4747 18.1712C10.5531 18.3276 10.6878 18.3949 10.786 18.4435C10.8655 18.483 10.9116 18.5078 10.9374 18.5544C10.9693 18.6131 10.9657 18.6536 10.9596 18.721C10.9526 18.803 10.9424 18.9159 11.0138 19.0374C11.1303 19.2358 11.4335 19.4479 11.5626 19.5122L11.5899 19.4576L11.7362 19.1644C11.6573 19.125 11.5115 19.0181 11.4193 18.925C11.3884 18.8941 11.3636 18.8647 11.349 18.8399C11.3419 18.8283 11.3414 18.8136 11.3469 18.7554C11.3525 18.6926 11.3596 18.6066 11.3328 18.5053C11.3204 18.4581 11.3024 18.4125 11.2791 18.3696C11.2082 18.239 11.1034 18.1707 11.0128 18.1231C10.9941 18.1135 10.9758 18.1038 10.9586 18.0952C10.8756 18.0542 10.8402 18.034 10.8219 17.997C10.7966 17.9464 10.7997 17.9267 10.8189 17.8401C10.8351 17.7662 10.8579 17.6654 10.8462 17.5303C10.824 17.2736 10.6255 17.0584 10.4655 16.8858L10.3476 16.7537L10.0469 16.9997L10.18 17.1496C10.2995 17.2787 10.4478 17.4396 10.459 17.5637M12.1802 17.8274C12.1802 18.1261 12.2521 18.5276 12.6024 18.5276C12.9523 18.5276 13.0449 18.075 13.0449 17.8897C13.0449 17.7262 12.7963 17.0336 12.7361 16.4064C12.6586 16.4054 12.5938 16.3831 12.5397 16.3477C12.4855 17.0513 12.1777 17.5556 12.1777 17.8259" fill="black"/>
<path d="M17.6644 12.1678C16.9 12.2893 13.4069 12.9171 13.0727 12.9829C12.5761 13.0781 12.4602 12.6285 12.2344 12.5212C12.2344 12.5212 12.569 14.487 12.5888 14.6333C12.6586 15.1588 12.2992 15.4291 12.2992 15.822C12.2992 15.9642 12.3609 16.227 12.5417 16.3459C12.5958 16.3814 12.6606 16.4031 12.7381 16.4047H12.7452C13.0854 16.4047 13.1583 16.0645 13.1583 15.8053C13.1583 15.4043 12.9639 15.1734 12.9639 15.0762C12.9639 14.979 13.0449 14.8656 13.3527 14.817C13.6605 14.7684 17.509 14.1002 18.1165 14.002C18.724 13.9038 19.1736 13.4066 19.0764 12.8963C18.9792 12.385 18.4324 12.0458 17.667 12.1673M17.9302 13.601C17.4118 13.6334 12.8829 14.0708 12.8829 14.0708L12.7857 13.4309C12.7857 13.4309 17.266 12.6533 17.7925 12.5652C18.319 12.4761 18.6916 12.6867 18.6916 13.0188C18.6916 13.3509 18.4486 13.5696 17.9323 13.602M26.0024 16.152C25.8976 16.6927 25.6724 17.2116 25.6724 17.3539C25.6724 17.5392 25.7275 18.0019 26.0774 18.0019C26.4272 18.0019 26.538 17.5903 26.538 17.2931C26.538 17.0572 26.3315 16.6755 26.2449 16.1237C26.1943 16.146 26.1366 16.1591 26.0703 16.1591C26.0465 16.1591 26.0247 16.1566 26.0034 16.1525" fill="black"/>
<path d="M20.3754 13.8888C20.9829 13.986 25.2405 14.6952 25.5493 14.7444C25.725 14.7722 25.8688 14.8881 25.8688 14.9362C25.8688 14.9843 25.681 15.164 25.681 15.4794C25.681 15.7204 25.7184 16.1001 25.9979 16.1522C26.0186 16.1563 26.0409 16.1588 26.0647 16.1588C26.131 16.1588 26.1887 16.1462 26.2394 16.1234C26.4489 16.0307 26.532 15.7695 26.532 15.5316C26.532 14.9762 26.2434 15.0856 26.3128 14.5596C26.332 14.4138 26.6125 12.5072 26.6125 12.5072C26.3857 12.6125 26.3254 13.0044 25.8288 12.9092C25.4911 12.8444 21.5864 12.124 20.8219 12.0025C20.0575 11.881 19.5381 12.2789 19.4399 12.7892C19.3417 13.2995 19.7679 13.7911 20.3754 13.8883M20.8311 12.3822C21.3581 12.4687 26.1011 13.2985 26.1011 13.2985L26.0039 13.9384C26.0039 13.9384 21.0984 13.5091 20.582 13.4767C20.0636 13.4443 19.8287 13.2661 19.8287 12.934C19.8287 12.6019 20.2418 12.286 20.8331 12.3832M27.7161 16.7592C27.7186 16.8139 27.7201 16.8438 27.6903 16.9111C27.6336 17.0367 27.5349 17.1931 27.3865 17.2285L27.4751 17.6072C27.6437 17.5677 27.8796 17.4427 28.0472 17.0706C28.116 16.9187 28.1105 16.8124 28.1069 16.7395C28.1039 16.6787 28.1024 16.6534 28.154 16.5719C28.191 16.5142 28.2011 16.5117 28.2451 16.5C28.3449 16.4737 28.4593 16.4307 28.558 16.2469C28.6704 16.0373 28.6339 15.8632 28.6076 15.7356C28.5934 15.6657 28.5818 15.6111 28.5909 15.5539C28.6046 15.4668 28.6658 15.3999 28.7828 15.28C28.8461 15.2147 28.9179 15.1407 28.9908 15.0481L28.6871 14.8076C28.6274 14.8841 28.5656 14.9474 28.5058 15.0086C28.3762 15.1418 28.2426 15.2795 28.2087 15.4926C28.1884 15.6197 28.2107 15.7275 28.2289 15.8141C28.2522 15.9275 28.2608 15.9806 28.2173 16.0621C28.191 16.1117 28.1899 16.1117 28.1484 16.1229C28.0507 16.1487 27.9368 16.1902 27.8275 16.3628C27.7186 16.5345 27.7146 16.6479 27.7201 16.7582M27.0529 17.4174C27.2392 17.2533 27.2969 17.1941 27.382 16.9207C27.4371 16.743 27.4245 16.6256 27.4144 16.5314C27.4063 16.4565 27.4007 16.4023 27.426 16.3056C27.4392 16.256 27.4437 16.254 27.4979 16.2246C27.5809 16.1801 27.7196 16.1057 27.7809 15.8647C27.8371 15.6435 27.7733 15.5042 27.7267 15.4025C27.6903 15.3235 27.6685 15.2754 27.6877 15.1716L27.305 15.1018C27.2645 15.326 27.3273 15.4637 27.3734 15.564C27.4098 15.6435 27.4265 15.6799 27.4042 15.7665C27.385 15.8419 27.3713 15.849 27.3141 15.8799C27.2367 15.9214 27.1066 15.9913 27.0499 16.2034C27.0053 16.3699 27.0175 16.4813 27.0271 16.5709C27.0357 16.6499 27.0413 16.7025 27.0099 16.8028C26.9537 16.9835 26.9476 16.9891 26.7952 17.1227L26.7046 17.2032L26.9648 17.4923L27.0519 17.4148" fill="black"/>
<path d="M24.1705 16.1218C24.2145 16.3167 24.3533 16.4023 24.4545 16.4651C24.5466 16.5223 24.578 16.5456 24.5907 16.6068C24.6109 16.702 24.6018 16.7293 24.5882 16.7698C24.5608 16.8508 24.5401 16.9359 24.5816 17.0827C24.6545 17.3409 24.7324 17.4249 24.9916 17.6836L25.2665 17.4087C25.021 17.1632 25.0007 17.1348 24.9552 16.9759C24.943 16.9333 24.944 16.9303 24.9562 16.8934C24.9845 16.8083 25.0094 16.7096 24.9704 16.5258C24.9218 16.297 24.7628 16.1993 24.658 16.1345C24.5785 16.0854 24.5568 16.0677 24.5492 16.0368C24.5355 15.975 24.5502 15.9279 24.5831 15.8353C24.6226 15.7229 24.6722 15.5832 24.6489 15.3832L24.2626 15.4288C24.2758 15.5386 24.2495 15.6125 24.2166 15.7057C24.1786 15.8135 24.131 15.9487 24.17 16.1223M23.9072 16.0206C23.9072 15.9512 23.8966 15.8707 23.8642 15.7745C23.7741 15.5098 23.6804 15.4075 23.5721 15.2895L23.4633 15.166L23.1641 15.4141L23.2861 15.5523C23.3838 15.6586 23.4329 15.7123 23.4967 15.8996C23.5301 15.9983 23.52 16.0499 23.5053 16.1279C23.486 16.2281 23.4592 16.3653 23.5453 16.5592C23.6404 16.7729 23.7827 16.8255 23.8774 16.8604C23.9401 16.8837 23.9513 16.8878 23.9736 16.9349C24.011 17.0159 24.0065 17.0392 23.9974 17.0812C23.9857 17.1369 23.966 17.23 24.0201 17.352C24.0895 17.51 24.2854 17.8826 24.6028 17.9291L24.6595 17.5444C24.5816 17.5327 24.457 17.3799 24.376 17.1956L24.373 17.1865L24.3781 17.1607C24.3862 17.1222 24.3932 17.0812 24.3932 17.0346C24.3932 16.9642 24.3776 16.8807 24.3269 16.7708C24.2373 16.578 24.1021 16.5278 24.0125 16.4949C23.9457 16.4701 23.93 16.4646 23.9017 16.4008C23.8824 16.3572 23.8753 16.3263 23.8753 16.295C23.8753 16.2671 23.8809 16.2393 23.888 16.2013C23.8976 16.1512 23.9093 16.092 23.9093 16.0201M26.4486 18.2886C26.0674 18.5969 25.2139 18.6207 24.7628 18.2096L24.6676 18.123L24.5507 18.1772C24.377 18.2577 24.1457 18.2643 23.9599 18.2693C23.7235 18.2759 23.5367 18.2815 23.441 18.4308C23.3716 18.5392 23.3782 18.689 23.4597 18.8353C23.4729 18.8596 23.4886 18.8839 23.5058 18.9082H24.3538C24.0384 18.9082 23.8728 18.7594 23.8116 18.6652C23.8612 18.6617 23.9204 18.6592 23.971 18.6581C24.1573 18.6526 24.3816 18.6425 24.5942 18.5726C24.8261 18.7493 25.1091 18.8505 25.3977 18.889C25.6067 18.643 25.9596 18.5528 26.1661 18.5528V18.8439C26.3271 18.8019 26.4755 18.7397 26.5995 18.6592C26.806 18.7483 27.0956 18.9239 27.2971 19.0459C27.4723 19.1523 27.5588 19.2044 27.6166 19.2262C27.7927 19.294 28.5278 19.3542 28.9829 19.3542V18.9654C28.4686 18.9654 27.853 18.8976 27.7578 18.8632C27.7269 18.8505 27.6014 18.7746 27.5011 18.7133C27.2394 18.5544 26.881 18.3367 26.6354 18.2526L26.5347 18.2192L26.4522 18.2861" fill="black"/>
<path d="M24.3538 18.9062H22.9034C22.2503 18.9062 22.1804 19.3062 22.1804 19.4464C22.1804 19.4854 22.185 19.535 22.1987 19.5882H22.7879C22.6148 19.5882 22.5596 19.5203 22.5596 19.4479C22.5596 19.3755 22.6259 19.2961 22.9034 19.2961H25.2316C25.2443 19.1381 25.3005 19.0095 25.3815 18.9073H24.3538M25.6245 19.2961H25.6802L26.8425 19.0247L26.1793 18.9073H26.1672V18.9407C26.1621 18.9407 25.6807 18.9624 25.624 19.2951M21.9744 19.5897C21.5998 19.5897 21.3477 19.8838 21.3477 20.1587C21.3477 20.421 21.5805 20.7374 21.9936 20.7374H22.1146C22.1425 20.588 22.2614 20.3754 22.7044 20.3511V20.3486H21.9957C21.8499 20.3486 21.7425 20.2058 21.7385 20.1582C21.7385 20.1076 21.8094 19.9785 21.9764 19.9785H24.5021V19.5897H21.9764" fill="black"/>
<path d="M22.1131 20.7331C22.107 20.765 22.1055 20.7933 22.1055 20.8171C22.1055 21.136 22.3864 21.3957 22.8648 21.3957H22.874C22.9469 21.1801 23.2126 21.0282 23.566 21.009V21.0064H22.8648C22.6239 21.0064 22.4922 20.8809 22.4922 20.8166C22.4922 20.7614 22.6411 20.7326 22.7879 20.7326H24.4975V20.3438H22.7879C22.7575 20.3438 22.7292 20.3448 22.7013 20.3463C22.2584 20.3706 22.1394 20.5832 22.1115 20.7326" fill="black"/>
<path d="M22.8762 21.3969C22.8631 21.4359 22.8555 21.4769 22.8555 21.5194C22.8555 21.7635 23.0742 22.0257 23.5622 22.0687C23.9156 22.0981 25.4404 22.1462 25.7198 22.1462C25.9477 22.1462 26.9025 22.1153 27.4168 21.9655C27.5687 21.9209 27.6978 21.8612 27.8218 21.8035C28.0891 21.6789 28.3655 21.5503 28.9659 21.5503V21.1615C28.279 21.1615 27.9484 21.3154 27.6578 21.4506C27.5419 21.5043 27.4325 21.5554 27.308 21.5918C26.8761 21.7179 25.9927 21.7569 25.7198 21.7569C25.4617 21.7569 23.9378 21.7093 23.5941 21.6809C23.347 21.6602 23.2443 21.5655 23.2443 21.5194C23.2529 21.4957 23.3718 21.3969 23.6452 21.3969H25.2106L24.8359 21.0081H23.6452C23.6194 21.0081 23.5936 21.0091 23.5683 21.0107C23.2144 21.0299 22.9491 21.1813 22.8762 21.3969ZM25.3974 18.8859C25.3918 18.8925 25.3862 18.8986 25.3812 18.9052C25.3002 19.0074 25.244 19.136 25.2313 19.294C25.2298 19.3157 25.2283 19.3375 25.2283 19.3603C25.2283 19.7217 25.4186 20.3525 26.6944 20.514L26.743 20.1283C26.3223 20.0751 25.6191 19.9045 25.6191 19.3603C25.6191 19.337 25.6211 19.3147 25.6247 19.294C25.6819 18.9603 26.1628 18.9396 26.1679 18.9396V18.5508C25.9618 18.5508 25.6059 18.6409 25.3994 18.8864" fill="black"/>
</g>
<defs>
<clipPath id="clip0_880_11524">
<rect width="37.2096" height="37.2096" fill="white" transform="translate(0.746094 0.650391)"/>
</clipPath>
</defs>
</svg>
