<svg width="39" height="38" viewBox="0 0 39 38" fill="none" xmlns="http://www.w3.org/2000/svg">
<g clip-path="url(#clip0_880_11540)">
<path d="M2.51562 19.2667L19.4835 36.2346L36.4543 19.2639C30.7955 13.6116 25.148 7.94813 19.4863 2.29883L2.51562 19.2667Z" fill="white"/>
<path d="M10.3773 10.1629L1.27344 19.2668L10.3778 28.3711L19.4817 37.4749L28.5872 28.3693L37.6928 19.2637L28.5903 10.1611C23.5841 5.15499 19.4864 1.05859 19.4846 1.05859C19.4827 1.05859 15.3845 5.15563 10.3771 10.1629H10.3773ZM27.1481 11.6033L34.8084 19.2637L27.1444 26.9277L19.4811 34.5911L11.8212 26.927L4.16152 19.2631L11.8219 11.6027C16.0349 7.38975 19.4828 3.94301 19.4847 3.94301C19.4865 3.94301 22.935 7.39033 27.1481 11.6034V11.6033Z" fill="#FF0000"/>
<path d="M19.3267 6.08398C18.759 6.69836 19.3249 9.2264 18.1523 11.5963C17.5443 10.9478 17.3005 9.73168 16.6115 9.12368C16.975 10.0559 15.9624 9.97496 16.3271 13.2174C15.7767 13.0798 15.7597 12.853 14.5437 11.3939C14.7702 12.8089 14.6264 13.7045 14.9101 15.2851C14.9101 15.2851 14.617 15.2234 13.207 14.1894C13.6647 15.7309 12.8652 18.9765 14.6867 21.2715L14.6803 21.2666C14.8205 23.3434 16.2844 25.0589 18.2342 25.5772H14.7109V27.0698H24.537V25.5772H20.7052C22.4693 25.1082 23.8345 23.6587 24.1819 21.8483V21.8466C24.6649 21.0748 26.8247 18.5762 25.1636 14.5557C25.1636 14.5557 24.6762 15.4492 23.7851 15.69C23.7851 15.69 24.9269 13.7868 23.9876 12.2454C23.9876 12.2454 23.7122 13.3717 22.7729 13.4198C22.7729 13.4198 23.2302 11.0177 22.0018 9.4884C21.5559 10.5017 22.2687 10.9216 20.7856 11.7586C20.5826 8.6367 19.9347 8.1105 19.3267 6.08398ZM19.0022 12.8929C19.5685 13.2414 19.9759 13.8408 20.0995 14.9654C20.1539 15.4601 20.3388 15.7436 20.4738 16.2459C20.1438 16.1755 19.8072 16.1399 19.4697 16.1399C19.0588 16.1395 18.6495 16.1918 18.2519 16.2957C18.1656 14.6573 19.0232 15.0171 19.0022 12.8929ZM16.936 14.0689C16.936 14.0689 17.1627 15.4972 17.741 16.4612C17.3368 16.6179 16.9558 16.8287 16.6083 17.0878C16.4183 15.6072 16.8485 15.2724 16.936 14.0689ZM21.9616 14.7984C21.9616 14.7984 22.1739 16.2284 22.4628 17.1874C21.9997 16.8171 21.4718 16.536 20.9061 16.3584C21.1472 15.8648 21.5183 15.2148 21.9616 14.7984ZM14.706 16.3793C14.706 16.3793 15.1363 16.8133 16.2612 17.3705C15.865 17.727 15.5306 18.1467 15.2715 18.6125C15.0962 18.0379 14.85 17.171 14.706 16.3793ZM24.2318 16.9063C24.2695 17.4348 24.2702 18.7205 24.0293 19.419L24.0309 19.4431C23.8201 18.8017 23.4763 18.2121 23.0219 17.7128C23.3116 17.4813 23.804 17.1122 24.2318 16.9063ZM19.4279 17.467C21.3214 17.467 22.8581 19.0052 22.8581 20.8987C22.8581 22.7922 21.3215 24.3289 19.4279 24.3289C17.5344 24.3289 15.9977 22.7922 15.9977 20.8987C15.9977 19.0052 17.5344 17.4669 19.428 17.4669L19.4279 17.467Z" fill="black"/>
</g>
<defs>
<clipPath id="clip0_880_11540">
<rect width="37.2096" height="37.2096" fill="white" transform="translate(0.886719 0.650391)"/>
</clipPath>
</defs>
</svg>
