<svg width="38" height="38" viewBox="0 0 38 38" fill="none" xmlns="http://www.w3.org/2000/svg">
<g clip-path="url(#clip0_880_11548)">
<path d="M1.62891 19.2863L18.5949 36.2524L35.561 19.2863L18.5949 2.32031L1.62891 19.2863Z" fill="white"/>
<path d="M9.53583 10.1628L0.410156 19.2884L9.53583 28.3499L18.5972 37.4755L27.7229 28.3499L36.8486 19.2884L27.7229 10.1628L18.5972 1.03711L9.53583 10.1628ZM26.3091 11.5766L33.9566 19.2884L26.3091 26.936L18.5972 34.5836L10.9497 26.936L3.30209 19.2884L10.9497 11.5766L18.5972 3.92905L26.3091 11.5766Z" fill="#FF0000"/>
<path d="M18.6619 8.42773C17.5051 10.6128 18.8547 11.8338 17.3766 14.9828C16.5412 14.3401 16.991 11.9623 15.4487 11.8981C15.6414 12.6692 15.5129 12.9263 15.4487 13.1834C15.2559 14.2759 14.9345 15.1756 15.6414 16.5252C14.5489 16.011 14.4847 15.0471 13.585 14.4044C13.7778 15.4327 13.3279 17.5534 14.5489 19.6099C13.4564 19.4814 13.0708 19.0958 11.9141 17.939C13.1351 24.3655 14.0991 24.5583 18.6619 24.9439C18.2763 24.8796 15.9628 24.4941 15.1273 21.8592C15.1273 21.2165 15.0631 22.4376 17.3123 22.5018C15.8985 20.2525 16.2841 20.7024 16.4126 19.4171C17.0553 20.2525 16.5412 20.3811 18.1478 21.0237C17.6337 19.3528 18.9832 18.2603 18.6619 16.3324C19.0475 17.1678 20.3328 17.0393 20.2685 21.0237C21.3611 19.8027 21.4253 20.6381 21.9394 19.3528C22.0037 20.0598 22.325 20.9595 20.8469 22.5018C21.2325 22.6304 21.8752 22.6946 22.8392 21.9877C21.8752 23.1445 22.7749 23.1445 20.2685 24.9439C23.4175 25.0082 25.474 23.016 25.4098 18.7102C25.2812 19.0958 25.217 19.867 23.5461 20.0598C24.5743 19.0315 25.1527 16.9108 24.3173 15.2399C23.9959 15.4969 23.5461 16.7822 22.4536 17.1035C22.9677 16.2038 22.8392 15.0471 22.8392 15.0471C22.8392 15.0471 23.032 13.4404 22.068 12.1551C21.8109 14.0831 21.8109 15.1113 20.5899 15.3684C20.7827 14.2759 20.8469 13.6975 20.2043 12.4122C19.5616 11.0626 18.7904 9.71304 18.6619 8.42773ZM13.4564 26.0364V27.1932H24.4458V26.0364H13.4564Z" fill="black"/>
</g>
<defs>
<clipPath id="clip0_880_11548">
<rect width="37.2096" height="37.2096" fill="white" transform="translate(0.0234375 0.650391)"/>
</clipPath>
</defs>
</svg>
