<svg width="38" height="38" viewBox="0 0 38 38" fill="none" xmlns="http://www.w3.org/2000/svg">
<g clip-path="url(#clip0_880_11556)">
<path d="M18.7706 37.4671L36.9827 19.255L18.7706 1.04297L0.558594 19.255L18.7706 37.4671Z" fill="#FF0000"/>
<path d="M18.7705 34.5802L3.44531 19.255L18.7705 3.92578L34.0957 19.255L18.7705 34.5802Z" fill="white"/>
<path d="M18.855 7.53711C16.7091 7.53711 14.968 9.41176 14.968 11.7237C14.968 13.2258 15.53 15.3353 16.6257 16.6269L16.4916 17.9979L13.5521 19.0628C13.5991 19.2923 13.8023 19.4648 14.0453 19.4648C14.0882 19.4648 14.1299 19.4588 14.1696 19.4486C14.2255 19.6657 14.4218 19.8256 14.6554 19.8256C14.6801 19.8256 14.7044 19.8236 14.7283 19.8199C14.7858 20.0345 14.981 20.1928 15.2142 20.1928C15.2826 20.1928 15.3478 20.1791 15.4073 20.1544C15.4231 20.3155 15.5596 20.4418 15.7252 20.4418C15.7576 20.4418 15.7891 20.437 15.8187 20.4277C15.8592 20.6645 16.0657 20.8451 16.3143 20.8451C16.5078 20.8451 16.6759 20.7358 16.7597 20.5759C16.8443 20.6402 16.9496 20.6787 17.0637 20.6787C17.1378 20.6787 17.2083 20.6621 17.2715 20.6334C17.337 20.7726 17.4589 20.8799 17.6071 20.9261C17.6014 20.9443 17.597 20.9637 17.597 20.984C17.597 21.0864 17.68 21.169 17.782 21.169C17.8841 21.169 17.9671 21.0864 17.9671 20.984C17.9671 20.9613 17.9626 20.9399 17.9549 20.9196C18.1707 20.8439 18.3258 20.639 18.3258 20.3973C18.3258 20.2868 18.293 20.1839 18.2371 20.0977C18.3278 20.0855 18.3975 20.009 18.3975 19.9151C18.3975 19.8353 18.3469 19.7677 18.276 19.7422C18.3529 19.6535 18.4003 19.5397 18.4003 19.4114C18.4003 19.3875 18.3979 19.3636 18.3946 19.3405C18.5845 19.2685 18.7185 19.085 18.7185 18.87C18.7185 18.7356 18.6651 18.6142 18.5793 18.5239C18.595 18.5283 18.6112 18.5316 18.6283 18.5316C18.7303 18.5316 18.8129 18.4486 18.8129 18.3465C18.8129 18.3222 18.8082 18.2982 18.7989 18.2757C18.7897 18.2533 18.7761 18.2329 18.7589 18.2157C18.7418 18.1985 18.7214 18.1849 18.699 18.1756C18.6766 18.1663 18.6525 18.1615 18.6283 18.1615C18.5878 18.1615 18.5505 18.1748 18.5197 18.1971C18.5014 18.1626 18.4753 18.1328 18.4436 18.11C18.4119 18.0871 18.3753 18.0719 18.3367 18.0655C18.4013 17.9604 18.4355 17.8395 18.4355 17.7161C18.4355 17.6331 18.4197 17.5541 18.3922 17.4805C18.5829 17.4092 18.7202 17.2254 18.7202 17.01C18.7202 16.884 18.674 16.7695 18.5987 16.6812C18.6687 16.658 18.7297 16.6133 18.7728 16.5535C18.816 16.4937 18.8392 16.4217 18.8392 16.348C18.8392 16.2204 18.7708 16.1091 18.6691 16.0475C18.7002 16.0087 18.7226 15.9637 18.7347 15.9155C18.7469 15.8673 18.7485 15.8171 18.7396 15.7682C18.8125 15.7645 18.8797 15.7398 18.9348 15.6985C18.9214 15.7676 18.9291 15.8391 18.9568 15.9038C18.9845 15.9685 19.031 16.0233 19.0902 16.0613C19.0708 16.1148 19.0599 16.1722 19.0599 16.2322C19.0599 16.4375 19.1813 16.6132 19.3579 16.6917C19.3417 16.7492 19.3324 16.81 19.3324 16.8723C19.3324 17.0853 19.4328 17.2748 19.5887 17.3962C19.4522 17.4558 19.3567 17.5918 19.3567 17.7501C19.3567 17.9084 19.4518 18.0441 19.5878 18.104C19.5597 18.1526 19.5449 18.2078 19.5449 18.2639C19.5449 18.3919 19.6198 18.5016 19.7283 18.5526C19.6963 18.632 19.6798 18.7168 19.6798 18.8024C19.6798 18.9085 19.7053 19.0089 19.7498 19.098C19.7283 19.1223 19.7093 19.1474 19.6911 19.1745C19.6653 19.1484 19.6324 19.1306 19.5964 19.1232C19.5605 19.1159 19.5232 19.1194 19.4892 19.1334C19.4553 19.1473 19.4262 19.171 19.4058 19.2015C19.3854 19.232 19.3745 19.2678 19.3745 19.3045C19.3745 19.4065 19.4575 19.4891 19.5595 19.4891C19.5684 19.4891 19.5765 19.4879 19.585 19.4867C19.5838 19.5037 19.5826 19.5207 19.5826 19.5381C19.5826 19.6665 19.6194 19.7855 19.6822 19.8871C19.6265 19.9924 19.5975 20.1098 19.5976 20.2289C19.5976 20.4184 19.6696 20.59 19.7866 20.7204C19.753 20.7746 19.7352 20.8372 19.7352 20.901C19.7352 21.0901 19.8883 21.2435 20.0778 21.2435C20.2462 21.2435 20.3859 21.1221 20.4146 20.9617C20.5074 20.9516 20.5944 20.9245 20.6734 20.8836C20.6978 20.9368 20.7398 20.98 20.7922 21.0061C20.8447 21.0322 20.9045 21.0396 20.9617 21.027C21.0189 21.0145 21.0701 20.9827 21.1068 20.937C21.1434 20.8913 21.1634 20.8345 21.1633 20.7759C21.1633 20.6686 21.0969 20.5767 21.0033 20.5382C21.0293 20.4823 21.0479 20.422 21.0592 20.3596C21.1147 20.3746 21.1726 20.3831 21.2329 20.3831C21.2402 20.3831 21.2479 20.3823 21.2556 20.3823C21.2783 20.4406 21.3181 20.4907 21.3697 20.5259C21.4214 20.5612 21.4825 20.58 21.5451 20.5799C21.6463 20.5799 21.7362 20.5313 21.7929 20.456C21.8069 20.5071 21.8353 20.5531 21.8748 20.5884C21.9143 20.6237 21.9631 20.6469 22.0154 20.6551C22.0678 20.6634 22.1214 20.6564 22.1698 20.6349C22.2182 20.6134 22.2594 20.5785 22.2885 20.5342C22.3419 20.5669 22.4043 20.5864 22.4719 20.5864C22.6658 20.5864 22.8229 20.4289 22.8229 20.2349C22.8229 20.1702 22.8051 20.1098 22.7743 20.0576C22.8011 20.0665 22.8298 20.071 22.859 20.071C23.0112 20.071 23.1347 19.9479 23.1347 19.7956C23.1347 19.7827 23.1335 19.7701 23.1315 19.7576C23.1611 19.8148 23.2058 19.8628 23.2609 19.8963C23.316 19.9298 23.3792 19.9475 23.4436 19.9475C23.6351 19.9475 23.7906 19.7944 23.7943 19.6037C23.8407 19.5751 23.8798 19.536 23.9086 19.4896C23.9373 19.4432 23.9549 19.3908 23.9599 19.3365C23.9777 19.3426 23.9963 19.3462 24.0162 19.3462C24.1182 19.3462 24.2012 19.2636 24.2012 19.1612C24.2012 19.1401 24.1975 19.1195 24.1907 19.1004L23.9097 19.0101L20.9742 18.0651L20.9625 16.812C21.4078 16.3326 21.7556 15.7147 22.0075 15.043C22.4844 13.7716 22.7403 12.4274 22.7403 11.7237C22.7403 9.90168 20.9993 7.53711 18.8534 7.53711H18.855ZM12.8383 19.3559C12.7877 19.3559 12.7403 19.3705 12.7002 19.3952C12.0018 19.6628 11.422 19.8851 11.2021 19.9742C10.7094 20.171 10.3438 20.6977 10.3438 21.2196V22.9016L13.0687 25.667C13.0962 25.673 13.1254 25.6759 13.1549 25.6759C13.3059 25.6759 13.4379 25.5937 13.5084 25.4734C13.563 25.4941 13.6226 25.5058 13.6845 25.5058C13.9627 25.5058 14.1882 25.2803 14.1882 25.0021C14.1882 24.9823 14.1866 24.9625 14.1846 24.9434C14.2591 25.0357 14.3732 25.0949 14.5016 25.0949C14.7267 25.0949 14.9105 24.9123 14.9105 24.6859C14.9105 24.6248 14.8968 24.5673 14.8729 24.5155C14.9539 24.4867 15.0243 24.4329 15.0729 24.3632C15.0992 24.3903 15.1307 24.4119 15.1654 24.4266C15.2002 24.4413 15.2376 24.449 15.2753 24.4491C15.4328 24.4491 15.5628 24.3211 15.5628 24.1656C15.5628 24.0834 15.528 24.0097 15.4725 23.9575C15.577 23.9069 15.6563 23.813 15.6875 23.6988C15.7531 23.7709 15.8442 23.8194 15.9462 23.83C15.9058 23.8798 15.8802 23.9433 15.8802 24.013C15.8802 24.1705 16.0082 24.2964 16.1677 24.2964C16.3272 24.2964 16.4552 24.1685 16.4552 24.013C16.4552 23.8838 16.3694 23.7749 16.2527 23.7397C16.2992 23.7014 16.3367 23.6533 16.3624 23.5988C16.3881 23.5444 16.4014 23.4849 16.4013 23.4247C16.4013 23.387 16.3961 23.3514 16.3864 23.317C16.3989 23.3178 16.4115 23.3186 16.424 23.3186C16.4815 23.3186 16.5362 23.3069 16.5856 23.2854C16.59 23.3951 16.6795 23.483 16.7904 23.483C16.9038 23.483 16.9961 23.3907 16.9961 23.2773C16.9961 23.1664 16.9083 23.0769 16.7981 23.0724C16.8196 23.023 16.8317 22.9684 16.8317 22.9109C16.8317 22.8756 16.8265 22.842 16.818 22.8096C16.8423 22.8097 16.8664 22.805 16.8889 22.7957C16.9114 22.7864 16.9319 22.7728 16.9491 22.7556C16.9663 22.7384 16.98 22.718 16.9893 22.6955C16.9986 22.673 17.0034 22.6489 17.0034 22.6246C17.0034 22.5226 16.9204 22.44 16.818 22.44C16.8127 22.44 16.8079 22.4408 16.8026 22.4412C16.7921 22.2873 16.7127 22.1525 16.5949 22.0675C16.5949 22.0557 16.5965 22.044 16.5965 22.0318C16.5965 21.7537 16.371 21.5286 16.0928 21.5286C15.996 21.5286 15.9058 21.5561 15.8292 21.6039C15.8402 21.5747 15.8462 21.5431 15.8462 21.5103C15.8462 21.3646 15.7284 21.2464 15.5827 21.2464C15.5563 21.2464 15.5316 21.2504 15.5077 21.2573C15.5114 21.2338 15.5134 21.2095 15.5134 21.1852C15.5134 20.9071 15.2883 20.6815 15.0101 20.6815C14.9239 20.6815 14.8429 20.703 14.7721 20.7411C14.7085 20.6374 14.6101 20.5589 14.4898 20.5228C14.5048 20.4896 14.5137 20.4524 14.5137 20.4135C14.5137 20.2677 14.3955 20.1495 14.2497 20.1495C14.2153 20.1495 14.1829 20.1564 14.153 20.1681C14.151 19.8916 13.9266 19.6681 13.6497 19.6681C13.6048 19.6681 13.5618 19.6746 13.5205 19.6855C13.5003 19.6378 13.4665 19.5971 13.4233 19.5686C13.3801 19.54 13.3294 19.5247 13.2776 19.5248C13.2132 19.5248 13.1545 19.5478 13.1088 19.5863C13.0909 19.4575 12.9812 19.3583 12.8476 19.3583M25.1685 19.4175C25.1087 19.4221 25.0521 19.4462 25.0073 19.4859C24.9624 19.5257 24.9317 19.579 24.9199 19.6377C24.8822 19.6183 24.8397 19.6074 24.7944 19.6074C24.6421 19.6074 24.519 19.7304 24.519 19.8827C24.519 19.8977 24.5202 19.9122 24.5227 19.9264C24.436 19.8617 24.3308 19.8267 24.2226 19.8268C23.9445 19.8268 23.719 20.0519 23.719 20.3301V20.3325C23.6679 20.3204 23.6149 20.3127 23.5598 20.3127C23.1914 20.3127 22.8954 20.6103 22.8954 20.9775C22.8954 21.0119 22.8986 21.0455 22.9039 21.0787C22.8646 21.0613 22.8213 21.0516 22.776 21.0516C22.6711 21.0516 22.5784 21.1026 22.5201 21.1804C22.4597 21.1605 22.3958 21.1496 22.329 21.1496C22.0014 21.1496 21.735 21.4083 21.7216 21.7326C21.7006 21.7282 21.6791 21.7262 21.6568 21.7262C21.4807 21.7262 21.3378 21.8691 21.3378 22.0452C21.3378 22.0991 21.3512 22.1493 21.3742 22.1938C21.3219 22.1641 21.2627 22.1484 21.2026 22.1485C21.0086 22.1485 20.8511 22.306 20.8511 22.4999C20.8511 22.6011 20.8944 22.6922 20.9629 22.7562V22.7594C20.8819 22.7675 20.8139 22.8222 20.7879 22.8967C20.7774 22.9198 20.7717 22.9453 20.7717 22.972C20.7717 23.0368 20.8054 23.0935 20.856 23.1271C20.8912 23.1542 20.9345 23.1708 20.9823 23.1708C21.0706 23.1708 21.1443 23.1153 21.175 23.0376C21.2228 23.0635 21.2775 23.0781 21.3358 23.0781C21.3621 23.0781 21.3876 23.0749 21.4123 23.0692C21.4103 23.0902 21.409 23.1117 21.409 23.1336C21.409 23.2137 21.4248 23.2903 21.4532 23.3607C21.3398 23.3874 21.2552 23.4887 21.2552 23.6101C21.2552 23.6478 21.2633 23.683 21.2779 23.715C21.3143 23.8077 21.4042 23.8737 21.5099 23.8737C21.5977 23.8737 21.6743 23.8284 21.7188 23.7603C21.7354 23.7369 21.7488 23.7113 21.7573 23.6834C21.8362 23.7211 21.9245 23.7425 22.018 23.7425C22.0472 23.7425 22.0751 23.7397 22.103 23.736C22.0859 23.7815 22.0771 23.8296 22.0771 23.8782C22.0771 23.9442 22.0933 24.0061 22.1213 24.0612C22.1083 24.0587 22.0949 24.0571 22.0812 24.0571C22.0266 24.0571 21.9743 24.0788 21.9357 24.1174C21.8972 24.1559 21.8755 24.2083 21.8755 24.2628C21.8755 24.3762 21.9678 24.4685 22.0812 24.4685C22.1836 24.4685 22.2678 24.3932 22.2832 24.2952C22.3387 24.513 22.5359 24.6742 22.7691 24.6742C22.8748 24.6742 22.9715 24.6418 23.0525 24.5863C23.0768 24.7884 23.2489 24.945 23.4574 24.945C23.5635 24.945 23.6598 24.9046 23.7327 24.8373C23.7319 24.8495 23.7307 24.862 23.7307 24.8746C23.7307 25.1524 23.9562 25.3779 24.2344 25.3779C24.3295 25.3779 24.4182 25.3512 24.4943 25.305C24.4548 25.3586 24.4336 25.4235 24.4336 25.49C24.4336 25.6637 24.5741 25.8042 24.7474 25.8042C24.8523 25.8042 24.945 25.7524 25.0021 25.6739L27.727 23.1639V21.3257C27.727 20.7682 27.1269 20.0714 26.4014 19.8236C26.2394 19.7681 25.164 19.4187 25.164 19.4187M18.953 19.6616C18.8109 19.6616 18.6959 19.7766 18.6959 19.9187C18.6959 20.0167 18.7513 20.1009 18.8323 20.1442C18.755 20.1665 18.6983 20.237 18.6983 20.3212C18.6983 20.4236 18.7813 20.5062 18.8833 20.5062C18.9854 20.5062 19.0684 20.4236 19.0684 20.3212C19.0684 20.2596 19.038 20.2054 18.9914 20.1718C19.1149 20.1531 19.2097 20.0475 19.2097 19.9187C19.2097 19.7766 19.0947 19.6616 18.953 19.6616ZM18.0339 19.9001L18.0327 19.911L18.0197 19.9041C18.0246 19.9029 18.0294 19.9013 18.0339 19.9001ZM18.5918 20.7751C18.4894 20.7751 18.4068 20.8581 18.4068 20.9601C18.4068 21.0621 18.4894 21.1451 18.5918 21.1451C18.6938 21.1451 18.7768 21.0621 18.7768 20.9601C18.7768 20.8581 18.6938 20.7751 18.5918 20.7751ZM16.8872 20.9718C16.7415 20.9718 16.6232 21.0901 16.6232 21.2358C16.6232 21.3816 16.7415 21.4994 16.8872 21.4994C17.033 21.4994 17.1512 21.3816 17.1512 21.2358C17.1512 21.0901 17.033 20.9718 16.8872 20.9718ZM19.8777 21.4407C19.764 21.4407 19.6713 21.5334 19.6713 21.6472C19.6713 21.7614 19.764 21.8541 19.8777 21.8541C19.8943 21.8541 19.9105 21.8517 19.9255 21.8476C19.9332 21.9934 20.0531 22.1092 20.2004 22.1092C20.2207 22.1092 20.2401 22.1068 20.2592 22.1027C20.3871 22.0881 20.4867 21.9812 20.4867 21.8488C20.4867 21.8019 20.4733 21.7585 20.4515 21.7205C20.4361 21.6865 20.414 21.656 20.3865 21.6308C20.359 21.6056 20.3266 21.5863 20.2914 21.574C20.2562 21.5617 20.2189 21.5567 20.1816 21.5592C20.1444 21.5618 20.1081 21.5719 20.0749 21.5889C20.0494 21.5039 19.9713 21.4411 19.8777 21.4411M17.0091 21.9136C16.9066 21.9136 16.8241 21.9966 16.8241 22.0987C16.824 22.1324 16.8332 22.1656 16.8507 22.1945C16.8682 22.2234 16.8932 22.247 16.9232 22.2626C16.9531 22.2783 16.9867 22.2854 17.0205 22.2833C17.0542 22.2811 17.0866 22.2698 17.1144 22.2505C17.1212 22.3865 17.2322 22.4934 17.3698 22.4934C17.4121 22.4934 17.4537 22.483 17.4909 22.4631C17.5282 22.4432 17.56 22.4144 17.5834 22.3793C17.6069 22.3442 17.6214 22.3039 17.6256 22.2618C17.6297 22.2198 17.6235 22.1774 17.6073 22.1383C17.5912 22.0993 17.5657 22.0648 17.5331 22.038C17.5004 22.0112 17.4617 21.9928 17.4203 21.9845C17.3789 21.9762 17.336 21.9783 17.2956 21.9905C17.2552 22.0027 17.2184 22.0247 17.1885 22.0545C17.169 21.9735 17.0961 21.9124 17.0091 21.9124M20.6126 23.2287C20.4604 23.2287 20.3373 23.3518 20.3373 23.504C20.3373 23.5389 20.3438 23.5721 20.3555 23.6028C20.2559 23.6166 20.1786 23.7016 20.1786 23.8053C20.1786 23.8344 20.1851 23.862 20.196 23.8863C20.2104 23.9228 20.2355 23.9543 20.268 23.9764C20.3005 23.9986 20.3389 24.0105 20.3782 24.0106H20.3835C20.4976 24.0106 20.59 23.9182 20.59 23.8049C20.59 23.7956 20.5883 23.7867 20.5871 23.7777C20.6253 23.7813 20.6637 23.7769 20.7001 23.7648C20.7364 23.7526 20.7698 23.733 20.7981 23.7072C20.8265 23.6814 20.8491 23.65 20.8646 23.6149C20.88 23.5798 20.888 23.5419 20.888 23.5036C20.888 23.3514 20.7649 23.2283 20.6126 23.2283M18.4546 23.5757C18.3124 23.5757 18.1974 23.6911 18.1974 23.8328C18.1968 23.8669 18.203 23.9008 18.2157 23.9325C18.2283 23.9642 18.2471 23.9931 18.2711 24.0174C18.295 24.0418 18.3235 24.0611 18.355 24.0743C18.3864 24.0875 18.4202 24.0943 18.4543 24.0943C18.4885 24.0943 18.5223 24.0875 18.5537 24.0743C18.5852 24.0611 18.6137 24.0418 18.6376 24.0174C18.6616 23.9931 18.6804 23.9642 18.693 23.9325C18.7057 23.9008 18.7119 23.8669 18.7113 23.8328C18.7113 23.6911 18.5963 23.5757 18.4546 23.5757ZM16.9564 23.6134C16.9019 23.6134 16.8496 23.635 16.811 23.6736C16.7724 23.7122 16.7508 23.7645 16.7508 23.819C16.7508 23.9324 16.8431 24.0243 16.9564 24.0243C17.0698 24.0243 17.1617 23.9324 17.1617 23.819C17.1617 23.7053 17.0698 23.6134 16.9564 23.6134ZM17.2577 24.1713C17.1002 24.1713 16.9702 24.2992 16.9702 24.4547C16.9702 24.5981 17.0759 24.7163 17.2132 24.7369C17.2123 24.7475 17.2111 24.758 17.2111 24.7689C17.1207 24.694 17.007 24.6531 16.8896 24.6531C16.7066 24.6531 16.5467 24.7515 16.4584 24.8961C16.4204 24.8538 16.3738 24.8201 16.3219 24.797C16.2699 24.7739 16.2137 24.762 16.1568 24.762C15.9665 24.762 15.807 24.8924 15.762 25.0689C15.6943 25.0226 15.6141 24.9978 15.532 24.9981C15.3069 24.9981 15.1231 25.1803 15.1231 25.407C15.1231 25.4386 15.1267 25.469 15.1336 25.4985C15.0255 25.4001 14.8822 25.3394 14.7247 25.3394C14.4732 25.3394 14.2578 25.4917 14.1647 25.7087C14.0969 25.6625 14.0168 25.6378 13.9347 25.6378C13.7096 25.6378 13.5258 25.82 13.5258 26.0468C13.5258 26.0796 13.5298 26.1115 13.5371 26.1419L18.4849 31.1666C18.5497 31.1395 18.595 31.0755 18.595 31.001C18.595 30.9306 18.5538 30.8702 18.4946 30.8407C18.5647 30.816 18.6153 30.7504 18.6153 30.6718C18.6153 30.5978 18.5704 30.5342 18.5064 30.5067C18.5387 30.4855 18.5653 30.4566 18.5837 30.4226C18.6021 30.3886 18.6117 30.3506 18.6116 30.3119C18.6116 30.2006 18.5339 30.1094 18.4299 30.0843C18.6368 29.9414 18.7728 29.7029 18.7728 29.4325C18.7728 29.2653 18.721 29.1106 18.6327 28.983C18.7752 28.894 18.87 28.7361 18.87 28.5559C18.87 28.3534 18.7493 28.1773 18.5756 28.0979C18.6106 28.0714 18.639 28.0371 18.6585 27.9978C18.6781 27.9585 18.6882 27.9151 18.6882 27.8712C18.6882 27.7744 18.64 27.689 18.5667 27.6372C18.6098 27.5861 18.6334 27.5214 18.6331 27.4546C18.6331 27.2971 18.5052 27.1711 18.3456 27.1711C18.3217 27.1711 18.2991 27.1744 18.2768 27.1796C18.3088 27.1137 18.3274 27.0396 18.3274 26.961C18.3274 26.8877 18.3112 26.8181 18.2829 26.7553C18.4311 26.7448 18.5477 26.6217 18.5477 26.4719C18.5477 26.3504 18.4699 26.2448 18.361 26.2047C18.4675 26.1124 18.5355 25.9763 18.5355 25.8241C18.5355 25.65 18.4473 25.4965 18.3128 25.4062C18.3906 25.3175 18.4384 25.2013 18.4384 25.0742C18.4384 24.9629 18.4019 24.8604 18.3404 24.777C18.4197 24.7487 18.4768 24.6734 18.4768 24.5843C18.4768 24.4709 18.3849 24.3786 18.2711 24.3786C18.2019 24.3786 18.1408 24.4134 18.1035 24.4661C18.0565 24.4077 17.997 24.3607 17.9294 24.3284C17.8617 24.2961 17.7877 24.2793 17.7128 24.2794C17.6387 24.2794 17.5691 24.2956 17.5059 24.3239C17.4814 24.2784 17.4451 24.2404 17.4008 24.2139C17.3564 24.1874 17.3057 24.1733 17.254 24.1733L17.2577 24.1713ZM20.0555 24.2535C19.8664 24.2535 19.713 24.4069 19.713 24.596C19.713 24.6543 19.7279 24.7094 19.7534 24.7572C19.7041 24.7167 19.6409 24.692 19.5721 24.692C19.4141 24.692 19.2846 24.8195 19.2846 24.9754C19.2846 25.1111 19.3793 25.2244 19.5065 25.2532C19.4679 25.3256 19.4478 25.4064 19.4478 25.4884C19.4478 25.6504 19.5259 25.7965 19.6466 25.8884C19.5989 25.9769 19.574 26.0758 19.5741 26.1763C19.5741 26.3379 19.6372 26.4844 19.7401 26.5934C19.7065 26.6691 19.6874 26.7525 19.6874 26.8403C19.6874 26.8744 19.6911 26.9076 19.6964 26.94C19.654 26.9106 19.6045 26.8931 19.553 26.8893C19.5892 26.8405 19.6088 26.7813 19.6089 26.7205C19.6089 26.5626 19.481 26.4371 19.3214 26.4371C19.1635 26.4371 19.034 26.5646 19.034 26.7205C19.034 26.7962 19.0631 26.8646 19.1113 26.9157C18.9918 26.9497 18.904 27.0598 18.904 27.1902C18.904 27.3477 19.0319 27.4736 19.1915 27.4736C19.2004 27.4736 19.2089 27.472 19.2178 27.4712C19.1651 27.5611 19.1344 27.6659 19.1344 27.7777C19.1344 27.9902 19.2433 28.1769 19.4081 28.2858C19.1902 28.3785 19.0372 28.5947 19.0372 28.8466C19.0372 29.0292 19.1178 29.1928 19.2453 29.3045C19.1133 29.3952 19.0267 29.5471 19.0267 29.7191C19.0267 29.7896 19.0412 29.8564 19.0672 29.9171C19.029 29.9801 19.0088 30.0524 19.0088 30.1261C19.0088 30.2143 19.0376 30.2961 19.0854 30.3629C19.0441 30.3957 19.0169 30.4459 19.0169 30.503C19.0169 30.5645 19.0481 30.6192 19.0955 30.6516C19.0461 30.6836 19.0145 30.7387 19.0145 30.8018C19.0145 30.8132 19.0157 30.8245 19.0178 30.8354C18.9773 30.8682 18.9497 30.918 18.9497 30.9751C18.9498 31.0104 18.9602 31.045 18.9797 31.0744C18.9992 31.1038 19.027 31.1269 19.0595 31.1407L24.3919 26.2172C24.4073 26.1744 24.4121 26.1286 24.406 26.0835C24.3999 26.0385 24.3831 25.9956 24.3569 25.9584C24.3308 25.9212 24.296 25.8909 24.2557 25.87C24.2153 25.8491 24.1705 25.8382 24.1251 25.8382C24.0761 25.8382 24.0299 25.8508 23.9898 25.8723C23.9404 25.7026 23.7837 25.5787 23.5983 25.5787C23.5181 25.5787 23.444 25.6022 23.3809 25.6419C23.3817 25.6313 23.3825 25.6212 23.3825 25.6107C23.3825 25.3325 23.157 25.107 22.8788 25.107C22.8136 25.107 22.7517 25.12 22.6946 25.1426C22.6873 24.9912 22.563 24.8705 22.4112 24.8705C22.2533 24.8705 22.1277 24.9985 22.1277 25.158C22.1277 25.1702 22.1285 25.1823 22.1302 25.1941C22.0585 25.0774 21.9297 24.9993 21.7828 24.9993C21.7593 24.9993 21.7366 25.0017 21.7143 25.0054C21.7111 24.7301 21.4872 24.5078 21.2111 24.5078C21.1827 24.5078 21.1556 24.5106 21.1285 24.5151C21.1151 24.3701 20.9928 24.2567 20.845 24.2567C20.7219 24.2567 20.6175 24.3345 20.577 24.4434C20.5644 24.4426 20.5519 24.4418 20.5389 24.4418C20.4814 24.4418 20.426 24.4503 20.3733 24.4648C20.3243 24.3357 20.1996 24.2434 20.0531 24.2434L20.0555 24.2535ZM18.9137 25.3763C18.8591 25.3763 18.8068 25.3979 18.7683 25.4365C18.7297 25.4751 18.708 25.5274 18.708 25.5819C18.708 25.6435 18.7355 25.6977 18.7781 25.7354C18.7498 25.762 18.7272 25.7941 18.7118 25.8298C18.6964 25.8654 18.6885 25.9039 18.6886 25.9427C18.6886 26.1002 18.8165 26.2261 18.9761 26.2261C19.134 26.2261 19.2635 26.0982 19.2635 25.9427C19.2635 25.8269 19.1947 25.7277 19.0955 25.6828C19.1125 25.6528 19.123 25.6188 19.123 25.5819C19.123 25.4686 19.0311 25.3763 18.9177 25.3763" fill="black"/>
</g>
<defs>
<clipPath id="clip0_880_11556">
<rect width="37.2096" height="37.2096" fill="white" transform="translate(0.164062 0.650391)"/>
</clipPath>
</defs>
</svg>
