<svg width="38" height="38" viewBox="0 0 38 38" fill="none" xmlns="http://www.w3.org/2000/svg">
<g clip-path="url(#clip0_880_11564)">
<path d="M1.92969 19.2667L18.8976 36.2346L35.8683 19.2639C30.2096 13.6116 24.5621 7.94813 18.9004 2.29883L1.92969 19.2667Z" fill="white"/>
<path d="M9.79523 10.1629L0.691406 19.2667L9.7958 28.3711L18.8996 37.4749L28.0052 28.3693L37.1108 19.2637L28.0083 10.1611C23.0021 5.15499 18.9044 1.05859 18.9026 1.05859C18.9007 1.05859 14.8025 5.15563 9.7951 10.1629H9.79523ZM26.566 11.6033L34.2264 19.2637L26.5624 26.9277L18.899 34.5911L11.2392 26.927L3.57949 19.2631L11.2399 11.6027C15.4529 7.38975 18.9008 3.94301 18.9026 3.94301C18.9044 3.94301 22.353 7.39033 26.566 11.6034V11.6033Z" fill="#FF0000"/>
<path d="M20.5376 9.47108C20.5331 9.47159 20.53 9.47643 20.5263 9.48548C20.5233 9.49463 19.9434 11.1475 19.2378 13.1599C18.5322 15.1723 17.9533 16.8216 17.9509 16.8246C17.9436 16.8319 17.8925 16.8134 17.8931 16.8037C17.8936 16.797 19.401 12.107 19.4162 12.0658C19.418 12.0609 19.3729 12.0304 19.2812 11.9758C19.1446 11.8944 19.1285 11.8858 19.1285 11.8955C19.1285 11.904 17.873 16.7981 17.8706 16.8005C17.8693 16.8023 17.8351 16.7943 17.795 16.7828C17.6991 16.7555 17.536 16.7223 17.4303 16.7089C17.3119 16.6943 17.0424 16.6937 16.9355 16.7089C16.4364 16.7788 16.0319 16.9852 15.6791 17.3484C15.4314 17.6034 15.2341 17.9342 15.1296 18.2706C15.1169 18.3107 15.1047 18.3453 15.1024 18.3477C15.0999 18.3501 14.9081 18.2099 14.675 18.0344C14.4418 17.8589 14.2488 17.7161 14.2476 17.7179C14.2464 17.7191 14.2699 17.7673 14.299 17.8256L14.352 17.9316L14.7183 18.1774C15.0723 18.4148 15.0828 18.4235 15.0799 18.4393C15.0768 18.4544 15.0887 18.4691 15.1907 18.5791C15.2413 18.634 15.2921 18.6886 15.3433 18.7429L15.3835 18.7831L15.4911 18.7766L15.5988 18.7702L15.8012 18.9052C15.9123 18.9787 15.9963 19.0326 15.986 19.0241C15.9762 19.0156 15.8957 18.9537 15.8076 18.8875C15.7202 18.8219 15.6524 18.7676 15.6566 18.767C15.6609 18.7664 15.8013 18.7584 15.9683 18.7493L16.2719 18.7333L16.709 18.9534C16.9506 19.0737 17.1506 19.1719 17.1524 19.1719C17.1542 19.1719 17.264 19.041 17.3982 18.8795C17.5324 18.7185 17.6462 18.5823 17.6505 18.5774C17.6571 18.5696 17.6395 18.5236 17.546 18.2947C17.4847 18.1447 17.4355 18.0211 17.4368 18.02C17.438 18.0193 17.5909 18.0352 17.7774 18.0553C17.9638 18.0753 18.1172 18.0909 18.1196 18.089C18.1214 18.0866 18.1459 17.9939 18.1726 17.8834L18.2224 17.6809L18.3734 17.6794C18.4566 17.6787 18.5477 17.6801 18.5775 17.6825L18.6321 17.6874L18.1148 18.2529C17.8294 18.5632 17.5912 18.8244 17.5846 18.8329C17.5615 18.8602 17.7672 18.6542 18.2481 18.1678L18.7221 17.6874L18.8988 17.6841L19.0739 17.6809L19.0434 17.636C19.0197 17.6031 18.9951 17.5709 18.9695 17.5396C18.9464 17.5116 18.9287 17.4874 18.9293 17.4849C18.9305 17.4825 18.9966 17.4137 19.0756 17.3323L19.2185 17.1861L19.2346 17.2198C19.2431 17.2393 19.249 17.2569 19.249 17.26C19.249 17.2698 19.257 17.2667 19.4981 17.1556C19.6226 17.0985 19.727 17.0545 19.7294 17.0576C19.7319 17.06 19.7547 17.1378 19.7808 17.2295C19.8063 17.3212 19.8298 17.3989 19.8322 17.4014C19.8365 17.4062 20.5709 16.8132 20.5922 16.7877C20.5971 16.781 20.6884 16.6149 20.7946 16.4181C20.8635 16.2897 20.9332 16.1617 21.0035 16.0342C21.012 16.0196 21.0158 16.0072 21.0115 16.0085C21.0079 16.0096 20.8567 16.1348 20.6758 16.2848L20.3464 16.5563L20.1102 16.5627C19.9796 16.5658 19.8635 16.5672 19.8531 16.566C19.8355 16.5641 19.9661 16.4313 22.0623 14.315C23.2871 13.0787 24.2907 12.065 24.2907 12.0626C24.2907 12.0601 24.2326 12.0007 24.1621 11.9308C24.0419 11.8106 24.0337 11.8048 24.0239 11.8151C24.0185 11.8206 22.9996 12.9298 21.7603 14.2797L19.5077 16.7347L19.3294 16.8599C19.2316 16.9285 19.1483 16.988 19.1446 16.9917C19.1404 16.9959 19.1451 17.0115 19.1591 17.0431C19.1761 17.0832 19.1776 17.0902 19.1704 17.0993C19.1637 17.1078 18.9292 17.3662 18.8844 17.4142C18.8734 17.4257 18.8729 17.425 18.8201 17.374C18.7175 17.2726 18.6204 17.1945 18.502 17.1138L18.4441 17.0736L19.5607 15.1553C20.4412 13.6426 20.6754 13.236 20.6693 13.2305C20.6657 13.2263 20.608 13.1903 20.5423 13.1502L20.4219 13.0763L20.401 13.1133C20.3901 13.1338 19.9375 14.0279 19.3952 15.099C18.836 16.2054 18.4072 17.0463 18.4024 17.0463C18.3963 17.0463 18.3971 17.0391 18.4056 17.0141C18.4122 16.9972 19.0047 15.3451 19.723 13.343C20.442 11.3409 21.0288 9.7012 21.0276 9.69755C21.0252 9.69205 20.5885 9.488 20.5424 9.47103C20.5406 9.47041 20.5391 9.47082 20.5376 9.47103V9.47108ZM18.322 12.2746L18.2593 12.4305L18.1983 12.5879L18.0794 12.5413C18.0132 12.5152 17.9575 12.4956 17.9557 12.4979C17.9539 12.5004 17.9259 12.6319 17.893 12.7904C17.8609 12.9489 17.8338 13.0837 17.832 13.0892C17.8302 13.0965 17.8569 13.1111 17.9541 13.1567C18.0239 13.1895 18.0828 13.2185 18.0859 13.2209C18.0883 13.2234 18.1181 13.3306 18.1533 13.4587C18.1879 13.5862 18.218 13.6921 18.2192 13.6933C18.2204 13.6945 18.2699 13.6239 18.33 13.5358C18.4442 13.3688 18.4439 13.3694 18.8041 12.9783L18.8233 12.9574L18.7189 12.62L18.6144 12.2827L18.5695 12.2794C18.5445 12.277 18.4791 12.2753 18.4232 12.2746L18.322 12.2746ZM26.6027 13.7736C26.6003 13.7736 26.5964 13.7808 26.5946 13.7881C26.5758 13.8506 26.3833 14.446 26.3809 14.4484C26.3797 14.4502 26.2496 14.4571 26.0917 14.4645L25.8041 14.4773L25.7222 14.5384C25.6773 14.573 25.6399 14.602 25.6387 14.6026C25.6368 14.6044 25.5603 15.094 25.5616 15.0959C25.564 15.0977 26.0096 15.3529 26.0114 15.3529C26.0126 15.3529 26.0936 15.2668 26.1914 15.1617C26.2897 15.0567 26.3711 14.97 26.3729 14.9705C26.3747 14.9705 26.5357 15.0802 26.7312 15.2132L27.0863 15.4542L27.0878 15.3657C27.0885 15.3172 27.0883 15.1191 27.0847 14.9272L27.0782 14.5785L26.842 14.1752C26.7121 13.9542 26.6051 13.7736 26.6027 13.7736ZM20.5601 14.0194L20.5488 14.0339C20.5428 14.0418 20.5064 14.0943 20.4669 14.1495L20.3962 14.2492L20.3513 14.4741C20.327 14.598 20.3063 14.7052 20.3063 14.7119C20.3069 14.7204 20.3578 14.7684 20.4653 14.8613C20.5527 14.9366 20.6255 14.9978 20.6292 14.9978C20.6323 14.9978 20.6871 14.9356 20.7497 14.8597L20.8638 14.7199L20.8895 14.5946C20.9034 14.526 20.918 14.454 20.9216 14.434L20.928 14.397L20.8589 14.2106C20.8213 14.1086 20.7885 14.0235 20.7867 14.021C20.7842 14.0186 20.7586 14.0441 20.7288 14.0757L20.6758 14.1335L20.618 14.0757L20.5601 14.0194ZM24.273 14.352C24.27 14.352 22.9313 15.2945 21.2959 16.4471C19.6606 17.6002 18.3225 18.5441 18.3237 18.5453C18.3243 18.5465 19.6653 17.7168 21.3024 16.7009L24.2779 14.8533V14.601C24.2779 14.4632 24.2755 14.3514 24.273 14.352ZM23.685 15.9908L23.5645 16.1257L23.4424 16.2591L23.3845 16.4149C23.3523 16.5005 23.3261 16.5712 23.3267 16.5724C23.3291 16.5748 24.3878 16.7017 24.3903 16.6993C24.3915 16.6987 24.2327 16.5379 24.0384 16.3442L23.685 15.9908H23.685ZM28.5676 16.084C28.5645 16.0834 26.2063 16.6931 23.3267 17.44C20.4472 18.1868 18.0911 18.7996 18.0923 18.8008C18.0941 18.8026 28.7111 16.3977 28.7154 16.394C28.719 16.3916 28.5724 16.0852 28.5675 16.084H28.5676ZM22.3981 16.8037C22.395 16.8043 21.6103 17.1739 20.6533 17.6263C19.6963 18.0787 18.9085 18.4517 18.9037 18.4554C18.897 18.4602 18.8992 18.4606 18.9101 18.4569C18.9313 18.4497 22.428 17.1006 22.4286 17.0993C22.4292 17.0993 22.4247 17.0329 22.4174 16.9515C22.4101 16.8623 22.4023 16.8037 22.3981 16.8037L22.3981 16.8037ZM29.9846 17.1684C29.9767 17.169 27.3893 17.608 24.2329 18.1437C21.077 18.6787 18.4864 19.1173 18.4779 19.1173C18.4676 19.1179 18.4411 19.0997 18.3943 19.0626L18.3237 19.0064L18.3205 19.2394L18.3172 19.4724L18.1357 19.5961C18.0355 19.6635 17.9504 19.7175 17.9461 19.7182C17.9419 19.7182 17.8651 19.6668 17.7758 19.6025C17.539 19.4313 17.5355 19.4318 17.7614 19.6073C17.8464 19.6735 17.9196 19.7286 17.922 19.731C17.9281 19.7365 17.6365 19.9333 17.628 19.9302C17.6238 19.929 16.9072 19.3185 16.7299 19.1655L16.6898 19.1301L16.3571 19.4177C16.1744 19.5762 16.0222 19.7069 16.0198 19.7069C16.0167 19.7069 15.8285 19.6578 15.602 19.5976L15.1907 19.4884L15.3064 19.4916C15.3702 19.4934 15.4665 19.4946 15.5217 19.4964C15.6171 19.4989 15.3453 19.4785 15.0205 19.4579C14.9603 19.4536 14.6345 19.4315 14.2975 19.4097L13.6837 19.3695L13.6822 19.3518C13.6785 19.3312 13.6809 19.332 13.6275 19.3502C13.5893 19.363 13.5837 19.3623 13.4652 19.355C13.3984 19.3514 13.3292 19.3472 13.311 19.3454L13.2772 19.3406L13.2483 19.2876L13.2194 19.2362L13.0122 19.2249C12.898 19.2188 12.7898 19.2153 12.7728 19.2153H12.7422L12.7149 19.2586L12.6892 19.3036L12.6587 19.3004C12.6417 19.2998 12.0061 19.2593 11.2465 19.2089C10.4868 19.159 9.85503 19.1183 9.84228 19.1189L9.81976 19.1205L9.89045 19.196C9.95179 19.2628 9.9632 19.2729 9.98202 19.2747C9.9942 19.276 10.5952 19.3002 11.3172 19.3293C12.0392 19.3585 12.6328 19.3838 12.6346 19.3856C12.6364 19.3874 12.6073 19.4383 12.5703 19.4997C12.5339 19.5604 12.5046 19.6139 12.5076 19.6169C12.5101 19.6193 12.5982 19.682 12.7021 19.7567L12.89 19.8933L13.0973 19.927C13.2109 19.9464 13.3083 19.9609 13.3126 19.9591C13.3168 19.9579 13.3481 19.9102 13.3833 19.8531L13.4476 19.7487H13.7111V19.7262C13.7111 19.7134 13.7065 19.6412 13.6998 19.5671C13.6931 19.4925 13.6883 19.4308 13.6901 19.429C13.6938 19.4254 15.0015 19.4755 15.0349 19.4804C15.0507 19.4828 15.0542 19.4847 15.0542 19.4981C15.0542 19.5205 15.0861 19.6617 15.1104 19.7455C15.1311 19.8159 15.1312 19.8164 15.1185 19.8194C15.1118 19.8206 13.5027 20.005 11.5437 20.229C9.58471 20.4537 7.98239 20.6388 7.98178 20.6388C7.97998 20.64 7.96712 20.796 7.96892 20.7978C7.97016 20.7984 9.57864 20.5812 11.5437 20.3158C13.5087 20.0504 15.121 19.8338 15.1265 19.8338C15.1332 19.8338 15.1415 19.8469 15.1506 19.8724C15.1585 19.8936 15.1764 19.937 15.1892 19.9704C15.2019 20.0032 15.2113 20.0308 15.21 20.0315C15.2088 20.0321 14.0061 20.2984 12.5366 20.6227C11.0671 20.947 9.86017 21.2157 9.85349 21.2187C9.84321 21.223 9.83693 21.2387 9.823 21.3103C9.81323 21.3577 9.8083 21.3985 9.81015 21.4003C9.81318 21.4027 15.197 20.0765 15.2213 20.0668C15.2249 20.0656 15.2367 20.0825 15.247 20.1037C15.2604 20.1305 15.2631 20.1437 15.2583 20.1455C15.254 20.1467 14.8484 20.2563 14.3553 20.3882L13.4572 20.6259L13.4459 20.7175C13.4392 20.7678 13.4341 20.81 13.4347 20.8107C13.4353 20.8113 13.8542 20.6742 14.365 20.5054C15.2965 20.1981 15.3026 20.1961 15.3032 20.2211C15.3032 20.2247 14.649 20.5808 13.8492 21.0131L12.3936 21.7988L12.3984 21.8566C12.4009 21.8882 12.4024 21.9242 12.4048 21.9369L12.4097 21.9594L13.854 21.1095C14.6489 20.6419 15.3042 20.2556 15.3097 20.2532C15.3175 20.2483 15.329 20.2631 15.3691 20.3287C15.4146 20.404 15.4762 20.4917 15.5394 20.5713C15.5637 20.6029 15.5652 20.6074 15.5555 20.6147C15.55 20.6183 14.7843 21.2296 13.854 21.9723L12.1638 23.3234L12.2827 23.4407C12.3489 23.5051 12.408 23.5598 12.4128 23.5628C12.4201 23.5671 12.6462 23.361 13.4234 22.6487C13.9748 22.1428 14.4264 21.7306 14.4275 21.7313C14.4288 21.7325 14.4202 21.7508 14.4098 21.7714C14.3996 21.7915 14.3922 21.8102 14.3922 21.8132C14.3922 21.8175 14.559 22.0061 14.5979 22.0462C14.6081 22.0565 14.6136 22.055 14.7296 22.0028L14.8501 21.9482L14.9112 22.0092L14.9722 22.0687L15.0927 21.9964L15.2148 21.9225L15.2614 21.7666C15.2875 21.6804 15.3074 21.606 15.308 21.6011C15.308 21.5957 15.2621 21.5631 15.1971 21.5224L15.0879 21.4533L14.9111 21.4501L14.736 21.4469L15.1682 21.05C15.4057 20.8327 15.6008 20.6548 15.602 20.6548C15.6026 20.6548 15.6513 20.7016 15.7097 20.7593C15.768 20.8169 15.8433 20.8868 15.8767 20.9135C16.2818 21.2377 16.742 21.395 17.2376 21.381C17.6268 21.3701 17.973 21.2602 18.3027 21.0453C18.4388 20.9566 18.5243 20.8871 18.6482 20.7657L18.7253 20.6917L19.8805 21.622C20.5168 22.1345 21.0376 22.5529 21.0388 22.5523C21.0395 22.551 21.0092 22.479 20.9697 22.3916L20.899 22.2325L19.8258 21.4453L18.7526 20.6597L18.7735 20.634C18.785 20.6206 18.8161 20.5816 18.841 20.5488C18.8665 20.5166 18.89 20.4903 18.8924 20.4909C18.8955 20.4922 19.5431 20.9977 20.3319 21.614C21.1207 22.2303 21.7758 22.7418 21.7891 22.7515L21.8133 22.7692L21.8823 22.7001C21.9206 22.6618 21.952 22.6286 21.9514 22.6261C21.9502 22.6243 21.2745 22.1338 20.4492 21.5369C19.6245 20.94 18.9445 20.4482 18.939 20.4428C18.9292 20.4337 18.931 20.4289 18.9663 20.3737C18.99 20.3366 19.0064 20.3156 19.0112 20.3174C19.0155 20.3193 19.6286 20.693 20.3737 21.1497C21.1182 21.6057 21.7295 21.9767 21.7313 21.9755C21.7325 21.9737 21.7003 21.9044 21.659 21.8212L21.5834 21.6702L20.3078 20.9697L19.0322 20.2692L19.0756 20.1841C19.0998 20.1373 19.1298 20.0778 19.1414 20.0523L19.1623 20.0058L19.9528 20.2098C20.3875 20.3221 20.744 20.4162 20.7465 20.4186C20.7513 20.4235 20.6907 20.5086 20.6822 20.5086C20.6791 20.5086 20.5717 20.4883 20.446 20.4652C20.3197 20.4416 20.2131 20.4235 20.2082 20.4235C20.2015 20.4235 20.1748 20.466 20.1311 20.5456L20.0636 20.6693L20.2227 20.7866C20.3101 20.8515 20.4205 20.9329 20.4685 20.9681L20.5553 21.0324L21.2011 21.1433C21.5557 21.2039 21.8473 21.2521 21.8486 21.2509C21.8504 21.2491 21.8618 21.0846 21.8679 20.9778L21.8695 20.9408L21.7634 20.8187L21.6574 20.6982L21.5257 20.642C21.4528 20.611 21.3949 20.5848 21.3955 20.5841C21.3961 20.5835 21.8088 20.6888 22.3129 20.8187C22.8169 20.9487 23.2335 21.0549 23.2383 21.0549C23.2426 21.0549 23.2447 21.0531 23.2447 21.05C23.2447 21.0476 23.263 20.9235 23.2849 20.7753C23.3068 20.6272 23.3241 20.5066 23.3234 20.5054C23.3223 20.5048 22.3943 20.3731 21.2605 20.2146C20.1274 20.0561 19.1989 19.925 19.1976 19.9238C19.1964 19.9226 19.2086 19.8804 19.225 19.8306C19.2419 19.7808 19.2555 19.7365 19.2555 19.731C19.2555 19.7243 19.2112 19.7064 19.0964 19.6651L18.9374 19.6089L18.9052 19.5527C18.8876 19.5229 18.8745 19.4966 18.8763 19.4948C18.8775 19.493 19.7691 19.5348 20.8573 19.5864L22.8351 19.6796L22.8511 19.6957L22.8672 19.7133L23.2255 19.7374L23.5821 19.7615L23.603 19.739L23.6239 19.7166L26.1528 19.8371C27.544 19.9026 28.6826 19.955 28.6832 19.9543C28.6844 19.9531 28.6364 19.9168 28.5787 19.8724L28.4743 19.7904L26.0917 19.7166C24.7813 19.6747 23.7059 19.6401 23.701 19.6394C23.6962 19.6382 23.7678 19.5518 23.8729 19.4322C23.9725 19.3192 24.0525 19.2255 24.0513 19.2249C24.0507 19.2237 23.7642 19.0964 23.4151 18.9421C23.0659 18.7879 22.7796 18.6596 22.7772 18.6578C22.7748 18.6565 22.6956 18.7292 22.6021 18.8184L22.4318 18.9807L22.1908 19.0611C22.059 19.1054 21.9494 19.1428 21.9482 19.1446C21.9464 19.1458 21.9703 19.2441 22.0012 19.3631C22.0322 19.4821 22.0544 19.5824 22.0526 19.5848C22.0502 19.5866 21.3347 19.5645 20.462 19.5366C19.5901 19.5093 18.8739 19.4878 18.8715 19.4884C18.8691 19.4884 18.8552 19.4663 18.8394 19.4402C18.812 19.3953 18.8057 19.3886 18.6417 19.2587L18.4714 19.1253L18.5035 19.1205C18.5212 19.1181 21.1139 18.7662 24.265 18.338L29.9942 17.5604L29.9974 17.3645V17.1684H29.9846ZM13.8219 18.1131C13.8217 18.1145 13.8226 18.1167 13.8235 18.1195C13.8259 18.1262 13.8367 18.1559 13.8476 18.1838L13.8685 18.2336L14.818 18.6915C15.3396 18.9429 15.7679 19.1468 15.7691 19.1462C15.7698 19.145 15.3462 18.9184 14.8276 18.6433C14.3097 18.3683 13.8706 18.1357 13.8524 18.126C13.8301 18.1132 13.8225 18.1092 13.8219 18.1131ZM12.988 18.669C12.9862 18.669 12.9457 18.7036 12.8965 18.7462C12.8473 18.7887 12.8089 18.8247 12.8113 18.8265C12.8174 18.8313 15.6418 19.2719 15.6454 19.2683C15.6479 19.2665 12.9984 18.6684 12.988 18.669ZM15.6647 19.2699C15.658 19.2693 15.6542 19.2713 15.6567 19.2731C15.6585 19.2749 15.6637 19.2749 15.6679 19.2731C15.6728 19.2713 15.6714 19.2699 15.6647 19.2699ZM13.3158 19.4081L13.3576 19.4113C13.3801 19.4137 13.4073 19.4155 13.417 19.4161C13.4322 19.4161 13.4303 19.419 13.3993 19.4306C13.3362 19.4549 13.3392 19.4549 13.3271 19.4306L13.3158 19.4081ZM22.6535 19.4884C22.6572 19.4884 22.6862 19.5154 22.7178 19.5495L22.7741 19.6121L22.6712 19.6073C22.6142 19.6049 22.5023 19.6017 22.4222 19.5993C22.342 19.5974 22.2808 19.5931 22.2856 19.5912C22.3014 19.5858 22.6475 19.489 22.6535 19.4884ZM15.6454 19.5012C15.644 19.5019 15.6442 19.5036 15.6454 19.5045C15.6472 19.5063 15.6524 19.5063 15.6567 19.5045C15.6615 19.5026 15.6585 19.5012 15.6519 19.5012C15.6485 19.5009 15.6469 19.5006 15.6454 19.5012ZM11.0167 19.6844C11.0143 19.6838 10.9291 19.7461 10.8271 19.8226L10.6424 19.9591L10.6407 20.0331C10.6389 20.1053 10.6386 20.1078 10.652 20.1102C10.6744 20.1151 11.6653 20.2052 11.6738 20.2034C11.6799 20.2015 11.0289 19.6875 11.0167 19.6844ZM12.249 20.8685C12.249 20.874 12.6205 21.2316 12.6266 21.2316C12.6302 21.2316 12.6921 21.2071 12.7631 21.1786L12.8916 21.1272V20.9022H12.8756C12.8543 20.9022 12.3339 20.8737 12.286 20.8701C12.2647 20.8683 12.249 20.8673 12.249 20.8685ZM10.885 21.8132C10.8832 21.8132 10.8798 21.8176 10.8785 21.8212C10.8767 21.8255 10.8479 21.9228 10.8127 22.0381L10.7484 22.2486L10.7677 22.2759C10.8727 22.4223 11.1336 22.7776 11.1372 22.7788C11.1396 22.7794 11.1518 22.7503 11.1645 22.7145C11.1773 22.6781 11.2039 22.6033 11.224 22.5474L11.2593 22.4462L11.2818 22.443C11.2946 22.4412 11.3465 22.4374 11.3975 22.435L11.4891 22.4317L11.5614 22.353L11.6336 22.2759L11.6722 22.1586C11.6929 22.0949 11.7072 22.0426 11.706 22.0414C11.7023 22.0377 11.364 21.9112 11.3573 21.9112C11.3537 21.9112 11.3291 21.9393 11.3011 21.9739C11.2731 22.0091 11.2459 22.0361 11.2417 22.0349C11.238 22.0337 11.157 21.9842 11.0617 21.924C10.9664 21.8634 10.8868 21.8132 10.885 21.8132Z" fill="black"/>
</g>
<defs>
<clipPath id="clip0_880_11564">
<rect width="37.2096" height="37.2096" fill="white" transform="translate(0.304688 0.650391)"/>
</clipPath>
</defs>
</svg>
