<svg width="38" height="38" viewBox="0 0 38 38" fill="none" xmlns="http://www.w3.org/2000/svg">
<g clip-path="url(#clip0_880_11572)">
<path d="M2.08984 19.4074L19.0577 36.3752L36.0285 19.4045C30.3697 13.7523 24.7222 8.08876 19.0605 2.43945L2.08984 19.4074Z" fill="white"/>
<path d="M9.95538 10.3036L0.851562 19.4074L9.95596 28.5117L19.0598 37.6155L28.1653 28.5099L37.271 19.4043L28.1684 10.3018C23.1622 5.29562 19.0645 1.19922 19.0627 1.19922C19.0609 1.19922 14.9626 5.29626 9.95526 10.3036H9.95538ZM26.7262 11.7439L34.3865 19.4044L26.7232 27.0677L19.0591 34.7318L11.3994 27.0677L3.74029 19.4031L11.4001 11.7434C15.6131 7.53031 19.061 4.08357 19.0629 4.08357C19.0647 4.08357 22.5132 7.53089 26.7262 11.744L26.7262 11.7439Z" fill="#FF0000"/>
<path d="M22.963 15.5977C22.9132 15.5975 22.8629 15.5999 22.8313 15.6057C22.77 15.6173 10.9414 18.7929 10.8989 18.8093C10.5636 18.9411 10.3387 19.3065 10.2706 19.8312C10.2567 19.9374 10.2501 20.1314 10.2562 20.2553C10.2659 20.4563 10.2922 20.6275 10.3413 20.8273C10.5417 21.641 11.048 22.2803 11.5897 22.4018C11.6529 22.4157 11.8013 22.4198 11.8644 22.4082C11.9179 22.3991 23.6393 19.2561 23.7583 19.219C23.9848 19.1486 24.1554 18.9905 24.2805 18.7354C24.3503 18.5939 24.3925 18.457 24.4283 18.2567C24.4568 18.0988 24.4814 18.0309 24.5488 17.9289C24.6307 17.8044 24.7728 17.6983 24.9167 17.6557C24.9404 17.6491 25.5254 17.4923 26.2165 17.3071C26.9075 17.1213 27.4878 16.9621 27.5066 16.9537C27.7859 16.8255 27.8876 16.4175 27.7267 16.0732C27.6381 15.8844 27.4774 15.745 27.3074 15.7085C27.2497 15.6964 27.1616 15.6978 27.1033 15.7117C27.0766 15.7184 26.5011 15.8724 25.8228 16.0539C25.1452 16.2361 24.5751 16.3887 24.5568 16.393C24.535 16.3984 24.4869 16.401 24.417 16.401C24.3004 16.4004 24.2557 16.3927 24.1616 16.3544C24.0438 16.3058 23.9695 16.2466 23.8499 16.107C23.6708 15.8981 23.5091 15.7662 23.3294 15.6812C23.2522 15.6454 23.1693 15.6185 23.0964 15.6057C23.063 15.5999 23.0129 15.5978 22.963 15.5977Z" fill="black"/>
</g>
<defs>
<clipPath id="clip0_880_11572">
<rect width="37.2096" height="37.2096" fill="white" transform="translate(0.464844 0.791016)"/>
</clipPath>
</defs>
</svg>
