<svg width="38" height="38" viewBox="0 0 38 38" fill="none" xmlns="http://www.w3.org/2000/svg">
<g clip-path="url(#clip0_880_11580)">
<path d="M19.2095 37.1162L37.4346 18.8911L19.2095 0.666016L0.984375 18.8911L19.2095 37.1162Z" fill="#FF0000"/>
<path d="M19.2082 34.2251L3.87891 18.8957L19.2082 3.56641L34.5376 18.8957L19.2082 34.2251Z" fill="white"/>
<path d="M11.9297 18.8809H26.1655H11.9297Z" fill="black"/>
<path d="M11.9297 18.8809H26.1655" stroke="black" stroke-width="0.253127"/>
<path d="M24.032 21.4531L25.7017 22.6574L24.1141 23.4219L26.2504 23.6138L25.6753 24.3782H26.8549L26.8822 25.2267L11.9883 25.1454C11.9883 25.1454 14.479 24.4073 14.8891 24.7083C15.4369 24.4617 19.4353 22.7643 19.4353 22.8756M15.6019 21.5604L15.6839 17.237L13.5212 16.0625C13.5212 16.0625 13.1927 15.8433 12.7274 15.9805C12.5629 16.0351 12.3442 16.0898 12.3442 16.0898C12.3442 16.0898 13.5237 15.1041 13.7404 15.1867C13.9596 15.2687 15.4926 16.0078 15.4926 16.0078C15.4926 16.0078 15.328 14.8581 14.9175 14.5295C14.5069 14.201 12.9193 12.9419 12.9193 12.9419V12.6407L15.082 13.955C15.082 13.955 15.164 12.6959 14.7276 11.9568C14.2897 11.2176 13.9632 10.5605 13.9632 10.5605L14.0999 10.4512L15.1681 12.0935L15.5224 10.9696L15.7416 10.9149C15.7416 10.9149 15.4678 12.5025 15.6596 12.9956C15.8515 13.4882 16.5628 16.1713 16.5628 16.1713L17.631 14.6374C17.631 14.6374 17.6583 14.0076 17.6036 13.5692C17.549 13.1313 17.467 11.1053 17.467 11.1053H17.6588L17.96 13.3226L19.6864 11.3245V11.5437C19.6864 11.5437 17.9899 13.6801 18.0719 14.1458C18.1539 14.6111 18.2359 14.8849 17.9352 15.5421C17.6345 16.1992 17.4427 16.6659 17.4427 16.6659C17.4427 16.6659 18.3458 15.5977 18.7569 15.5162C19.1675 15.4889 19.7142 15.5436 20.0974 15.215C20.4807 14.8865 21.4117 13.8481 21.4117 13.8481L19.9608 16.0908C19.9608 16.0908 19.2768 16.1182 19.0034 16.4194C18.7295 16.7206 17.6072 18.007 17.6072 18.007V20.9635L19.4682 21.894L17.1966 22.2226L16.6488 23.0164L15.9097 22.3866L13.8533 22.5757L15.6019 21.5604Z" fill="black"/>
<path d="M24.032 21.4531L25.7017 22.6574L24.1141 23.4219L26.2504 23.6138L25.6753 24.3782H26.8549L26.8822 25.2267L11.9883 25.1454C11.9883 25.1454 14.479 24.4073 14.8891 24.7083C15.4369 24.4617 19.4353 22.7643 19.4353 22.8756M15.6019 21.5604L15.6839 17.237L13.5212 16.0625C13.5212 16.0625 13.1927 15.8433 12.7274 15.9805C12.5629 16.0351 12.3442 16.0898 12.3442 16.0898C12.3442 16.0898 13.5237 15.1041 13.7404 15.1867C13.9596 15.2687 15.4926 16.0078 15.4926 16.0078C15.4926 16.0078 15.328 14.8581 14.9175 14.5295C14.5069 14.201 12.9193 12.9419 12.9193 12.9419V12.6407L15.082 13.955C15.082 13.955 15.164 12.6959 14.7276 11.9568C14.2897 11.2176 13.9632 10.5605 13.9632 10.5605L14.0999 10.4512L15.1681 12.0935L15.5224 10.9696L15.7416 10.9149C15.7416 10.9149 15.4678 12.5025 15.6596 12.9956C15.8515 13.4882 16.5628 16.1713 16.5628 16.1713L17.631 14.6374C17.631 14.6374 17.6583 14.0076 17.6036 13.5692C17.549 13.1313 17.467 11.1053 17.467 11.1053H17.6588L17.96 13.3226L19.6864 11.3245V11.5437C19.6864 11.5437 17.9899 13.6801 18.0719 14.1458C18.1539 14.6111 18.2359 14.8849 17.9352 15.5421C17.6345 16.1992 17.4427 16.6659 17.4427 16.6659C17.4427 16.6659 18.3458 15.5977 18.7569 15.5162C19.1675 15.4889 19.7142 15.5436 20.0974 15.215C20.4807 14.8865 21.4117 13.8481 21.4117 13.8481L19.9608 16.0908C19.9608 16.0908 19.2768 16.1182 19.0034 16.4194C18.7295 16.7206 17.6072 18.007 17.6072 18.007V20.9635L19.4682 21.894L17.1966 22.2226L16.6488 23.0164L15.9097 22.3866L13.8533 22.5757L15.6019 21.5604Z" stroke="black" stroke-width="0.202501"/>
<path d="M18.5852 22.8247C19.1061 22.6075 19.9521 22.2496 20.4462 21.5378C20.9575 20.8017 22.7729 17.7055 25.2657 17.9536C25.129 18.2821 24.6906 18.9939 24.6906 18.9939L26.4676 18.4461C26.4676 18.4461 26.4949 20.8002 23.1278 22.3038C21.5675 22.8516 21.2395 22.8789 21.1028 23.0682C20.9661 23.2601 20.3384 24.2179 20.3384 24.2179L17.5469 22.9877C17.5469 22.9877 18.2587 22.9617 18.5852 22.825V22.8247Z" fill="white" stroke="black" stroke-width="0.253127"/>
<path d="M25.1215 20.0819C25.2879 20.0819 25.4228 19.9656 25.4228 19.8222C25.4228 19.6788 25.2879 19.5625 25.1215 19.5625C24.9552 19.5625 24.8203 19.6788 24.8203 19.8222C24.8203 19.9656 24.9552 20.0819 25.1215 20.0819Z" fill="black"/>
</g>
<defs>
<clipPath id="clip0_880_11580">
<rect width="37.2096" height="37.2096" fill="white" transform="translate(0.605469 0.291016)"/>
</clipPath>
</defs>
</svg>
