
<svg width="286" height="141" viewBox="0 0 286 141" fill="none" xmlns="http://www.w3.org/2000/svg">
<g clip-path="url(#clip0_176_3917)">
<path d="M12.8703 56.6059V67.2022H30.2061V72.191H12.8703V87.9866H8V51.6172H32.0357V56.6059H12.8703Z" fill="#3EA448"/>
<path d="M38.168 72.7249V51.6641H42.9725V72.7249C42.9725 79.2406 46.7897 83.9003 52.1866 83.9003C57.5834 83.9003 61.4007 79.2406 61.4007 72.7249V51.6641H66.2579V72.7249C66.2579 82.0575 60.4003 88.6785 52.2129 88.6785C44.0255 88.6785 38.168 82.0707 38.168 72.7249Z" fill="#3EA448"/>
<path d="M83.2426 56.6059H72.541V51.6172H98.8671V56.6059H88.1129V88.0393H83.2952L83.2426 56.6059Z" fill="#3EA448"/>
<path d="M105.088 72.7249V51.6641H109.892V72.7249C109.892 79.2406 113.697 83.9003 119.107 83.9003C124.517 83.9003 128.321 79.2406 128.321 72.7249V51.6641H133.178V72.7249C133.178 82.0707 127.386 88.6521 119.133 88.6521C110.88 88.6521 105.088 82.0707 105.088 72.7249Z" fill="#3EA448"/>
<path d="M158.588 74.8309L166.921 87.9939H161.405L153.402 75.3179H145.886V87.9939H141.068V51.6113H154.837C156.423 51.5465 158.007 51.8065 159.489 52.3751C160.972 52.9438 162.322 53.8093 163.459 54.9185C164.595 56.0277 165.493 57.3571 166.097 58.8255C166.702 60.2939 167 61.8703 166.973 63.458C167.046 66.0178 166.261 68.5284 164.741 70.5896C163.221 72.6508 161.055 74.1439 158.588 74.8309ZM145.886 70.3818H154.166C158.878 70.3818 162.063 67.7492 162.063 63.4843C162.063 59.2195 158.878 56.6 154.166 56.6H145.886V70.3818Z" fill="#3EA448"/>
<path d="M177.869 56.6059V66.9916H195.191V71.9673H177.869V83.0505H197.047V88.0393H173.012V51.6172H197.047V56.6059H177.869Z" fill="#3EA448"/>
<path d="M215.152 37.3957L203.186 89.2648C202.493 92.2683 204.366 95.2648 207.37 95.9577L259.239 107.923C262.242 108.616 265.239 106.743 265.932 103.739L277.897 51.8702C278.59 48.8667 276.717 45.8702 273.713 45.1774L221.844 33.212C218.841 32.5191 215.844 34.3923 215.152 37.3957Z" fill="#3EA448"/>
<path d="M211.493 60.0263V66.8316H228.17V75.2954H211.493V89.551H203.016V51.5625H229.855V60.0263H211.493Z" fill="white"/>
<path d="M235.064 51.5625H243.555V89.551H235.064V51.5625Z" fill="white"/>
<path d="M258.55 60.0263H248.178V51.5625H277.36V60.0263H267.04V89.551H258.55V60.0263Z" fill="white"/>
</g>
<defs>
<clipPath id="clip0_176_3917">
<rect width="270" height="74.9898" fill="white" transform="translate(8 33.0078)"/>
</clipPath>
</defs>
</svg>
