<svg width="318" height="371" viewBox="0 0 318 371" fill="none" xmlns="http://www.w3.org/2000/svg">
<rect width="318" height="371" fill="white"/>
<g clip-path="url(#clip0_1364_7748)">
<path d="M98.9657 31.0047L127.275 68.9283L108.42 112.407L61.3092 117.748L33 79.611L51.8016 36.1324L98.9657 30.791M55.3803 64.762L35.6707 79.611L58.1044 89.3322L63.7128 76.3528L55.3803 64.762ZM51.9618 40.2452L35.9377 76.8869L54.6859 63.5869L51.9618 40.2452ZM36.5253 81.6407L60.4011 113.689L57.7839 90.7744L36.5253 81.6407ZM75.8911 48.097L53.671 38.5894L56.4485 62.8391L70.4429 61.2367L75.8911 48.097ZM95.6007 32.8207L55.8076 37.4677L77.173 46.6014L95.6007 32.8207ZM64.3537 74.2696L69.6951 62.8391L57.3032 64.2813L64.3537 74.2696ZM62.1638 115.238L81.9802 100.976L73.5409 89.6527L59.5465 91.2017L62.1638 115.238ZM59.867 89.172L103.025 84.258L77.1196 49.2721L59.867 89.172ZM64.5674 115.879L104.307 111.339L82.9417 102.098L64.5674 115.879ZM75.2501 89.172L82.728 99.1603L87.6421 87.7298L75.2501 89.172ZM100.408 57.6046L97.6838 33.248L78.2413 47.9902L86.734 59.3673L100.408 57.6046ZM84.1168 100.335L107.085 110.377L104.254 86.0206L90.2593 87.7298L84.1168 100.335ZM87.5886 60.5958L95.0665 70.6909L99.9806 59.207L87.5886 60.5958ZM96.4019 72.6138L104.841 83.9909L124.444 69.409L102.01 59.6877L96.4019 72.6138ZM123.589 67.2725L99.7135 35.2243L102.331 58.2456L123.589 67.2725ZM108.206 108.615L124.23 71.9729L105.642 85.7535L108.206 108.615Z" fill="white"/>
<path d="M169.792 95.3066V68.2794H179.086V111.918H169.471L152.058 85.1581V111.918H142.711V69.134L152.165 68.1191L169.792 95.3066Z" fill="white"/>
<path d="M186.676 101.83C188.724 102.724 190.852 103.421 193.032 103.913C194.94 104.372 196.892 104.622 198.854 104.661C200.712 104.814 202.573 104.404 204.195 103.486C204.745 103.084 205.184 102.551 205.474 101.935C205.763 101.319 205.893 100.64 205.851 99.9604C205.881 99.2544 205.741 98.5515 205.444 97.9104C205.146 97.2693 204.7 96.7085 204.142 96.2749C202.544 95.0823 200.73 94.2115 198.801 93.711L193.459 91.6279C191.872 90.9783 190.381 90.1158 189.026 89.0641C187.777 88.063 186.757 86.8064 186.035 85.3785C185.228 83.7153 184.826 81.8853 184.86 80.0372C184.852 78.1732 185.311 76.3369 186.195 74.6958C187.023 73.1364 188.213 71.799 189.667 70.7966C191.296 69.719 193.105 68.9412 195.008 68.4999C197.126 67.9988 199.295 67.7478 201.471 67.7521C203.809 67.7454 206.14 68.0143 208.415 68.5533C210.376 68.9852 212.304 69.5564 214.184 70.2625L212.368 77.687C210.47 76.9944 208.524 76.441 206.546 76.0312C204.783 75.7075 202.996 75.5288 201.204 75.497C199.522 75.4124 197.851 75.8208 196.397 76.6721C195.793 77.0325 195.299 77.5518 194.969 78.1733C194.64 78.7949 194.487 79.495 194.527 80.1974C194.51 80.9351 194.756 81.6549 195.222 82.2271C195.687 82.8677 196.289 83.3968 196.985 83.7761C197.873 84.2946 198.802 84.7412 199.762 85.1115L203.394 86.3934C205.04 86.9835 206.645 87.6794 208.201 88.4765C209.575 89.2215 210.849 90.1368 211.994 91.2006C213.027 92.2519 213.859 93.4828 214.451 94.8327C215.074 96.3389 215.383 97.9566 215.359 99.5865C215.437 101.39 215.113 103.188 214.411 104.851C213.709 106.513 212.646 107.999 211.299 109.201C207.997 111.843 203.819 113.14 199.602 112.833C198.208 112.847 196.816 112.758 195.436 112.566C193.993 112.566 192.658 112.192 191.323 111.925L187.477 110.91C186.423 110.556 185.389 110.146 184.379 109.682L186.462 102.097" fill="white"/>
<path d="M247.291 111.658L244.139 101.349H229.931L226.833 111.658H216.738L231.267 68.927L242.484 67.752L257.386 111.658H247.291ZM232.015 93.978H241.789L236.822 77.6869L232.015 93.978Z" fill="white"/>
<path d="M270.527 68.1191V111.918H261.18V69.134L270.527 68.1191Z" fill="white"/>
<path d="M149.826 131.148L156.022 148.187H153.992L152.283 143.38H144.912L143.203 148.187H141.227L147.476 131.148H149.826ZM148.704 133.499L145.767 141.831H151.642L148.704 133.499Z" fill="white"/>
<path d="M160.5 146.421H165.04C168.352 146.421 169.153 148.718 168.833 150.48C168.512 152.243 166.215 154.38 162.263 154.38C159.485 154.38 156.921 153.205 156.921 150.961C156.891 150.256 157.066 149.557 157.427 148.95C157.787 148.342 158.317 147.854 158.951 147.543C158.667 147.297 158.456 146.977 158.343 146.619C158.23 146.26 158.219 145.878 158.31 145.513C158.416 144.961 158.72 144.467 159.165 144.124C158.463 143.758 157.886 143.192 157.506 142.498C157.126 141.804 156.959 141.013 157.028 140.225C157.028 136.7 158.844 135.258 162.37 135.258C163.37 135.224 164.362 135.445 165.254 135.899L167.444 133.121L168.726 134.617L166.162 136.753C166.872 137.565 167.253 138.613 167.23 139.691C167.23 143.216 165.361 144.658 161.889 144.658C161.356 144.716 160.819 144.716 160.286 144.658C160.112 144.949 160.02 145.281 160.02 145.62C160.02 145.959 160.112 146.291 160.286 146.581M162.423 153.044C164.186 153.044 166.322 152.297 166.749 150.908C167.177 149.519 166.429 148.237 164.453 148.237H159.966C159.58 148.585 159.279 149.015 159.085 149.496C158.89 149.978 158.808 150.497 158.844 151.015C158.844 151.869 159.485 153.044 162.53 153.044M165.841 139.691C165.841 137.768 165.254 136.646 162.69 136.646C160.126 136.646 159.218 137.875 159.218 140.225C159.218 142.575 159.806 143.27 162.37 143.27C164.933 143.27 165.841 142.041 165.841 139.691Z" fill="white"/>
<path d="M177.116 137.024C175.7 136.974 174.286 137.192 172.95 137.665V148.348H171.188V135.529H173.004V136.544C174.194 135.711 175.611 135.264 177.063 135.262V137.024" fill="white"/>
<path d="M188.427 147.71C187.138 148.229 185.757 148.484 184.368 148.458C180.522 148.458 178.492 146.909 178.492 141.835C178.492 137.562 180.415 135.265 183.834 135.265C187.252 135.265 189.175 137.295 189.175 140.606C189.22 141.033 189.22 141.462 189.175 141.888H180.308C180.308 145.788 181.857 146.802 184.368 146.802C185.608 146.816 186.839 146.599 188 146.161L188.427 147.604M180.362 140.339H187.199C187.199 137.989 186.077 136.707 183.887 136.707C181.697 136.707 180.629 137.669 180.308 140.339M182.765 132.327L186.397 128.855L187.572 130.298L183.727 133.289L182.765 132.327Z" fill="white"/>
<path d="M193.554 137.666V148.349H191.738V135.53H193.554V136.545C194.667 135.719 196.015 135.27 197.4 135.263C198.077 135.189 198.762 135.298 199.383 135.58C200.003 135.862 200.536 136.306 200.925 136.865C202.28 135.879 203.898 135.321 205.572 135.263C206.156 135.2 206.746 135.271 207.298 135.471C207.85 135.671 208.349 135.995 208.756 136.418C209.164 136.841 209.469 137.351 209.648 137.91C209.828 138.469 209.877 139.062 209.792 139.643V148.189H208.029V140.391C208.029 138.361 207.335 136.812 205.198 136.812C203.843 136.807 202.512 137.177 201.353 137.88C201.445 138.464 201.445 139.059 201.353 139.643V148.189H199.59V140.391C199.59 138.361 198.949 136.812 196.813 136.812C195.568 136.799 194.339 137.092 193.234 137.666" fill="white"/>
<path d="M222.51 147.707C221.222 148.23 219.841 148.485 218.451 148.455C214.659 148.455 212.629 146.906 212.629 141.832C212.629 137.559 214.552 135.262 217.97 135.262C221.389 135.262 223.045 137.291 223.045 140.603C223.045 140.87 223.045 141.404 223.045 141.885H214.392C214.392 145.784 215.941 146.799 218.451 146.799C219.708 146.813 220.958 146.596 222.137 146.158C222.236 146.645 222.361 147.126 222.51 147.6M214.445 140.443H221.389C221.389 138.093 220.214 136.811 218.077 136.811C215.941 136.811 214.765 137.772 214.445 140.443Z" fill="white"/>
<path d="M227.638 137.665V148.348H225.875V135.529H227.638V136.544C228.847 135.71 230.281 135.263 231.75 135.262C234.528 135.262 235.863 136.757 235.863 139.642V148.188H234.207V140.389C234.207 138.36 233.62 136.811 231.483 136.811C230.154 136.804 228.839 137.096 227.638 137.665Z" fill="white"/>
<path d="M242.065 131.475V135.534H245.59V137.03H242.332V145.309C242.315 145.528 242.346 145.749 242.424 145.954C242.502 146.16 242.625 146.346 242.783 146.499C242.941 146.652 243.131 146.769 243.339 146.84C243.547 146.911 243.769 146.935 243.988 146.911C244.572 146.994 245.166 146.994 245.75 146.911V148.353C245.004 148.418 244.253 148.418 243.507 148.353C243.075 148.407 242.638 148.36 242.227 148.217C241.817 148.074 241.445 147.839 241.14 147.529C240.835 147.219 240.606 146.843 240.47 146.43C240.334 146.017 240.295 145.579 240.355 145.148V137.03H238.059V135.534H240.355V131.742L242.118 131.475" fill="white"/>
</g>
<rect width="314" height="183" transform="translate(2 2)" fill="#007736"/>
<g clip-path="url(#clip1_1364_7748)">
<path d="M98.9657 31.0047L127.275 68.9283L108.42 112.407L61.3092 117.748L33 79.611L51.8016 36.1324L98.9657 30.791M55.3803 64.762L35.6707 79.611L58.1044 89.3322L63.7128 76.3528L55.3803 64.762ZM51.9618 40.2452L35.9377 76.8869L54.6859 63.5869L51.9618 40.2452ZM36.5253 81.6407L60.4011 113.689L57.7839 90.7744L36.5253 81.6407ZM75.8911 48.097L53.671 38.5894L56.4485 62.8391L70.4429 61.2367L75.8911 48.097ZM95.6007 32.8207L55.8076 37.4677L77.173 46.6014L95.6007 32.8207ZM64.3537 74.2696L69.6951 62.8391L57.3032 64.2813L64.3537 74.2696ZM62.1638 115.238L81.9802 100.976L73.5409 89.6527L59.5465 91.2017L62.1638 115.238ZM59.867 89.172L103.025 84.258L77.1196 49.2721L59.867 89.172ZM64.5674 115.879L104.307 111.339L82.9417 102.098L64.5674 115.879ZM75.2501 89.172L82.728 99.1603L87.6421 87.7298L75.2501 89.172ZM100.408 57.6046L97.6838 33.248L78.2413 47.9902L86.734 59.3673L100.408 57.6046ZM84.1168 100.335L107.085 110.377L104.254 86.0206L90.2593 87.7298L84.1168 100.335ZM87.5886 60.5958L95.0665 70.6909L99.9806 59.207L87.5886 60.5958ZM96.4019 72.6138L104.841 83.9909L124.444 69.409L102.01 59.6877L96.4019 72.6138ZM123.589 67.2725L99.7135 35.2243L102.331 58.2456L123.589 67.2725ZM108.206 108.615L124.23 71.9729L105.642 85.7535L108.206 108.615Z" fill="white"/>
<path d="M169.792 95.3066V68.2794H179.086V111.918H169.471L152.058 85.1581V111.918H142.711V69.134L152.165 68.1191L169.792 95.3066Z" fill="white"/>
<path d="M186.676 101.83C188.724 102.724 190.852 103.421 193.032 103.913C194.94 104.372 196.892 104.622 198.854 104.661C200.712 104.814 202.573 104.404 204.195 103.486C204.745 103.084 205.184 102.551 205.474 101.935C205.763 101.319 205.893 100.64 205.851 99.9604C205.881 99.2544 205.741 98.5515 205.444 97.9104C205.146 97.2693 204.7 96.7085 204.142 96.2749C202.544 95.0823 200.73 94.2115 198.801 93.711L193.459 91.6279C191.872 90.9783 190.381 90.1158 189.026 89.0641C187.777 88.063 186.757 86.8064 186.035 85.3785C185.228 83.7153 184.826 81.8853 184.86 80.0372C184.852 78.1732 185.311 76.3369 186.195 74.6958C187.023 73.1364 188.213 71.799 189.667 70.7966C191.296 69.719 193.105 68.9412 195.008 68.4999C197.126 67.9988 199.295 67.7478 201.471 67.7521C203.809 67.7454 206.14 68.0143 208.415 68.5533C210.376 68.9852 212.304 69.5564 214.184 70.2625L212.368 77.687C210.47 76.9944 208.524 76.441 206.546 76.0312C204.783 75.7075 202.996 75.5288 201.204 75.497C199.522 75.4124 197.851 75.8208 196.397 76.6721C195.793 77.0325 195.299 77.5518 194.969 78.1733C194.64 78.7949 194.487 79.495 194.527 80.1974C194.51 80.9351 194.756 81.6549 195.222 82.2271C195.687 82.8677 196.289 83.3968 196.985 83.7761C197.873 84.2946 198.802 84.7412 199.762 85.1115L203.394 86.3934C205.04 86.9835 206.645 87.6794 208.201 88.4765C209.575 89.2215 210.849 90.1368 211.994 91.2006C213.027 92.2519 213.859 93.4828 214.451 94.8327C215.074 96.3389 215.383 97.9566 215.359 99.5865C215.437 101.39 215.113 103.188 214.411 104.851C213.709 106.513 212.646 107.999 211.299 109.201C207.997 111.843 203.819 113.14 199.602 112.833C198.208 112.847 196.816 112.758 195.436 112.566C193.993 112.566 192.658 112.192 191.323 111.925L187.477 110.91C186.423 110.556 185.389 110.146 184.379 109.682L186.462 102.097" fill="white"/>
<path d="M247.291 111.658L244.139 101.349H229.931L226.833 111.658H216.738L231.267 68.927L242.484 67.752L257.386 111.658H247.291ZM232.015 93.978H241.789L236.822 77.6869L232.015 93.978Z" fill="white"/>
<path d="M270.527 68.1191V111.918H261.18V69.134L270.527 68.1191Z" fill="white"/>
<path d="M149.826 131.148L156.022 148.187H153.992L152.283 143.38H144.912L143.203 148.187H141.227L147.476 131.148H149.826ZM148.704 133.499L145.767 141.831H151.642L148.704 133.499Z" fill="white"/>
<path d="M160.5 146.421H165.04C168.352 146.421 169.153 148.718 168.833 150.48C168.512 152.243 166.215 154.38 162.263 154.38C159.485 154.38 156.921 153.205 156.921 150.961C156.891 150.256 157.066 149.557 157.427 148.95C157.787 148.342 158.317 147.854 158.951 147.543C158.667 147.297 158.456 146.977 158.343 146.619C158.23 146.26 158.219 145.878 158.31 145.513C158.416 144.961 158.72 144.467 159.165 144.124C158.463 143.758 157.886 143.192 157.506 142.498C157.126 141.804 156.959 141.013 157.028 140.225C157.028 136.7 158.844 135.258 162.37 135.258C163.37 135.224 164.362 135.445 165.254 135.899L167.444 133.121L168.726 134.617L166.162 136.753C166.872 137.565 167.253 138.613 167.23 139.691C167.23 143.216 165.361 144.658 161.889 144.658C161.356 144.716 160.819 144.716 160.286 144.658C160.112 144.949 160.02 145.281 160.02 145.62C160.02 145.959 160.112 146.291 160.286 146.581M162.423 153.044C164.186 153.044 166.322 152.297 166.749 150.908C167.177 149.519 166.429 148.237 164.453 148.237H159.966C159.58 148.585 159.279 149.015 159.085 149.496C158.89 149.978 158.808 150.497 158.844 151.015C158.844 151.869 159.485 153.044 162.53 153.044M165.841 139.691C165.841 137.768 165.254 136.646 162.69 136.646C160.126 136.646 159.218 137.875 159.218 140.225C159.218 142.575 159.806 143.27 162.37 143.27C164.933 143.27 165.841 142.041 165.841 139.691Z" fill="white"/>
<path d="M177.116 137.024C175.7 136.974 174.286 137.192 172.95 137.665V148.348H171.188V135.529H173.004V136.544C174.194 135.711 175.611 135.264 177.063 135.262V137.024" fill="white"/>
<path d="M188.427 147.71C187.138 148.229 185.757 148.484 184.368 148.458C180.522 148.458 178.492 146.909 178.492 141.835C178.492 137.562 180.415 135.265 183.834 135.265C187.252 135.265 189.175 137.295 189.175 140.606C189.22 141.033 189.22 141.462 189.175 141.888H180.308C180.308 145.788 181.857 146.802 184.368 146.802C185.608 146.816 186.839 146.599 188 146.161L188.427 147.604M180.362 140.339H187.199C187.199 137.989 186.077 136.707 183.887 136.707C181.697 136.707 180.629 137.669 180.308 140.339M182.765 132.327L186.397 128.855L187.572 130.298L183.727 133.289L182.765 132.327Z" fill="white"/>
<path d="M193.554 137.666V148.349H191.738V135.53H193.554V136.545C194.667 135.719 196.015 135.27 197.4 135.263C198.077 135.189 198.762 135.298 199.383 135.58C200.003 135.862 200.536 136.306 200.925 136.865C202.28 135.879 203.898 135.321 205.572 135.263C206.156 135.2 206.746 135.271 207.298 135.471C207.85 135.671 208.349 135.995 208.756 136.418C209.164 136.841 209.469 137.351 209.648 137.91C209.828 138.469 209.877 139.062 209.792 139.643V148.189H208.029V140.391C208.029 138.361 207.335 136.812 205.198 136.812C203.843 136.807 202.512 137.177 201.353 137.88C201.445 138.464 201.445 139.059 201.353 139.643V148.189H199.59V140.391C199.59 138.361 198.949 136.812 196.813 136.812C195.568 136.799 194.339 137.092 193.234 137.666" fill="white"/>
<path d="M222.51 147.707C221.222 148.23 219.841 148.485 218.451 148.455C214.659 148.455 212.629 146.906 212.629 141.832C212.629 137.559 214.552 135.262 217.97 135.262C221.389 135.262 223.045 137.291 223.045 140.603C223.045 140.87 223.045 141.404 223.045 141.885H214.392C214.392 145.784 215.941 146.799 218.451 146.799C219.708 146.813 220.958 146.596 222.137 146.158C222.236 146.645 222.361 147.126 222.51 147.6M214.445 140.443H221.389C221.389 138.093 220.214 136.811 218.077 136.811C215.941 136.811 214.765 137.772 214.445 140.443Z" fill="white"/>
<path d="M227.638 137.665V148.348H225.875V135.529H227.638V136.544C228.847 135.71 230.281 135.263 231.75 135.262C234.528 135.262 235.863 136.757 235.863 139.642V148.188H234.207V140.389C234.207 138.36 233.62 136.811 231.483 136.811C230.154 136.804 228.839 137.096 227.638 137.665Z" fill="white"/>
<path d="M242.065 131.475V135.534H245.59V137.03H242.332V145.309C242.315 145.528 242.346 145.749 242.424 145.954C242.502 146.16 242.625 146.346 242.783 146.499C242.941 146.652 243.131 146.769 243.339 146.84C243.547 146.911 243.769 146.935 243.988 146.911C244.572 146.994 245.166 146.994 245.75 146.911V148.353C245.004 148.418 244.253 148.418 243.507 148.353C243.075 148.407 242.638 148.36 242.227 148.217C241.817 148.074 241.445 147.839 241.14 147.529C240.835 147.219 240.606 146.843 240.47 146.43C240.334 146.017 240.295 145.579 240.355 145.148V137.03H238.059V135.534H240.355V131.742L242.118 131.475" fill="white"/>
</g>
<rect x="2.5" y="185.5" width="313" height="182" stroke="#007736"/>
<path d="M11.8211 260.589L17.5737 253.933H20.0721L14.5294 260.232L20.429 268H17.8257L13.1648 261.66L11.8211 263.171V268H9.80557V253.933H11.8211V260.589ZM29.4566 266.089L29.8135 267.538C28.7847 267.979 27.672 268.21 26.3283 268.21C23.2001 268.21 21.3315 267.013 21.3315 262.793C21.3315 259.203 23.0111 257.293 26.0344 257.293C29.0367 257.293 30.4013 258.993 30.4013 261.869C30.4013 262.037 30.3804 262.646 30.2754 263.066H23.284C23.326 266.005 24.5857 266.614 26.4543 266.614C27.4201 266.614 28.6588 266.383 29.4566 266.089ZM26.0134 258.909C24.5857 258.909 23.578 259.644 23.326 261.597H28.4488C28.4068 259.833 27.588 258.909 26.0134 258.909ZM35.315 253.094V268H33.3625V253.303L35.315 253.094ZM40.7688 253.094V268H38.8162V253.303L40.7688 253.094ZM46.4115 257.502V268H44.459V257.502H46.4115ZM44.228 254.836C44.228 254.164 44.7739 253.618 45.4457 253.618C46.0966 253.618 46.6425 254.164 46.6425 254.836C46.6425 255.487 46.0966 256.033 45.4457 256.033C44.7739 256.033 44.228 255.487 44.228 254.836ZM54.9832 258.909C53.7235 258.909 52.8207 259.266 52.1489 259.539V268H50.1964V253.303L52.1489 253.094V258.321H52.2539C53.3456 257.607 54.4164 257.293 55.5711 257.293C57.7126 257.293 58.9513 258.447 58.9513 260.757V268H56.9987V261.282C56.9987 259.938 56.4319 258.909 54.9832 258.909ZM69.8679 266.089L70.2248 267.538C69.196 267.979 68.0833 268.21 66.7396 268.21C63.6113 268.21 61.7428 267.013 61.7428 262.793C61.7428 259.203 63.4224 257.293 66.4457 257.293C69.448 257.293 70.8126 258.993 70.8126 261.869C70.8126 262.037 70.7916 262.646 70.6867 263.066H63.6953C63.7373 266.005 64.997 266.614 66.8656 266.614C67.8313 266.614 69.0701 266.383 69.8679 266.089ZM66.4247 258.909C64.997 258.909 63.9893 259.644 63.7373 261.597H68.8601C68.8181 259.833 67.9993 258.909 66.4247 258.909ZM79.3794 257.293V259.077C77.7628 259.056 76.5661 259.287 75.9152 259.581V268H73.9627V257.502H75.9152V258.321H76.0202C77.028 257.649 78.0987 257.23 79.3794 257.293ZM81.537 266.047C82.2718 266.32 83.6365 266.614 84.5603 266.614C85.8829 266.614 86.9117 266.194 86.9117 265.145C86.9117 264.011 85.757 263.696 84.4133 263.36C82.7127 262.961 81.264 262.205 81.264 260.274C81.264 258.132 82.8387 257.293 85.3371 257.293C86.3028 257.293 87.5206 257.586 88.3394 257.859L87.9824 259.476C87.0167 259.119 86.0299 258.909 85.2531 258.909C83.9304 258.909 83.2166 259.371 83.2166 260.211C83.2166 261.324 84.4763 261.534 85.61 261.848C87.2896 262.289 88.8642 262.856 88.8642 264.998C88.8642 267.265 86.9537 268.21 84.4973 268.21C83.5525 268.21 82.1038 267.958 81.2011 267.664L81.537 266.047ZM98.9176 259.854H104.04V261.597H98.9176V266.278H105.363V268H96.9021V253.933H105.279V255.676H98.9176V259.854ZM110.479 253.094V268H108.526V253.303L110.479 253.094ZM121.412 266.089L121.769 267.538C120.74 267.979 119.628 268.21 118.284 268.21C115.156 268.21 113.287 267.013 113.287 262.793C113.287 259.203 114.967 257.293 117.99 257.293C120.992 257.293 122.357 258.993 122.357 261.869C122.357 262.037 122.336 262.646 122.231 263.066H115.24C115.282 266.005 116.541 266.614 118.41 266.614C119.376 266.614 120.614 266.383 121.412 266.089ZM117.969 258.909C116.541 258.909 115.534 259.644 115.282 261.597H120.404C120.362 259.833 119.544 258.909 117.969 258.909ZM132.75 259.539C132.016 259.224 130.756 258.909 129.601 258.909C127.313 258.909 126.662 260.379 126.662 262.961C126.662 265.25 127.145 266.614 129.517 266.614C130.567 266.614 131.806 266.404 132.645 266.089L132.96 267.58C132.121 268 130.504 268.21 129.139 268.21C126.2 268.21 124.625 266.635 124.625 262.961C124.625 259.287 125.99 257.293 129.559 257.293C130.609 257.293 132.225 257.502 133.065 258.027L132.75 259.539ZM138.17 254.143V257.502H141.109L140.899 259.056H138.17V265.397C138.17 266.362 138.925 266.614 139.45 266.614C139.744 266.614 140.08 266.635 141.046 266.446L141.277 267.937C140.605 268.042 139.849 268.21 139.093 268.21C137.414 268.21 136.217 267.391 136.217 265.523V259.056H134.474V257.502H136.217V254.353L138.17 254.143ZM145.83 257.502V268H143.878V257.502H145.83ZM143.647 254.836C143.647 254.164 144.193 253.618 144.864 253.618C145.515 253.618 146.061 254.164 146.061 254.836C146.061 255.487 145.515 256.033 144.864 256.033C144.193 256.033 143.647 255.487 143.647 254.836ZM157.005 259.539C156.271 259.224 155.011 258.909 153.856 258.909C151.568 258.909 150.917 260.379 150.917 262.961C150.917 265.25 151.4 266.614 153.772 266.614C154.822 266.614 156.061 266.404 156.9 266.089L157.215 267.58C156.376 268 154.759 268.21 153.394 268.21C150.455 268.21 148.88 266.635 148.88 262.961C148.88 259.287 150.245 257.293 153.814 257.293C154.864 257.293 156.48 257.502 157.32 258.027L157.005 259.539ZM165.658 263.801H162.634C161.27 263.801 161.018 264.494 161.018 265.187C161.018 266.278 161.585 266.614 162.571 266.614C163.768 266.614 164.839 266.383 165.658 266.194V263.801ZM162.718 262.205C163.516 262.205 164.65 262.289 165.595 262.52H165.658V261.072C165.658 259.581 164.944 258.909 163.264 258.909C162.005 258.909 161.27 259.119 160.22 259.434L159.905 257.922C160.955 257.502 162.152 257.293 163.579 257.293C165.994 257.293 167.61 258.216 167.61 260.736V266.551H168.996V267.727C168.198 268.063 167.715 268.21 167.022 268.21C166.33 268.21 165.721 267.853 165.658 267.265H165.553C164.587 267.895 163.453 268.21 162.299 268.21C160.514 268.21 159.065 267.391 159.065 265.229C159.065 263.066 160.409 262.205 162.718 262.205ZM173.361 253.094V268H171.409V253.303L173.361 253.094ZM181.822 265.691C182.977 266.173 184.678 266.467 185.748 266.467C187.533 266.467 188.52 265.628 188.52 264.284C188.52 262.751 187.26 262.163 185.58 261.66C183.166 260.946 181.402 260.127 181.402 257.586C181.402 255.088 183.544 253.723 186.21 253.723C187.722 253.723 189.108 254.059 190.01 254.416L189.527 256.159C188.457 255.739 187.071 255.487 186.189 255.487C184.636 255.487 183.481 256.096 183.481 257.419C183.481 258.888 184.888 259.434 186.504 259.917C189.045 260.694 190.598 261.848 190.598 264.074C190.598 266.677 188.541 268.21 185.811 268.21C183.943 268.21 182.326 267.832 181.318 267.328L181.822 265.691ZM197.562 266.719C199.724 266.719 200.501 265.208 200.501 262.541C200.501 260.211 199.934 258.804 197.772 258.804C195.588 258.804 194.812 260.316 194.812 262.961C194.812 265.313 195.378 266.719 197.562 266.719ZM197.877 257.293C200.816 257.293 202.454 258.867 202.454 262.541C202.454 266.215 201.026 268.21 197.457 268.21C194.518 268.21 192.859 266.635 192.859 262.961C192.859 259.287 194.308 257.293 197.877 257.293ZM207.253 253.094V268H205.3V253.303L207.253 253.094ZM216.444 263.801H213.42C212.056 263.801 211.804 264.494 211.804 265.187C211.804 266.278 212.37 266.614 213.357 266.614C214.554 266.614 215.625 266.383 216.444 266.194V263.801ZM213.504 262.205C214.302 262.205 215.436 262.289 216.381 262.52H216.444V261.072C216.444 259.581 215.73 258.909 214.05 258.909C212.79 258.909 212.056 259.119 211.006 259.434L210.691 257.922C211.741 257.502 212.937 257.293 214.365 257.293C216.779 257.293 218.396 258.216 218.396 260.736V266.551H219.782V267.727C218.984 268.063 218.501 268.21 217.808 268.21C217.115 268.21 216.507 267.853 216.444 267.265H216.339C215.373 267.895 214.239 268.21 213.084 268.21C211.3 268.21 209.851 267.391 209.851 265.229C209.851 263.066 211.195 262.205 213.504 262.205ZM227.8 257.293V259.077C226.184 259.056 224.987 259.287 224.336 259.581V268H222.383V257.502H224.336V258.321H224.441C225.449 257.649 226.519 257.23 227.8 257.293ZM239.683 260.82C241.552 260.82 242.707 259.875 242.707 258.195C242.707 256.159 241.321 255.697 239.41 255.697H237.374V260.82H239.683ZM244.743 258.195C244.743 261.387 242.266 262.562 239.683 262.562H237.374V268H235.358V253.933H239.893C243.127 253.933 244.743 255.529 244.743 258.195ZM251.089 268.063L245.924 253.933H248.128L252.096 265.292L256.149 253.933H258.353L252.978 268.063H251.089ZM9.6796 289.691C10.8343 290.173 12.5349 290.467 13.6057 290.467C15.3902 290.467 16.377 289.628 16.377 288.284C16.377 286.751 15.1173 286.163 13.4377 285.66C11.0233 284.946 9.2597 284.127 9.2597 281.586C9.2597 279.088 11.4012 277.723 14.0676 277.723C15.5792 277.723 16.9649 278.059 17.8677 278.416L17.3848 280.159C16.314 279.739 14.9284 279.487 14.0466 279.487C12.4929 279.487 11.3382 280.096 11.3382 281.419C11.3382 282.888 12.7449 283.434 14.3615 283.917C16.9019 284.694 18.4555 285.848 18.4555 288.074C18.4555 290.677 16.398 292.21 13.6687 292.21C11.8001 292.21 10.1835 291.832 9.17572 291.328L9.6796 289.691ZM23.6137 291.79L19.8556 281.502H22.0181L24.9994 289.984H25.1464L27.4138 281.502H29.4923L26.763 290.887C25.5873 294.96 24.0546 296.346 21.6612 296.325C21.1573 296.325 20.6534 296.241 20.1495 296.115L20.3805 294.624C21.0103 294.771 21.6822 294.771 22.0181 294.708C23.8447 294.351 24.4115 292.168 24.5375 291.79H23.6137ZM31.1818 290.047C31.9166 290.32 33.2813 290.614 34.2051 290.614C35.5277 290.614 36.5565 290.194 36.5565 289.145C36.5565 288.011 35.4018 287.696 34.0581 287.36C32.3575 286.961 30.9088 286.205 30.9088 284.274C30.9088 282.132 32.4835 281.293 34.9819 281.293C35.9476 281.293 37.1653 281.586 37.9842 281.859L37.6272 283.476C36.6615 283.119 35.6747 282.909 34.8979 282.909C33.5752 282.909 32.8614 283.371 32.8614 284.211C32.8614 285.324 34.1211 285.534 35.2548 285.848C36.9344 286.289 38.509 286.856 38.509 288.998C38.509 291.265 36.5985 292.21 34.1421 292.21C33.1973 292.21 31.7486 291.958 30.8458 291.664L31.1818 290.047ZM43.9175 278.143V281.502H46.8568L46.6469 283.056H43.9175V289.397C43.9175 290.362 44.6734 290.614 45.1982 290.614C45.4922 290.614 45.8281 290.635 46.7939 290.446L47.0248 291.937C46.353 292.042 45.5971 292.21 44.8413 292.21C43.1617 292.21 41.965 291.391 41.965 289.523V283.056H40.2224V281.502H41.965V278.353L43.9175 278.143ZM56.869 290.089L57.2259 291.538C56.1972 291.979 55.0844 292.21 53.7407 292.21C50.6125 292.21 48.7439 291.013 48.7439 286.793C48.7439 283.203 50.4235 281.293 53.4468 281.293C56.4491 281.293 57.8138 282.993 57.8138 285.869C57.8138 286.037 57.7928 286.646 57.6878 287.066H50.6965C50.7385 290.005 51.9982 290.614 53.8667 290.614C54.8325 290.614 56.0712 290.383 56.869 290.089ZM53.4258 282.909C51.9982 282.909 50.9904 283.644 50.7385 285.597H55.8612C55.8192 283.833 55.0004 282.909 53.4258 282.909ZM65.4568 282.909C64.1971 282.909 63.4413 283.266 62.7694 283.539V292H60.8169V281.502H62.7694V282.321H62.8744C63.8612 281.691 64.68 281.293 66.0236 281.293C67.0944 281.293 68.3121 281.649 68.879 282.573C70.1177 281.67 71.4823 281.293 72.742 281.293C74.8625 281.293 76.1642 282.447 76.1642 284.757V292H74.2117V285.282C74.2117 283.77 73.7708 282.909 72.1542 282.909C70.9155 282.909 69.9707 283.329 69.3199 283.665C69.4038 283.98 69.4458 284.358 69.4458 284.757V292H67.4933V285.282C67.4933 283.896 67.0944 282.909 65.4568 282.909ZM79.3432 290.047C80.078 290.32 81.4427 290.614 82.3665 290.614C83.6891 290.614 84.7179 290.194 84.7179 289.145C84.7179 288.011 83.5632 287.696 82.2195 287.36C80.5189 286.961 79.0702 286.205 79.0702 284.274C79.0702 282.132 80.6449 281.293 83.1433 281.293C84.109 281.293 85.3267 281.586 86.1456 281.859L85.7886 283.476C84.8229 283.119 83.8361 282.909 83.0593 282.909C81.7366 282.909 81.0228 283.371 81.0228 284.211C81.0228 285.324 82.2825 285.534 83.4162 285.848C85.0958 286.289 86.6704 286.856 86.6704 288.998C86.6704 291.265 84.7599 292.21 82.3035 292.21C81.3587 292.21 79.91 291.958 79.0073 291.664L79.3432 290.047Z" fill="#007736"/>
<path d="M18.32 343.3C17.54 342.96 16.52 342.7 15.12 342.7C11.72 342.7 10.8 345.2 10.8 348.4C10.8 351.36 11.7 353.9 15.1 353.9C16.02 353.9 17.6 353.48 18.6 353L19 354.1C17.94 354.66 16.46 355.2 14.9 355.2C10.72 355.2 9.3 352.06 9.3 348.4C9.3 344.56 10.5 341.4 15.02 341.4C16.34 341.4 17.78 341.62 18.82 342.1L18.32 343.3ZM23.4694 347.4H28.4694V348.7H23.4694V353.72H29.7294V355H22.0094V341.6H29.6494V342.88H23.4694V347.4ZM41.7227 345.5C41.7227 347.94 39.9427 349.12 37.9827 349.4L42.3027 355H40.4027L36.2627 349.5H34.5827V355H33.1227V341.6H37.2227C40.2227 341.6 41.7227 343 41.7227 345.5ZM37.0227 348.2C39.0227 348.2 40.2227 347.2 40.2227 345.5C40.2227 343.42 38.8427 342.9 36.8227 342.9H34.5827V348.2H37.0227ZM53.632 342.88H49.512V355H48.052V342.88H43.932V341.6H53.632V342.88ZM69.6352 341.6H71.0952V355H69.3952L62.3952 344V355H60.9352V341.6H62.6352L69.6352 352.6V341.6ZM78.5 354.1C80.9 354.1 81.6 352.4 81.6 349.8C81.6 347.5 81.1 345.9 78.7 345.9C76.3 345.9 75.6 347.6 75.6 350.2C75.6 352.5 76.1 354.1 78.5 354.1ZM78.8 344.8C81.6 344.8 83 346.3 83 349.8C83 353.3 81.8 355.2 78.4 355.2C75.6 355.2 74.2 353.7 74.2 350.2C74.2 346.7 75.4 344.8 78.8 344.8ZM85.7914 354.06C85.7914 353.48 86.2514 353.02 86.8314 353.02C87.4114 353.02 87.8714 353.48 87.8714 354.06C87.8714 354.64 87.4114 355.1 86.8314 355.1C86.2514 355.1 85.7914 354.64 85.7914 354.06ZM97.2695 353.7H104.47V355H95.2695V353.72C97.0895 352.1 102.37 349 102.37 345.3C102.37 343.64 101.09 342.7 99.4695 342.7C98.4495 342.7 97.3095 343.08 96.3295 343.66L95.6895 342.5C96.6495 341.8 98.2095 341.4 99.6695 341.4C101.95 341.4 103.81 342.36 103.87 345.28C103.93 348.52 100.11 351.44 97.2695 353.7ZM111.061 353.9C113.561 353.9 114.161 351.6 114.161 348C114.161 344.8 113.781 342.7 111.261 342.7C108.801 342.7 107.961 344.96 107.961 348.5C107.961 351.68 108.541 353.9 111.061 353.9ZM111.361 341.4C114.621 341.4 115.661 344 115.661 348C115.661 352 114.841 355.2 110.861 355.2C107.601 355.2 106.461 352.5 106.461 348.5C106.461 344.5 107.341 341.4 111.361 341.4ZM117.652 355.4L123.032 341.2H124.392L119.072 355.4H117.652ZM130.983 353.9C133.483 353.9 134.083 351.6 134.083 348C134.083 344.8 133.703 342.7 131.183 342.7C128.723 342.7 127.883 344.96 127.883 348.5C127.883 351.68 128.463 353.9 130.983 353.9ZM131.283 341.4C134.543 341.4 135.583 344 135.583 348C135.583 352 134.763 355.2 130.783 355.2C127.523 355.2 126.383 352.5 126.383 348.5C126.383 344.5 127.263 341.4 131.283 341.4ZM147.034 351.66H144.654V355H143.254V351.66H137.294V350.36L142.654 341.6H144.654V350.36H147.034V351.66ZM143.254 350.36V342.9L138.734 350.36H143.254ZM152.766 353.72V343.2C152.106 343.58 150.506 344 149.866 344.04L149.666 342.94C150.706 342.72 152.246 341.98 152.906 341.5H154.166V353.72H157.666V355H149.066V353.72H152.766ZM164.157 350C161.657 350 159.957 348.4 159.957 345.9C159.957 343.2 161.777 341.4 164.657 341.4C167.757 341.4 169.157 343.8 169.157 346.6C169.157 351.8 167.237 355.24 161.057 355.2V353.9C164.497 353.78 167.157 352.8 167.457 348.8C166.357 349.8 165.117 350 164.157 350ZM167.557 347.4C167.957 343.5 166.157 342.7 164.457 342.7C162.377 342.7 161.457 343.9 161.457 345.8C161.457 347.7 162.557 348.7 164.357 348.7C165.657 348.7 166.757 348.3 167.557 347.4Z" fill="#007736"/>
<defs>
<clipPath id="clip0_1364_7748">
<rect width="237.53" height="123.439" fill="white" transform="translate(33 31)"/>
</clipPath>
<clipPath id="clip1_1364_7748">
<rect width="237.53" height="123.439" fill="white" transform="translate(33 31)"/>
</clipPath>
</defs>
</svg>
