
<svg width="68" height="68" viewBox="0 0 68 68" fill="none" xmlns="http://www.w3.org/2000/svg">
<g clip-path="url(#clip0_176_3941)">
<path d="M12.0939 4.81496L1.54542 50.5417C0.934609 53.1895 2.58592 55.8311 5.23373 56.4419L50.9604 66.9903C53.6082 67.6011 56.2498 65.9498 56.8606 63.302L67.4091 17.5753C68.0199 14.9275 66.3686 12.2859 63.7208 11.6751L17.9941 1.12665C15.3463 0.515841 12.7047 2.16715 12.0939 4.81496Z" fill="#3EA448"/>
<path d="M8.86572 24.7662V30.7656H23.5683V38.2271H8.86572V50.7945H1.39258V17.3047H25.0537V24.7662H8.86572Z" fill="white"/>
<path d="M29.6484 17.3047H37.1332V50.7945H29.6484V17.3047Z" fill="white"/>
<path d="M50.3531 24.7662H41.209V17.3047H66.9356V24.7662H57.8379V50.7945H50.3531V24.7662Z" fill="white"/>
</g>
<defs>
<clipPath id="clip0_176_3941">
<rect width="67" height="66.1184" fill="white" transform="translate(0.5 0.9375)"/>
</clipPath>
</defs>
</svg>
